  0
SECTION
  2
BLOCKS
  0
ENDSEC
  0
SECTION
  2
ENTITIES
  0
LINE
  8
0
 10
60.5
 20
41.6
 11
65.7
 21
41.6
  0
LINE
  8
0
 10
65.7
 20
41.6
 11
65.7
 21
85
  0
LINE
  8
0
 10
65.7
 20
85
 11
60.5
 21
85
  0
LINE
  8
0
 10
60.5
 20
85
 11
60.5
 21
95
  0
LINE
  8
0
 10
60.5
 20
95
 11
35.5
 21
95
  0
LINE
  8
0
 10
35.5
 20
95
 11
35.4885
 21
94.7657
  0
LINE
  8
0
 10
35.4885
 20
94.7657
 11
35.4541
 21
94.5337
  0
LINE
  8
0
 10
35.4541
 20
94.5337
 11
35.3971
 21
94.3062
  0
LINE
  8
0
 10
35.3971
 20
94.3062
 11
35.3181
 21
94.0854
  0
LINE
  8
0
 10
35.3181
 20
94.0854
 11
35.2178
 21
93.8734
  0
LINE
  8
0
 10
35.2178
 20
93.8734
 11
35.0972
 21
93.6722
  0
LINE
  8
0
 10
35.0972
 20
93.6722
 11
34.9575
 21
93.4838
  0
LINE
  8
0
 10
34.9575
 20
93.4838
 11
34.8
 21
93.31
  0
LINE
  8
0
 10
34.8
 20
93.31
 11
34.6262
 21
93.1525
  0
LINE
  8
0
 10
34.6262
 20
93.1525
 11
34.4378
 21
93.0128
  0
LINE
  8
0
 10
34.4378
 20
93.0128
 11
34.2366
 21
92.8922
  0
LINE
  8
0
 10
34.2366
 20
92.8922
 11
34.0246
 21
92.7919
  0
LINE
  8
0
 10
34.0246
 20
92.7919
 11
33.8038
 21
92.7129
  0
LINE
  8
0
 10
33.8038
 20
92.7129
 11
33.5763
 21
92.6559
  0
LINE
  8
0
 10
33.5763
 20
92.6559
 11
33.3443
 21
92.6215
  0
LINE
  8
0
 10
33.3443
 20
92.6215
 11
33.11
 21
92.61
  0
LINE
  8
0
 10
33.11
 20
92.61
 11
27.39
 21
92.61
  0
LINE
  8
0
 10
27.39
 20
92.61
 11
27.1557
 21
92.6215
  0
LINE
  8
0
 10
27.1557
 20
92.6215
 11
26.9237
 21
92.6559
  0
LINE
  8
0
 10
26.9237
 20
92.6559
 11
26.6962
 21
92.7129
  0
LINE
  8
0
 10
26.6962
 20
92.7129
 11
26.4754
 21
92.7919
  0
LINE
  8
0
 10
26.4754
 20
92.7919
 11
26.2634
 21
92.8922
  0
LINE
  8
0
 10
26.2634
 20
92.8922
 11
26.0622
 21
93.0128
  0
LINE
  8
0
 10
26.0622
 20
93.0128
 11
25.8738
 21
93.1525
  0
LINE
  8
0
 10
25.8738
 20
93.1525
 11
25.7
 21
93.31
  0
LINE
  8
0
 10
25.7
 20
93.31
 11
25.5425
 21
93.4838
  0
LINE
  8
0
 10
25.5425
 20
93.4838
 11
25.4028
 21
93.6722
  0
LINE
  8
0
 10
25.4028
 20
93.6722
 11
25.2822
 21
93.8734
  0
LINE
  8
0
 10
25.2822
 20
93.8734
 11
25.1819
 21
94.0854
  0
LINE
  8
0
 10
25.1819
 20
94.0854
 11
25.1029
 21
94.3062
  0
LINE
  8
0
 10
25.1029
 20
94.3062
 11
25.0459
 21
94.5337
  0
LINE
  8
0
 10
25.0459
 20
94.5337
 11
25.0115
 21
94.7657
  0
LINE
  8
0
 10
25.0115
 20
94.7657
 11
25
 21
95
  0
LINE
  8
0
 10
25
 20
95
 11
0
 21
95
  0
LINE
  8
0
 10
0
 20
95
 11
0
 21
85
  0
LINE
  8
0
 10
0
 20
85
 11
-5.2
 21
85
  0
LINE
  8
0
 10
-5.2
 20
85
 11
-5.2
 21
41.6
  0
LINE
  8
0
 10
-5.2
 20
41.6
 11
0
 21
41.6
  0
LINE
  8
0
 10
0
 20
41.6
 11
0
 21
0
  0
LINE
  8
0
 10
0
 20
0
 11
60.5
 21
0
  0
LINE
  8
0
 10
60.5
 20
0
 11
60.5
 21
41.6
  0
LINE
  8
0
 10
17.9363
 20
87.0154
 11
17.6257
 21
87.0615
  0
LINE
  8
0
 10
17.6257
 20
87.0615
 11
17.3211
 21
87.1378
  0
LINE
  8
0
 10
17.3211
 20
87.1378
 11
17.0254
 21
87.2436
  0
LINE
  8
0
 10
17.0254
 20
87.2436
 11
16.7415
 21
87.3778
  0
LINE
  8
0
 10
16.7415
 20
87.3778
 11
16.4722
 21
87.5393
  0
LINE
  8
0
 10
16.4722
 20
87.5393
 11
16.2199
 21
87.7264
  0
LINE
  8
0
 10
16.2199
 20
87.7264
 11
15.9872
 21
87.9373
  0
LINE
  8
0
 10
15.9872
 20
87.9373
 11
15.7764
 21
88.1699
  0
LINE
  8
0
 10
15.7764
 20
88.1699
 11
15.5893
 21
88.4222
  0
LINE
  8
0
 10
15.5893
 20
88.4222
 11
15.4278
 21
88.6915
  0
LINE
  8
0
 10
15.4278
 20
88.6915
 11
15.2936
 21
88.9754
  0
LINE
  8
0
 10
15.2936
 20
88.9754
 11
15.1878
 21
89.2711
  0
LINE
  8
0
 10
15.1878
 20
89.2711
 11
15.1115
 21
89.5757
  0
LINE
  8
0
 10
15.1115
 20
89.5757
 11
15.0654
 21
89.8863
  0
LINE
  8
0
 10
15.0654
 20
89.8863
 11
15.05
 21
90.2
  0
LINE
  8
0
 10
15.05
 20
90.2
 11
15.0654
 21
90.5136
  0
LINE
  8
0
 10
15.0654
 20
90.5136
 11
15.1115
 21
90.8243
  0
LINE
  8
0
 10
15.1115
 20
90.8243
 11
15.1878
 21
91.1289
  0
LINE
  8
0
 10
15.1878
 20
91.1289
 11
15.2936
 21
91.4246
  0
LINE
  8
0
 10
15.2936
 20
91.4246
 11
15.4278
 21
91.7085
  0
LINE
  8
0
 10
15.4278
 20
91.7085
 11
15.5893
 21
91.9778
  0
LINE
  8
0
 10
15.5893
 20
91.9778
 11
15.7764
 21
92.2301
  0
LINE
  8
0
 10
15.7764
 20
92.2301
 11
15.9872
 21
92.4627
  0
LINE
  8
0
 10
15.9872
 20
92.4627
 11
16.2199
 21
92.6736
  0
LINE
  8
0
 10
16.2199
 20
92.6736
 11
16.4722
 21
92.8607
  0
LINE
  8
0
 10
16.4722
 20
92.8607
 11
16.7415
 21
93.0221
  0
LINE
  8
0
 10
16.7415
 20
93.0221
 11
17.0254
 21
93.1564
  0
LINE
  8
0
 10
17.0254
 20
93.1564
 11
17.3211
 21
93.2622
  0
LINE
  8
0
 10
17.3211
 20
93.2622
 11
17.6257
 21
93.3385
  0
LINE
  8
0
 10
17.6257
 20
93.3385
 11
17.9363
 21
93.3846
  0
LINE
  8
0
 10
17.9363
 20
93.3846
 11
18.25
 21
93.4
  0
LINE
  8
0
 10
18.25
 20
93.4
 11
18.5636
 21
93.3846
  0
LINE
  8
0
 10
18.5636
 20
93.3846
 11
18.8743
 21
93.3385
  0
LINE
  8
0
 10
18.8743
 20
93.3385
 11
19.1789
 21
93.2622
  0
LINE
  8
0
 10
19.1789
 20
93.2622
 11
19.4746
 21
93.1564
  0
LINE
  8
0
 10
19.4746
 20
93.1564
 11
19.7585
 21
93.0221
  0
LINE
  8
0
 10
19.7585
 20
93.0221
 11
20.0278
 21
92.8607
  0
LINE
  8
0
 10
20.0278
 20
92.8607
 11
20.28
 21
92.6736
  0
LINE
  8
0
 10
20.28
 20
92.6736
 11
20.5127
 21
92.4627
  0
LINE
  8
0
 10
20.5127
 20
92.4627
 11
20.7236
 21
92.2301
  0
LINE
  8
0
 10
20.7236
 20
92.2301
 11
20.9107
 21
91.9778
  0
LINE
  8
0
 10
20.9107
 20
91.9778
 11
21.0721
 21
91.7085
  0
LINE
  8
0
 10
21.0721
 20
91.7085
 11
21.2064
 21
91.4246
  0
LINE
  8
0
 10
21.2064
 20
91.4246
 11
21.3122
 21
91.1289
  0
LINE
  8
0
 10
21.3122
 20
91.1289
 11
21.3885
 21
90.8243
  0
LINE
  8
0
 10
21.3885
 20
90.8243
 11
21.4346
 21
90.5136
  0
LINE
  8
0
 10
21.4346
 20
90.5136
 11
21.45
 21
90.2
  0
LINE
  8
0
 10
21.45
 20
90.2
 11
21.4346
 21
89.8863
  0
LINE
  8
0
 10
21.4346
 20
89.8863
 11
21.3885
 21
89.5757
  0
LINE
  8
0
 10
21.3885
 20
89.5757
 11
21.3122
 21
89.2711
  0
LINE
  8
0
 10
21.3122
 20
89.2711
 11
21.2064
 21
88.9754
  0
LINE
  8
0
 10
21.2064
 20
88.9754
 11
21.0721
 21
88.6915
  0
LINE
  8
0
 10
21.0721
 20
88.6915
 11
20.9107
 21
88.4222
  0
LINE
  8
0
 10
20.9107
 20
88.4222
 11
20.7236
 21
88.1699
  0
LINE
  8
0
 10
20.7236
 20
88.1699
 11
20.5127
 21
87.9373
  0
LINE
  8
0
 10
20.5127
 20
87.9373
 11
20.28
 21
87.7264
  0
LINE
  8
0
 10
20.28
 20
87.7264
 11
20.0278
 21
87.5393
  0
LINE
  8
0
 10
20.0278
 20
87.5393
 11
19.7585
 21
87.3778
  0
LINE
  8
0
 10
19.7585
 20
87.3778
 11
19.4746
 21
87.2436
  0
LINE
  8
0
 10
19.4746
 20
87.2436
 11
19.1789
 21
87.1378
  0
LINE
  8
0
 10
19.1789
 20
87.1378
 11
18.8743
 21
87.0615
  0
LINE
  8
0
 10
18.8743
 20
87.0615
 11
18.5636
 21
87.0154
  0
LINE
  8
0
 10
18.5636
 20
87.0154
 11
18.25
 21
87
  0
LINE
  8
0
 10
18.25
 20
87
 11
17.9363
 21
87.0154
  0
LINE
  8
0
 10
41.9363
 20
87.0154
 11
41.6257
 21
87.0615
  0
LINE
  8
0
 10
41.6257
 20
87.0615
 11
41.3211
 21
87.1378
  0
LINE
  8
0
 10
41.3211
 20
87.1378
 11
41.0254
 21
87.2436
  0
LINE
  8
0
 10
41.0254
 20
87.2436
 11
40.7415
 21
87.3778
  0
LINE
  8
0
 10
40.7415
 20
87.3778
 11
40.4722
 21
87.5393
  0
LINE
  8
0
 10
40.4722
 20
87.5393
 11
40.2199
 21
87.7264
  0
LINE
  8
0
 10
40.2199
 20
87.7264
 11
39.9872
 21
87.9373
  0
LINE
  8
0
 10
39.9872
 20
87.9373
 11
39.7764
 21
88.1699
  0
LINE
  8
0
 10
39.7764
 20
88.1699
 11
39.5893
 21
88.4222
  0
LINE
  8
0
 10
39.5893
 20
88.4222
 11
39.4278
 21
88.6915
  0
LINE
  8
0
 10
39.4278
 20
88.6915
 11
39.2936
 21
88.9754
  0
LINE
  8
0
 10
39.2936
 20
88.9754
 11
39.1878
 21
89.2711
  0
LINE
  8
0
 10
39.1878
 20
89.2711
 11
39.1115
 21
89.5757
  0
LINE
  8
0
 10
39.1115
 20
89.5757
 11
39.0654
 21
89.8863
  0
LINE
  8
0
 10
39.0654
 20
89.8863
 11
39.05
 21
90.2
  0
LINE
  8
0
 10
39.05
 20
90.2
 11
39.0654
 21
90.5136
  0
LINE
  8
0
 10
39.0654
 20
90.5136
 11
39.1115
 21
90.8243
  0
LINE
  8
0
 10
39.1115
 20
90.8243
 11
39.1878
 21
91.1289
  0
LINE
  8
0
 10
39.1878
 20
91.1289
 11
39.2936
 21
91.4246
  0
LINE
  8
0
 10
39.2936
 20
91.4246
 11
39.4278
 21
91.7085
  0
LINE
  8
0
 10
39.4278
 20
91.7085
 11
39.5893
 21
91.9778
  0
LINE
  8
0
 10
39.5893
 20
91.9778
 11
39.7764
 21
92.2301
  0
LINE
  8
0
 10
39.7764
 20
92.2301
 11
39.9872
 21
92.4627
  0
LINE
  8
0
 10
39.9872
 20
92.4627
 11
40.2199
 21
92.6736
  0
LINE
  8
0
 10
40.2199
 20
92.6736
 11
40.4722
 21
92.8607
  0
LINE
  8
0
 10
40.4722
 20
92.8607
 11
40.7415
 21
93.0221
  0
LINE
  8
0
 10
40.7415
 20
93.0221
 11
41.0254
 21
93.1564
  0
LINE
  8
0
 10
41.0254
 20
93.1564
 11
41.3211
 21
93.2622
  0
LINE
  8
0
 10
41.3211
 20
93.2622
 11
41.6257
 21
93.3385
  0
LINE
  8
0
 10
41.6257
 20
93.3385
 11
41.9363
 21
93.3846
  0
LINE
  8
0
 10
41.9363
 20
93.3846
 11
42.25
 21
93.4
  0
LINE
  8
0
 10
42.25
 20
93.4
 11
42.5636
 21
93.3846
  0
LINE
  8
0
 10
42.5636
 20
93.3846
 11
42.8743
 21
93.3385
  0
LINE
  8
0
 10
42.8743
 20
93.3385
 11
43.1789
 21
93.2622
  0
LINE
  8
0
 10
43.1789
 20
93.2622
 11
43.4746
 21
93.1564
  0
LINE
  8
0
 10
43.4746
 20
93.1564
 11
43.7585
 21
93.0221
  0
LINE
  8
0
 10
43.7585
 20
93.0221
 11
44.0278
 21
92.8607
  0
LINE
  8
0
 10
44.0278
 20
92.8607
 11
44.28
 21
92.6736
  0
LINE
  8
0
 10
44.28
 20
92.6736
 11
44.5127
 21
92.4627
  0
LINE
  8
0
 10
44.5127
 20
92.4627
 11
44.7236
 21
92.2301
  0
LINE
  8
0
 10
44.7236
 20
92.2301
 11
44.9107
 21
91.9778
  0
LINE
  8
0
 10
44.9107
 20
91.9778
 11
45.0721
 21
91.7085
  0
LINE
  8
0
 10
45.0721
 20
91.7085
 11
45.2064
 21
91.4246
  0
LINE
  8
0
 10
45.2064
 20
91.4246
 11
45.3122
 21
91.1289
  0
LINE
  8
0
 10
45.3122
 20
91.1289
 11
45.3885
 21
90.8243
  0
LINE
  8
0
 10
45.3885
 20
90.8243
 11
45.4346
 21
90.5136
  0
LINE
  8
0
 10
45.4346
 20
90.5136
 11
45.45
 21
90.2
  0
LINE
  8
0
 10
45.45
 20
90.2
 11
45.4346
 21
89.8863
  0
LINE
  8
0
 10
45.4346
 20
89.8863
 11
45.3885
 21
89.5757
  0
LINE
  8
0
 10
45.3885
 20
89.5757
 11
45.3122
 21
89.2711
  0
LINE
  8
0
 10
45.3122
 20
89.2711
 11
45.2064
 21
88.9754
  0
LINE
  8
0
 10
45.2064
 20
88.9754
 11
45.0721
 21
88.6915
  0
LINE
  8
0
 10
45.0721
 20
88.6915
 11
44.9107
 21
88.4222
  0
LINE
  8
0
 10
44.9107
 20
88.4222
 11
44.7236
 21
88.1699
  0
LINE
  8
0
 10
44.7236
 20
88.1699
 11
44.5127
 21
87.9373
  0
LINE
  8
0
 10
44.5127
 20
87.9373
 11
44.28
 21
87.7264
  0
LINE
  8
0
 10
44.28
 20
87.7264
 11
44.0278
 21
87.5393
  0
LINE
  8
0
 10
44.0278
 20
87.5393
 11
43.7585
 21
87.3778
  0
LINE
  8
0
 10
43.7585
 20
87.3778
 11
43.4746
 21
87.2436
  0
LINE
  8
0
 10
43.4746
 20
87.2436
 11
43.1789
 21
87.1378
  0
LINE
  8
0
 10
43.1789
 20
87.1378
 11
42.8743
 21
87.0615
  0
LINE
  8
0
 10
42.8743
 20
87.0615
 11
42.5636
 21
87.0154
  0
LINE
  8
0
 10
42.5636
 20
87.0154
 11
42.25
 21
87
  0
LINE
  8
0
 10
42.25
 20
87
 11
41.9363
 21
87.0154
  0
LINE
  8
0
 10
4.83336
 20
88.3082
 11
4.66833
 21
88.3327
  0
LINE
  8
0
 10
4.66833
 20
88.3327
 11
4.50652
 21
88.3732
  0
LINE
  8
0
 10
4.50652
 20
88.3732
 11
4.34943
 21
88.4294
  0
LINE
  8
0
 10
4.34943
 20
88.4294
 11
4.19862
 21
88.5007
  0
LINE
  8
0
 10
4.19862
 20
88.5007
 11
4.05553
 21
88.5865
  0
LINE
  8
0
 10
4.05553
 20
88.5865
 11
3.92152
 21
88.6859
  0
LINE
  8
0
 10
3.92152
 20
88.6859
 11
3.79791
 21
88.7979
  0
LINE
  8
0
 10
3.79791
 20
88.7979
 11
3.68587
 21
88.9215
  0
LINE
  8
0
 10
3.68587
 20
88.9215
 11
3.58649
 21
89.0555
  0
LINE
  8
0
 10
3.58649
 20
89.0555
 11
3.50073
 21
89.1986
  0
LINE
  8
0
 10
3.50073
 20
89.1986
 11
3.4294
 21
89.3494
  0
LINE
  8
0
 10
3.4294
 20
89.3494
 11
3.3732
 21
89.5065
  0
LINE
  8
0
 10
3.3732
 20
89.5065
 11
3.33266
 21
89.6683
  0
LINE
  8
0
 10
3.33266
 20
89.6683
 11
3.30818
 21
89.8334
  0
LINE
  8
0
 10
3.30818
 20
89.8334
 11
3.29999
 21
90
  0
LINE
  8
0
 10
3.29999
 20
90
 11
3.30818
 21
90.1666
  0
LINE
  8
0
 10
3.30818
 20
90.1666
 11
3.33266
 21
90.3316
  0
LINE
  8
0
 10
3.33266
 20
90.3316
 11
3.3732
 21
90.4935
  0
LINE
  8
0
 10
3.3732
 20
90.4935
 11
3.4294
 21
90.6506
  0
LINE
  8
0
 10
3.4294
 20
90.6506
 11
3.50073
 21
90.8014
  0
LINE
  8
0
 10
3.50073
 20
90.8014
 11
3.58649
 21
90.9445
  0
LINE
  8
0
 10
3.58649
 20
90.9445
 11
3.68587
 21
91.0785
  0
LINE
  8
0
 10
3.68587
 20
91.0785
 11
3.79791
 21
91.2021
  0
LINE
  8
0
 10
3.79791
 20
91.2021
 11
3.92152
 21
91.3141
  0
LINE
  8
0
 10
3.92152
 20
91.3141
 11
4.05553
 21
91.4135
  0
LINE
  8
0
 10
4.05553
 20
91.4135
 11
4.19862
 21
91.4993
  0
LINE
  8
0
 10
4.19862
 20
91.4993
 11
4.34943
 21
91.5706
  0
LINE
  8
0
 10
4.34943
 20
91.5706
 11
4.50652
 21
91.6268
  0
LINE
  8
0
 10
4.50652
 20
91.6268
 11
4.66833
 21
91.6673
  0
LINE
  8
0
 10
4.66833
 20
91.6673
 11
4.83336
 21
91.6918
  0
LINE
  8
0
 10
4.83336
 20
91.6918
 11
5
 21
91.7
  0
LINE
  8
0
 10
5
 20
91.7
 11
5.16663
 21
91.6918
  0
LINE
  8
0
 10
5.16663
 20
91.6918
 11
5.33165
 21
91.6673
  0
LINE
  8
0
 10
5.33165
 20
91.6673
 11
5.49347
 21
91.6268
  0
LINE
  8
0
 10
5.49347
 20
91.6268
 11
5.65056
 21
91.5706
  0
LINE
  8
0
 10
5.65056
 20
91.5706
 11
5.80136
 21
91.4993
  0
LINE
  8
0
 10
5.80136
 20
91.4993
 11
5.94446
 21
91.4135
  0
LINE
  8
0
 10
5.94446
 20
91.4135
 11
6.07846
 21
91.3141
  0
LINE
  8
0
 10
6.07846
 20
91.3141
 11
6.20207
 21
91.2021
  0
LINE
  8
0
 10
6.20207
 20
91.2021
 11
6.31412
 21
91.0785
  0
LINE
  8
0
 10
6.31412
 20
91.0785
 11
6.4135
 21
90.9445
  0
LINE
  8
0
 10
6.4135
 20
90.9445
 11
6.49925
 21
90.8014
  0
LINE
  8
0
 10
6.49925
 20
90.8014
 11
6.57059
 21
90.6506
  0
LINE
  8
0
 10
6.57059
 20
90.6506
 11
6.62679
 21
90.4935
  0
LINE
  8
0
 10
6.62679
 20
90.4935
 11
6.66733
 21
90.3316
  0
LINE
  8
0
 10
6.66733
 20
90.3316
 11
6.6918
 21
90.1666
  0
LINE
  8
0
 10
6.6918
 20
90.1666
 11
6.7
 21
90
  0
LINE
  8
0
 10
6.7
 20
90
 11
6.6918
 21
89.8334
  0
LINE
  8
0
 10
6.6918
 20
89.8334
 11
6.66733
 21
89.6683
  0
LINE
  8
0
 10
6.66733
 20
89.6683
 11
6.62679
 21
89.5065
  0
LINE
  8
0
 10
6.62679
 20
89.5065
 11
6.57059
 21
89.3494
  0
LINE
  8
0
 10
6.57059
 20
89.3494
 11
6.49925
 21
89.1986
  0
LINE
  8
0
 10
6.49925
 20
89.1986
 11
6.4135
 21
89.0555
  0
LINE
  8
0
 10
6.4135
 20
89.0555
 11
6.31412
 21
88.9215
  0
LINE
  8
0
 10
6.31412
 20
88.9215
 11
6.20207
 21
88.7979
  0
LINE
  8
0
 10
6.20207
 20
88.7979
 11
6.07846
 21
88.6859
  0
LINE
  8
0
 10
6.07846
 20
88.6859
 11
5.94446
 21
88.5865
  0
LINE
  8
0
 10
5.94446
 20
88.5865
 11
5.80136
 21
88.5007
  0
LINE
  8
0
 10
5.80136
 20
88.5007
 11
5.65056
 21
88.4294
  0
LINE
  8
0
 10
5.65056
 20
88.4294
 11
5.49347
 21
88.3732
  0
LINE
  8
0
 10
5.49347
 20
88.3732
 11
5.33165
 21
88.3327
  0
LINE
  8
0
 10
5.33165
 20
88.3327
 11
5.16663
 21
88.3082
  0
LINE
  8
0
 10
5.16663
 20
88.3082
 11
5
 21
88.3
  0
LINE
  8
0
 10
5
 20
88.3
 11
4.83336
 21
88.3082
  0
LINE
  8
0
 10
55.3334
 20
88.3082
 11
55.1683
 21
88.3327
  0
LINE
  8
0
 10
55.1683
 20
88.3327
 11
55.0065
 21
88.3732
  0
LINE
  8
0
 10
55.0065
 20
88.3732
 11
54.8494
 21
88.4294
  0
LINE
  8
0
 10
54.8494
 20
88.4294
 11
54.6986
 21
88.5007
  0
LINE
  8
0
 10
54.6986
 20
88.5007
 11
54.5555
 21
88.5865
  0
LINE
  8
0
 10
54.5555
 20
88.5865
 11
54.4215
 21
88.6859
  0
LINE
  8
0
 10
54.4215
 20
88.6859
 11
54.2979
 21
88.7979
  0
LINE
  8
0
 10
54.2979
 20
88.7979
 11
54.1859
 21
88.9215
  0
LINE
  8
0
 10
54.1859
 20
88.9215
 11
54.0865
 21
89.0555
  0
LINE
  8
0
 10
54.0865
 20
89.0555
 11
54.0007
 21
89.1986
  0
LINE
  8
0
 10
54.0007
 20
89.1986
 11
53.9294
 21
89.3494
  0
LINE
  8
0
 10
53.9294
 20
89.3494
 11
53.8732
 21
89.5065
  0
LINE
  8
0
 10
53.8732
 20
89.5065
 11
53.8327
 21
89.6683
  0
LINE
  8
0
 10
53.8327
 20
89.6683
 11
53.8082
 21
89.8334
  0
LINE
  8
0
 10
53.8082
 20
89.8334
 11
53.8
 21
90
  0
LINE
  8
0
 10
53.8
 20
90
 11
53.8082
 21
90.1666
  0
LINE
  8
0
 10
53.8082
 20
90.1666
 11
53.8327
 21
90.3316
  0
LINE
  8
0
 10
53.8327
 20
90.3316
 11
53.8732
 21
90.4935
  0
LINE
  8
0
 10
53.8732
 20
90.4935
 11
53.9294
 21
90.6506
  0
LINE
  8
0
 10
53.9294
 20
90.6506
 11
54.0007
 21
90.8014
  0
LINE
  8
0
 10
54.0007
 20
90.8014
 11
54.0865
 21
90.9445
  0
LINE
  8
0
 10
54.0865
 20
90.9445
 11
54.1859
 21
91.0785
  0
LINE
  8
0
 10
54.1859
 20
91.0785
 11
54.2979
 21
91.2021
  0
LINE
  8
0
 10
54.2979
 20
91.2021
 11
54.4215
 21
91.3141
  0
LINE
  8
0
 10
54.4215
 20
91.3141
 11
54.5555
 21
91.4135
  0
LINE
  8
0
 10
54.5555
 20
91.4135
 11
54.6986
 21
91.4993
  0
LINE
  8
0
 10
54.6986
 20
91.4993
 11
54.8494
 21
91.5706
  0
LINE
  8
0
 10
54.8494
 20
91.5706
 11
55.0065
 21
91.6268
  0
LINE
  8
0
 10
55.0065
 20
91.6268
 11
55.1683
 21
91.6673
  0
LINE
  8
0
 10
55.1683
 20
91.6673
 11
55.3334
 21
91.6918
  0
LINE
  8
0
 10
55.3334
 20
91.6918
 11
55.5
 21
91.7
  0
LINE
  8
0
 10
55.5
 20
91.7
 11
55.6666
 21
91.6918
  0
LINE
  8
0
 10
55.6666
 20
91.6918
 11
55.8316
 21
91.6673
  0
LINE
  8
0
 10
55.8316
 20
91.6673
 11
55.9935
 21
91.6268
  0
LINE
  8
0
 10
55.9935
 20
91.6268
 11
56.1506
 21
91.5706
  0
LINE
  8
0
 10
56.1506
 20
91.5706
 11
56.3014
 21
91.4993
  0
LINE
  8
0
 10
56.3014
 20
91.4993
 11
56.4445
 21
91.4135
  0
LINE
  8
0
 10
56.4445
 20
91.4135
 11
56.5785
 21
91.3141
  0
LINE
  8
0
 10
56.5785
 20
91.3141
 11
56.7021
 21
91.2021
  0
LINE
  8
0
 10
56.7021
 20
91.2021
 11
56.8141
 21
91.0785
  0
LINE
  8
0
 10
56.8141
 20
91.0785
 11
56.9135
 21
90.9445
  0
LINE
  8
0
 10
56.9135
 20
90.9445
 11
56.9993
 21
90.8014
  0
LINE
  8
0
 10
56.9993
 20
90.8014
 11
57.0706
 21
90.6506
  0
LINE
  8
0
 10
57.0706
 20
90.6506
 11
57.1268
 21
90.4935
  0
LINE
  8
0
 10
57.1268
 20
90.4935
 11
57.1673
 21
90.3316
  0
LINE
  8
0
 10
57.1673
 20
90.3316
 11
57.1918
 21
90.1666
  0
LINE
  8
0
 10
57.1918
 20
90.1666
 11
57.2
 21
90
  0
LINE
  8
0
 10
57.2
 20
90
 11
57.1918
 21
89.8334
  0
LINE
  8
0
 10
57.1918
 20
89.8334
 11
57.1673
 21
89.6683
  0
LINE
  8
0
 10
57.1673
 20
89.6683
 11
57.1268
 21
89.5065
  0
LINE
  8
0
 10
57.1268
 20
89.5065
 11
57.0706
 21
89.3494
  0
LINE
  8
0
 10
57.0706
 20
89.3494
 11
56.9993
 21
89.1986
  0
LINE
  8
0
 10
56.9993
 20
89.1986
 11
56.9135
 21
89.0555
  0
LINE
  8
0
 10
56.9135
 20
89.0555
 11
56.8141
 21
88.9215
  0
LINE
  8
0
 10
56.8141
 20
88.9215
 11
56.7021
 21
88.7979
  0
LINE
  8
0
 10
56.7021
 20
88.7979
 11
56.5785
 21
88.6859
  0
LINE
  8
0
 10
56.5785
 20
88.6859
 11
56.4445
 21
88.5865
  0
LINE
  8
0
 10
56.4445
 20
88.5865
 11
56.3014
 21
88.5007
  0
LINE
  8
0
 10
56.3014
 20
88.5007
 11
56.1506
 21
88.4294
  0
LINE
  8
0
 10
56.1506
 20
88.4294
 11
55.9935
 21
88.3732
  0
LINE
  8
0
 10
55.9935
 20
88.3732
 11
55.8316
 21
88.3327
  0
LINE
  8
0
 10
55.8316
 20
88.3327
 11
55.6666
 21
88.3082
  0
LINE
  8
0
 10
55.6666
 20
88.3082
 11
55.5
 21
88.3
  0
LINE
  8
0
 10
55.5
 20
88.3
 11
55.3334
 21
88.3082
  0
LINE
  8
0
 10
-4.89999
 20
41.9
 11
-4.89999
 21
84.7
  0
LINE
  8
0
 10
-4.89999
 20
84.7
 11
0
 21
84.7
  0
LINE
  8
0
 10
0
 20
84.7
 11
0
 21
41.9
  0
LINE
  8
0
 10
0
 20
41.9
 11
-4.89999
 21
41.9
  0
LINE
  8
0
 10
60.5
 20
41.9
 11
60.5
 21
84.7
  0
LINE
  8
0
 10
60.5
 20
84.7
 11
65.4
 21
84.7
  0
LINE
  8
0
 10
65.4
 20
84.7
 11
65.4
 21
41.9
  0
LINE
  8
0
 10
65.4
 20
41.9
 11
60.5
 21
41.9
  0
LINE
  8
0
 10
2.745
 20
49.555
 11
2.745
 21
77.045
  0
LINE
  8
0
 10
2.745
 20
77.045
 11
57.755
 21
77.045
  0
LINE
  8
0
 10
57.755
 20
77.045
 11
57.755
 21
49.555
  0
LINE
  8
0
 10
57.755
 20
49.555
 11
2.745
 21
49.555
  0
LINE
  8
0
 10
9.07837
 20
38.3632
 11
8.91335
 21
38.3877
  0
LINE
  8
0
 10
8.91335
 20
38.3877
 11
8.75151
 21
38.4282
  0
LINE
  8
0
 10
8.75151
 20
38.4282
 11
8.59444
 21
38.4844
  0
LINE
  8
0
 10
8.59444
 20
38.4844
 11
8.44362
 21
38.5557
  0
LINE
  8
0
 10
8.44362
 20
38.5557
 11
8.30052
 21
38.6415
  0
LINE
  8
0
 10
8.30052
 20
38.6415
 11
8.16652
 21
38.7409
  0
LINE
  8
0
 10
8.16652
 20
38.7409
 11
8.04291
 21
38.8529
  0
LINE
  8
0
 10
8.04291
 20
38.8529
 11
7.93088
 21
38.9765
  0
LINE
  8
0
 10
7.93088
 20
38.9765
 11
7.8315
 21
39.1105
  0
LINE
  8
0
 10
7.8315
 20
39.1105
 11
7.74573
 21
39.2536
  0
LINE
  8
0
 10
7.74573
 20
39.2536
 11
7.67439
 21
39.4044
  0
LINE
  8
0
 10
7.67439
 20
39.4044
 11
7.61819
 21
39.5615
  0
LINE
  8
0
 10
7.61819
 20
39.5615
 11
7.57765
 21
39.7233
  0
LINE
  8
0
 10
7.57765
 20
39.7233
 11
7.55318
 21
39.8884
  0
LINE
  8
0
 10
7.55318
 20
39.8884
 11
7.545
 21
40.055
  0
LINE
  8
0
 10
7.545
 20
40.055
 11
7.55318
 21
40.2216
  0
LINE
  8
0
 10
7.55318
 20
40.2216
 11
7.57765
 21
40.3866
  0
LINE
  8
0
 10
7.57765
 20
40.3866
 11
7.61819
 21
40.5485
  0
LINE
  8
0
 10
7.61819
 20
40.5485
 11
7.67439
 21
40.7056
  0
LINE
  8
0
 10
7.67439
 20
40.7056
 11
7.74573
 21
40.8564
  0
LINE
  8
0
 10
7.74573
 20
40.8564
 11
7.8315
 21
40.9995
  0
LINE
  8
0
 10
7.8315
 20
40.9995
 11
7.93088
 21
41.1335
  0
LINE
  8
0
 10
7.93088
 20
41.1335
 11
8.04291
 21
41.2571
  0
LINE
  8
0
 10
8.04291
 20
41.2571
 11
8.16652
 21
41.3691
  0
LINE
  8
0
 10
8.16652
 20
41.3691
 11
8.30052
 21
41.4685
  0
LINE
  8
0
 10
8.30052
 20
41.4685
 11
8.44362
 21
41.5543
  0
LINE
  8
0
 10
8.44362
 20
41.5543
 11
8.5403
 21
41.6
  0
LINE
  8
0
 10
8.5403
 20
41.6
 11
9.94969
 21
41.6
  0
LINE
  8
0
 10
9.94969
 20
41.6
 11
10.0464
 21
41.5543
  0
LINE
  8
0
 10
10.0464
 20
41.5543
 11
10.1895
 21
41.4685
  0
LINE
  8
0
 10
10.1895
 20
41.4685
 11
10.3235
 21
41.3691
  0
LINE
  8
0
 10
10.3235
 20
41.3691
 11
10.4471
 21
41.2571
  0
LINE
  8
0
 10
10.4471
 20
41.2571
 11
10.5591
 21
41.1335
  0
LINE
  8
0
 10
10.5591
 20
41.1335
 11
10.6585
 21
40.9995
  0
LINE
  8
0
 10
10.6585
 20
40.9995
 11
10.7443
 21
40.8564
  0
LINE
  8
0
 10
10.7443
 20
40.8564
 11
10.8156
 21
40.7056
  0
LINE
  8
0
 10
10.8156
 20
40.7056
 11
10.8718
 21
40.5485
  0
LINE
  8
0
 10
10.8718
 20
40.5485
 11
10.9123
 21
40.3866
  0
LINE
  8
0
 10
10.9123
 20
40.3866
 11
10.9368
 21
40.2216
  0
LINE
  8
0
 10
10.9368
 20
40.2216
 11
10.945
 21
40.055
  0
LINE
  8
0
 10
10.945
 20
40.055
 11
10.9368
 21
39.8884
  0
LINE
  8
0
 10
10.9368
 20
39.8884
 11
10.9123
 21
39.7233
  0
LINE
  8
0
 10
10.9123
 20
39.7233
 11
10.8718
 21
39.5615
  0
LINE
  8
0
 10
10.8718
 20
39.5615
 11
10.8156
 21
39.4044
  0
LINE
  8
0
 10
10.8156
 20
39.4044
 11
10.7443
 21
39.2536
  0
LINE
  8
0
 10
10.7443
 20
39.2536
 11
10.6585
 21
39.1105
  0
LINE
  8
0
 10
10.6585
 20
39.1105
 11
10.5591
 21
38.9765
  0
LINE
  8
0
 10
10.5591
 20
38.9765
 11
10.4471
 21
38.8529
  0
LINE
  8
0
 10
10.4471
 20
38.8529
 11
10.3235
 21
38.7409
  0
LINE
  8
0
 10
10.3235
 20
38.7409
 11
10.1895
 21
38.6415
  0
LINE
  8
0
 10
10.1895
 20
38.6415
 11
10.0464
 21
38.5557
  0
LINE
  8
0
 10
10.0464
 20
38.5557
 11
9.89555
 21
38.4844
  0
LINE
  8
0
 10
9.89555
 20
38.4844
 11
9.73848
 21
38.4282
  0
LINE
  8
0
 10
9.73848
 20
38.4282
 11
9.57664
 21
38.3877
  0
LINE
  8
0
 10
9.57664
 20
38.3877
 11
9.41162
 21
38.3632
  0
LINE
  8
0
 10
9.41162
 20
38.3632
 11
9.245
 21
38.355
  0
LINE
  8
0
 10
9.245
 20
38.355
 11
9.07837
 21
38.3632
  0
LINE
  8
0
 10
51.0884
 20
38.3632
 11
50.9233
 21
38.3877
  0
LINE
  8
0
 10
50.9233
 20
38.3877
 11
50.7615
 21
38.4282
  0
LINE
  8
0
 10
50.7615
 20
38.4282
 11
50.6044
 21
38.4844
  0
LINE
  8
0
 10
50.6044
 20
38.4844
 11
50.4536
 21
38.5557
  0
LINE
  8
0
 10
50.4536
 20
38.5557
 11
50.3105
 21
38.6415
  0
LINE
  8
0
 10
50.3105
 20
38.6415
 11
50.1765
 21
38.7409
  0
LINE
  8
0
 10
50.1765
 20
38.7409
 11
50.0529
 21
38.8529
  0
LINE
  8
0
 10
50.0529
 20
38.8529
 11
49.9409
 21
38.9765
  0
LINE
  8
0
 10
49.9409
 20
38.9765
 11
49.8415
 21
39.1105
  0
LINE
  8
0
 10
49.8415
 20
39.1105
 11
49.7557
 21
39.2536
  0
LINE
  8
0
 10
49.7557
 20
39.2536
 11
49.6844
 21
39.4044
  0
LINE
  8
0
 10
49.6844
 20
39.4044
 11
49.6282
 21
39.5615
  0
LINE
  8
0
 10
49.6282
 20
39.5615
 11
49.5877
 21
39.7233
  0
LINE
  8
0
 10
49.5877
 20
39.7233
 11
49.5632
 21
39.8884
  0
LINE
  8
0
 10
49.5632
 20
39.8884
 11
49.555
 21
40.055
  0
LINE
  8
0
 10
49.555
 20
40.055
 11
49.5632
 21
40.2216
  0
LINE
  8
0
 10
49.5632
 20
40.2216
 11
49.5877
 21
40.3866
  0
LINE
  8
0
 10
49.5877
 20
40.3866
 11
49.6282
 21
40.5485
  0
LINE
  8
0
 10
49.6282
 20
40.5485
 11
49.6844
 21
40.7056
  0
LINE
  8
0
 10
49.6844
 20
40.7056
 11
49.7557
 21
40.8564
  0
LINE
  8
0
 10
49.7557
 20
40.8564
 11
49.8415
 21
40.9995
  0
LINE
  8
0
 10
49.8415
 20
40.9995
 11
49.9409
 21
41.1335
  0
LINE
  8
0
 10
49.9409
 20
41.1335
 11
50.0529
 21
41.2571
  0
LINE
  8
0
 10
50.0529
 20
41.2571
 11
50.1765
 21
41.3691
  0
LINE
  8
0
 10
50.1765
 20
41.3691
 11
50.3105
 21
41.4685
  0
LINE
  8
0
 10
50.3105
 20
41.4685
 11
50.4536
 21
41.5543
  0
LINE
  8
0
 10
50.4536
 20
41.5543
 11
50.5503
 21
41.6
  0
LINE
  8
0
 10
50.5503
 20
41.6
 11
51.9597
 21
41.6
  0
LINE
  8
0
 10
51.9597
 20
41.6
 11
52.0564
 21
41.5543
  0
LINE
  8
0
 10
52.0564
 20
41.5543
 11
52.1995
 21
41.4685
  0
LINE
  8
0
 10
52.1995
 20
41.4685
 11
52.3335
 21
41.3691
  0
LINE
  8
0
 10
52.3335
 20
41.3691
 11
52.4571
 21
41.2571
  0
LINE
  8
0
 10
52.4571
 20
41.2571
 11
52.5691
 21
41.1335
  0
LINE
  8
0
 10
52.5691
 20
41.1335
 11
52.6685
 21
40.9995
  0
LINE
  8
0
 10
52.6685
 20
40.9995
 11
52.7543
 21
40.8564
  0
LINE
  8
0
 10
52.7543
 20
40.8564
 11
52.8256
 21
40.7056
  0
LINE
  8
0
 10
52.8256
 20
40.7056
 11
52.8818
 21
40.5485
  0
LINE
  8
0
 10
52.8818
 20
40.5485
 11
52.9223
 21
40.3866
  0
LINE
  8
0
 10
52.9223
 20
40.3866
 11
52.9468
 21
40.2216
  0
LINE
  8
0
 10
52.9468
 20
40.2216
 11
52.955
 21
40.055
  0
LINE
  8
0
 10
52.955
 20
40.055
 11
52.9468
 21
39.8884
  0
LINE
  8
0
 10
52.9468
 20
39.8884
 11
52.9223
 21
39.7233
  0
LINE
  8
0
 10
52.9223
 20
39.7233
 11
52.8818
 21
39.5615
  0
LINE
  8
0
 10
52.8818
 20
39.5615
 11
52.8256
 21
39.4044
  0
LINE
  8
0
 10
52.8256
 20
39.4044
 11
52.7543
 21
39.2536
  0
LINE
  8
0
 10
52.7543
 20
39.2536
 11
52.6685
 21
39.1105
  0
LINE
  8
0
 10
52.6685
 20
39.1105
 11
52.5691
 21
38.9765
  0
LINE
  8
0
 10
52.5691
 20
38.9765
 11
52.4571
 21
38.8529
  0
LINE
  8
0
 10
52.4571
 20
38.8529
 11
52.3335
 21
38.7409
  0
LINE
  8
0
 10
52.3335
 20
38.7409
 11
52.1995
 21
38.6415
  0
LINE
  8
0
 10
52.1995
 20
38.6415
 11
52.0564
 21
38.5557
  0
LINE
  8
0
 10
52.0564
 20
38.5557
 11
51.9055
 21
38.4844
  0
LINE
  8
0
 10
51.9055
 20
38.4844
 11
51.7485
 21
38.4282
  0
LINE
  8
0
 10
51.7485
 20
38.4282
 11
51.5866
 21
38.3877
  0
LINE
  8
0
 10
51.5866
 20
38.3877
 11
51.4216
 21
38.3632
  0
LINE
  8
0
 10
51.4216
 20
38.3632
 11
51.255
 21
38.355
  0
LINE
  8
0
 10
51.255
 20
38.355
 11
51.0884
 21
38.3632
  0
LINE
  8
0
 10
14.8285
 20
19.3207
 11
14.4111
 21
19.3826
  0
LINE
  8
0
 10
14.4111
 20
19.3826
 11
14.0018
 21
19.4852
  0
LINE
  8
0
 10
14.0018
 20
19.4852
 11
13.6044
 21
19.6273
  0
LINE
  8
0
 10
13.6044
 20
19.6273
 11
13.223
 21
19.8077
  0
LINE
  8
0
 10
13.223
 20
19.8077
 11
12.861
 21
20.0247
  0
LINE
  8
0
 10
12.861
 20
20.0247
 11
12.5221
 21
20.276
  0
LINE
  8
0
 10
12.5221
 20
20.276
 11
12.2094
 21
20.5594
  0
LINE
  8
0
 10
12.2094
 20
20.5594
 11
11.926
 21
20.8721
  0
LINE
  8
0
 10
11.926
 20
20.8721
 11
11.6747
 21
21.211
  0
LINE
  8
0
 10
11.6747
 20
21.211
 11
11.4577
 21
21.573
  0
LINE
  8
0
 10
11.4577
 20
21.573
 11
11.2773
 21
21.9545
  0
LINE
  8
0
 10
11.2773
 20
21.9545
 11
11.1351
 21
22.3518
  0
LINE
  8
0
 10
11.1351
 20
22.3518
 11
11.0326
 21
22.7611
  0
LINE
  8
0
 10
11.0326
 20
22.7611
 11
10.9707
 21
23.1785
  0
LINE
  8
0
 10
10.9707
 20
23.1785
 11
10.95
 21
23.6
  0
LINE
  8
0
 10
10.95
 20
23.6
 11
10.9707
 21
24.0215
  0
LINE
  8
0
 10
10.9707
 20
24.0215
 11
11.0326
 21
24.4389
  0
LINE
  8
0
 10
11.0326
 20
24.4389
 11
11.1351
 21
24.8482
  0
LINE
  8
0
 10
11.1351
 20
24.8482
 11
11.2773
 21
25.2455
  0
LINE
  8
0
 10
11.2773
 20
25.2455
 11
11.4577
 21
25.627
  0
LINE
  8
0
 10
11.4577
 20
25.627
 11
11.6747
 21
25.9889
  0
LINE
  8
0
 10
11.6747
 20
25.9889
 11
11.926
 21
26.3279
  0
LINE
  8
0
 10
11.926
 20
26.3279
 11
12.2094
 21
26.6405
  0
LINE
  8
0
 10
12.2094
 20
26.6405
 11
12.5221
 21
26.9239
  0
LINE
  8
0
 10
12.5221
 20
26.9239
 11
12.861
 21
27.1753
  0
LINE
  8
0
 10
12.861
 20
27.1753
 11
13.223
 21
27.3923
  0
LINE
  8
0
 10
13.223
 20
27.3923
 11
13.6044
 21
27.5727
  0
LINE
  8
0
 10
13.6044
 20
27.5727
 11
14.0018
 21
27.7148
  0
LINE
  8
0
 10
14.0018
 20
27.7148
 11
14.4111
 21
27.8174
  0
LINE
  8
0
 10
14.4111
 20
27.8174
 11
14.8285
 21
27.8793
  0
LINE
  8
0
 10
14.8285
 20
27.8793
 11
15.25
 21
27.9
  0
LINE
  8
0
 10
15.25
 20
27.9
 11
15.6715
 21
27.8793
  0
LINE
  8
0
 10
15.6715
 20
27.8793
 11
16.0889
 21
27.8174
  0
LINE
  8
0
 10
16.0889
 20
27.8174
 11
16.4982
 21
27.7148
  0
LINE
  8
0
 10
16.4982
 20
27.7148
 11
16.8955
 21
27.5727
  0
LINE
  8
0
 10
16.8955
 20
27.5727
 11
17.277
 21
27.3923
  0
LINE
  8
0
 10
17.277
 20
27.3923
 11
17.6389
 21
27.1753
  0
LINE
  8
0
 10
17.6389
 20
27.1753
 11
17.9779
 21
26.9239
  0
LINE
  8
0
 10
17.9779
 20
26.9239
 11
18.2906
 21
26.6405
  0
LINE
  8
0
 10
18.2906
 20
26.6405
 11
18.5739
 21
26.3279
  0
LINE
  8
0
 10
18.5739
 20
26.3279
 11
18.8253
 21
25.9889
  0
LINE
  8
0
 10
18.8253
 20
25.9889
 11
19.0423
 21
25.627
  0
LINE
  8
0
 10
19.0423
 20
25.627
 11
19.2227
 21
25.2455
  0
LINE
  8
0
 10
19.2227
 20
25.2455
 11
19.3648
 21
24.8482
  0
LINE
  8
0
 10
19.3648
 20
24.8482
 11
19.4674
 21
24.4389
  0
LINE
  8
0
 10
19.4674
 20
24.4389
 11
19.5293
 21
24.0215
  0
LINE
  8
0
 10
19.5293
 20
24.0215
 11
19.55
 21
23.6
  0
LINE
  8
0
 10
19.55
 20
23.6
 11
19.5293
 21
23.1785
  0
LINE
  8
0
 10
19.5293
 20
23.1785
 11
19.4674
 21
22.7611
  0
LINE
  8
0
 10
19.4674
 20
22.7611
 11
19.3648
 21
22.3518
  0
LINE
  8
0
 10
19.3648
 20
22.3518
 11
19.2227
 21
21.9545
  0
LINE
  8
0
 10
19.2227
 20
21.9545
 11
19.0423
 21
21.573
  0
LINE
  8
0
 10
19.0423
 20
21.573
 11
18.8253
 21
21.211
  0
LINE
  8
0
 10
18.8253
 20
21.211
 11
18.5739
 21
20.8721
  0
LINE
  8
0
 10
18.5739
 20
20.8721
 11
18.2906
 21
20.5594
  0
LINE
  8
0
 10
18.2906
 20
20.5594
 11
17.9779
 21
20.276
  0
LINE
  8
0
 10
17.9779
 20
20.276
 11
17.6389
 21
20.0247
  0
LINE
  8
0
 10
17.6389
 20
20.0247
 11
17.277
 21
19.8077
  0
LINE
  8
0
 10
17.277
 20
19.8077
 11
16.8955
 21
19.6273
  0
LINE
  8
0
 10
16.8955
 20
19.6273
 11
16.4982
 21
19.4852
  0
LINE
  8
0
 10
16.4982
 20
19.4852
 11
16.0889
 21
19.3826
  0
LINE
  8
0
 10
16.0889
 20
19.3826
 11
15.6715
 21
19.3207
  0
LINE
  8
0
 10
15.6715
 20
19.3207
 11
15.25
 21
19.3
  0
LINE
  8
0
 10
15.25
 20
19.3
 11
14.8285
 21
19.3207
  0
LINE
  8
0
 10
44.8285
 20
19.3207
 11
44.4111
 21
19.3826
  0
LINE
  8
0
 10
44.4111
 20
19.3826
 11
44.0018
 21
19.4852
  0
LINE
  8
0
 10
44.0018
 20
19.4852
 11
43.6044
 21
19.6273
  0
LINE
  8
0
 10
43.6044
 20
19.6273
 11
43.223
 21
19.8077
  0
LINE
  8
0
 10
43.223
 20
19.8077
 11
42.861
 21
20.0247
  0
LINE
  8
0
 10
42.861
 20
20.0247
 11
42.5221
 21
20.276
  0
LINE
  8
0
 10
42.5221
 20
20.276
 11
42.2094
 21
20.5594
  0
LINE
  8
0
 10
42.2094
 20
20.5594
 11
41.926
 21
20.8721
  0
LINE
  8
0
 10
41.926
 20
20.8721
 11
41.6747
 21
21.211
  0
LINE
  8
0
 10
41.6747
 20
21.211
 11
41.4577
 21
21.573
  0
LINE
  8
0
 10
41.4577
 20
21.573
 11
41.2773
 21
21.9545
  0
LINE
  8
0
 10
41.2773
 20
21.9545
 11
41.1351
 21
22.3518
  0
LINE
  8
0
 10
41.1351
 20
22.3518
 11
41.0326
 21
22.7611
  0
LINE
  8
0
 10
41.0326
 20
22.7611
 11
40.9707
 21
23.1785
  0
LINE
  8
0
 10
40.9707
 20
23.1785
 11
40.95
 21
23.6
  0
LINE
  8
0
 10
40.95
 20
23.6
 11
40.9707
 21
24.0215
  0
LINE
  8
0
 10
40.9707
 20
24.0215
 11
41.0326
 21
24.4389
  0
LINE
  8
0
 10
41.0326
 20
24.4389
 11
41.1351
 21
24.8482
  0
LINE
  8
0
 10
41.1351
 20
24.8482
 11
41.2773
 21
25.2455
  0
LINE
  8
0
 10
41.2773
 20
25.2455
 11
41.4577
 21
25.627
  0
LINE
  8
0
 10
41.4577
 20
25.627
 11
41.6747
 21
25.9889
  0
LINE
  8
0
 10
41.6747
 20
25.9889
 11
41.926
 21
26.3279
  0
LINE
  8
0
 10
41.926
 20
26.3279
 11
42.2094
 21
26.6405
  0
LINE
  8
0
 10
42.2094
 20
26.6405
 11
42.5221
 21
26.9239
  0
LINE
  8
0
 10
42.5221
 20
26.9239
 11
42.861
 21
27.1753
  0
LINE
  8
0
 10
42.861
 20
27.1753
 11
43.223
 21
27.3923
  0
LINE
  8
0
 10
43.223
 20
27.3923
 11
43.6044
 21
27.5727
  0
LINE
  8
0
 10
43.6044
 20
27.5727
 11
44.0018
 21
27.7148
  0
LINE
  8
0
 10
44.0018
 20
27.7148
 11
44.4111
 21
27.8174
  0
LINE
  8
0
 10
44.4111
 20
27.8174
 11
44.8285
 21
27.8793
  0
LINE
  8
0
 10
44.8285
 20
27.8793
 11
45.25
 21
27.9
  0
LINE
  8
0
 10
45.25
 20
27.9
 11
45.6715
 21
27.8793
  0
LINE
  8
0
 10
45.6715
 20
27.8793
 11
46.0889
 21
27.8174
  0
LINE
  8
0
 10
46.0889
 20
27.8174
 11
46.4982
 21
27.7148
  0
LINE
  8
0
 10
46.4982
 20
27.7148
 11
46.8955
 21
27.5727
  0
LINE
  8
0
 10
46.8955
 20
27.5727
 11
47.277
 21
27.3923
  0
LINE
  8
0
 10
47.277
 20
27.3923
 11
47.6389
 21
27.1753
  0
LINE
  8
0
 10
47.6389
 20
27.1753
 11
47.9779
 21
26.9239
  0
LINE
  8
0
 10
47.9779
 20
26.9239
 11
48.2906
 21
26.6405
  0
LINE
  8
0
 10
48.2906
 20
26.6405
 11
48.5739
 21
26.3279
  0
LINE
  8
0
 10
48.5739
 20
26.3279
 11
48.8253
 21
25.9889
  0
LINE
  8
0
 10
48.8253
 20
25.9889
 11
49.0423
 21
25.627
  0
LINE
  8
0
 10
49.0423
 20
25.627
 11
49.2227
 21
25.2455
  0
LINE
  8
0
 10
49.2227
 20
25.2455
 11
49.3648
 21
24.8482
  0
LINE
  8
0
 10
49.3648
 20
24.8482
 11
49.4674
 21
24.4389
  0
LINE
  8
0
 10
49.4674
 20
24.4389
 11
49.5293
 21
24.0215
  0
LINE
  8
0
 10
49.5293
 20
24.0215
 11
49.55
 21
23.6
  0
LINE
  8
0
 10
49.55
 20
23.6
 11
49.5293
 21
23.1785
  0
LINE
  8
0
 10
49.5293
 20
23.1785
 11
49.4674
 21
22.7611
  0
LINE
  8
0
 10
49.4674
 20
22.7611
 11
49.3648
 21
22.3518
  0
LINE
  8
0
 10
49.3648
 20
22.3518
 11
49.2227
 21
21.9545
  0
LINE
  8
0
 10
49.2227
 20
21.9545
 11
49.0423
 21
21.573
  0
LINE
  8
0
 10
49.0423
 20
21.573
 11
48.8253
 21
21.211
  0
LINE
  8
0
 10
48.8253
 20
21.211
 11
48.5739
 21
20.8721
  0
LINE
  8
0
 10
48.5739
 20
20.8721
 11
48.2906
 21
20.5594
  0
LINE
  8
0
 10
48.2906
 20
20.5594
 11
47.9779
 21
20.276
  0
LINE
  8
0
 10
47.9779
 20
20.276
 11
47.6389
 21
20.0247
  0
LINE
  8
0
 10
47.6389
 20
20.0247
 11
47.277
 21
19.8077
  0
LINE
  8
0
 10
47.277
 20
19.8077
 11
46.8955
 21
19.6273
  0
LINE
  8
0
 10
46.8955
 20
19.6273
 11
46.4982
 21
19.4852
  0
LINE
  8
0
 10
46.4982
 20
19.4852
 11
46.0889
 21
19.3826
  0
LINE
  8
0
 10
46.0889
 20
19.3826
 11
45.6715
 21
19.3207
  0
LINE
  8
0
 10
45.6715
 20
19.3207
 11
45.25
 21
19.3
  0
LINE
  8
0
 10
45.25
 20
19.3
 11
44.8285
 21
19.3207
  0
LINE
  8
0
 10
17.9363
 20
1.6154
 11
17.6257
 21
1.66148
  0
LINE
  8
0
 10
17.6257
 20
1.66148
 11
17.3211
 21
1.73778
  0
LINE
  8
0
 10
17.3211
 20
1.73778
 11
17.0254
 21
1.84358
  0
LINE
  8
0
 10
17.0254
 20
1.84358
 11
16.7415
 21
1.97784
  0
LINE
  8
0
 10
16.7415
 20
1.97784
 11
16.4722
 21
2.13928
  0
LINE
  8
0
 10
16.4722
 20
2.13928
 11
16.2199
 21
2.32635
  0
LINE
  8
0
 10
16.2199
 20
2.32635
 11
15.9872
 21
2.53725
  0
LINE
  8
0
 10
15.9872
 20
2.53725
 11
15.7764
 21
2.76993
  0
LINE
  8
0
 10
15.7764
 20
2.76993
 11
15.5893
 21
3.02217
  0
LINE
  8
0
 10
15.5893
 20
3.02217
 11
15.4278
 21
3.29152
  0
LINE
  8
0
 10
15.4278
 20
3.29152
 11
15.2936
 21
3.57541
  0
LINE
  8
0
 10
15.2936
 20
3.57541
 11
15.1878
 21
3.87108
  0
LINE
  8
0
 10
15.1878
 20
3.87108
 11
15.1115
 21
4.1757
  0
LINE
  8
0
 10
15.1115
 20
4.1757
 11
15.0654
 21
4.48634
  0
LINE
  8
0
 10
15.0654
 20
4.48634
 11
15.05
 21
4.79999
  0
LINE
  8
0
 10
15.05
 20
4.79999
 11
15.0654
 21
5.11365
  0
LINE
  8
0
 10
15.0654
 20
5.11365
 11
15.1115
 21
5.42429
  0
LINE
  8
0
 10
15.1115
 20
5.42429
 11
15.1878
 21
5.7289
  0
LINE
  8
0
 10
15.1878
 20
5.7289
 11
15.2936
 21
6.02458
  0
LINE
  8
0
 10
15.2936
 20
6.02458
 11
15.4278
 21
6.30846
  0
LINE
  8
0
 10
15.4278
 20
6.30846
 11
15.5893
 21
6.57782
  0
LINE
  8
0
 10
15.5893
 20
6.57782
 11
15.7764
 21
6.83005
  0
LINE
  8
0
 10
15.7764
 20
6.83005
 11
15.9872
 21
7.06273
  0
LINE
  8
0
 10
15.9872
 20
7.06273
 11
16.2199
 21
7.27362
  0
LINE
  8
0
 10
16.2199
 20
7.27362
 11
16.4722
 21
7.46069
  0
LINE
  8
0
 10
16.4722
 20
7.46069
 11
16.7415
 21
7.62215
  0
LINE
  8
0
 10
16.7415
 20
7.62215
 11
17.0254
 21
7.75641
  0
LINE
  8
0
 10
17.0254
 20
7.75641
 11
17.3211
 21
7.8622
  0
LINE
  8
0
 10
17.3211
 20
7.8622
 11
17.6257
 21
7.93851
  0
LINE
  8
0
 10
17.6257
 20
7.93851
 11
17.9363
 21
7.98459
  0
LINE
  8
0
 10
17.9363
 20
7.98459
 11
18.25
 21
8
  0
LINE
  8
0
 10
18.25
 20
8
 11
18.5636
 21
7.98459
  0
LINE
  8
0
 10
18.5636
 20
7.98459
 11
18.8743
 21
7.93851
  0
LINE
  8
0
 10
18.8743
 20
7.93851
 11
19.1789
 21
7.8622
  0
LINE
  8
0
 10
19.1789
 20
7.8622
 11
19.4746
 21
7.75641
  0
LINE
  8
0
 10
19.4746
 20
7.75641
 11
19.7585
 21
7.62215
  0
LINE
  8
0
 10
19.7585
 20
7.62215
 11
20.0278
 21
7.46069
  0
LINE
  8
0
 10
20.0278
 20
7.46069
 11
20.28
 21
7.27362
  0
LINE
  8
0
 10
20.28
 20
7.27362
 11
20.5127
 21
7.06273
  0
LINE
  8
0
 10
20.5127
 20
7.06273
 11
20.7236
 21
6.83005
  0
LINE
  8
0
 10
20.7236
 20
6.83005
 11
20.9107
 21
6.57782
  0
LINE
  8
0
 10
20.9107
 20
6.57782
 11
21.0721
 21
6.30846
  0
LINE
  8
0
 10
21.0721
 20
6.30846
 11
21.2064
 21
6.02458
  0
LINE
  8
0
 10
21.2064
 20
6.02458
 11
21.3122
 21
5.7289
  0
LINE
  8
0
 10
21.3122
 20
5.7289
 11
21.3885
 21
5.42429
  0
LINE
  8
0
 10
21.3885
 20
5.42429
 11
21.4346
 21
5.11365
  0
LINE
  8
0
 10
21.4346
 20
5.11365
 11
21.45
 21
4.79999
  0
LINE
  8
0
 10
21.45
 20
4.79999
 11
21.4346
 21
4.48634
  0
LINE
  8
0
 10
21.4346
 20
4.48634
 11
21.3885
 21
4.1757
  0
LINE
  8
0
 10
21.3885
 20
4.1757
 11
21.3122
 21
3.87108
  0
LINE
  8
0
 10
21.3122
 20
3.87108
 11
21.2064
 21
3.57541
  0
LINE
  8
0
 10
21.2064
 20
3.57541
 11
21.0721
 21
3.29152
  0
LINE
  8
0
 10
21.0721
 20
3.29152
 11
20.9107
 21
3.02217
  0
LINE
  8
0
 10
20.9107
 20
3.02217
 11
20.7236
 21
2.76993
  0
LINE
  8
0
 10
20.7236
 20
2.76993
 11
20.5127
 21
2.53725
  0
LINE
  8
0
 10
20.5127
 20
2.53725
 11
20.28
 21
2.32635
  0
LINE
  8
0
 10
20.28
 20
2.32635
 11
20.0278
 21
2.13928
  0
LINE
  8
0
 10
20.0278
 20
2.13928
 11
19.7585
 21
1.97784
  0
LINE
  8
0
 10
19.7585
 20
1.97784
 11
19.4746
 21
1.84358
  0
LINE
  8
0
 10
19.4746
 20
1.84358
 11
19.1789
 21
1.73778
  0
LINE
  8
0
 10
19.1789
 20
1.73778
 11
18.8743
 21
1.66148
  0
LINE
  8
0
 10
18.8743
 20
1.66148
 11
18.5636
 21
1.6154
  0
LINE
  8
0
 10
18.5636
 20
1.6154
 11
18.25
 21
1.59999
  0
LINE
  8
0
 10
18.25
 20
1.59999
 11
17.9363
 21
1.6154
  0
LINE
  8
0
 10
41.9363
 20
1.6154
 11
41.6257
 21
1.66148
  0
LINE
  8
0
 10
41.6257
 20
1.66148
 11
41.3211
 21
1.73778
  0
LINE
  8
0
 10
41.3211
 20
1.73778
 11
41.0254
 21
1.84358
  0
LINE
  8
0
 10
41.0254
 20
1.84358
 11
40.7415
 21
1.97784
  0
LINE
  8
0
 10
40.7415
 20
1.97784
 11
40.4722
 21
2.13928
  0
LINE
  8
0
 10
40.4722
 20
2.13928
 11
40.2199
 21
2.32635
  0
LINE
  8
0
 10
40.2199
 20
2.32635
 11
39.9872
 21
2.53725
  0
LINE
  8
0
 10
39.9872
 20
2.53725
 11
39.7764
 21
2.76993
  0
LINE
  8
0
 10
39.7764
 20
2.76993
 11
39.5893
 21
3.02217
  0
LINE
  8
0
 10
39.5893
 20
3.02217
 11
39.4278
 21
3.29152
  0
LINE
  8
0
 10
39.4278
 20
3.29152
 11
39.2936
 21
3.57541
  0
LINE
  8
0
 10
39.2936
 20
3.57541
 11
39.1878
 21
3.87108
  0
LINE
  8
0
 10
39.1878
 20
3.87108
 11
39.1115
 21
4.1757
  0
LINE
  8
0
 10
39.1115
 20
4.1757
 11
39.0654
 21
4.48634
  0
LINE
  8
0
 10
39.0654
 20
4.48634
 11
39.05
 21
4.79999
  0
LINE
  8
0
 10
39.05
 20
4.79999
 11
39.0654
 21
5.11365
  0
LINE
  8
0
 10
39.0654
 20
5.11365
 11
39.1115
 21
5.42429
  0
LINE
  8
0
 10
39.1115
 20
5.42429
 11
39.1878
 21
5.7289
  0
LINE
  8
0
 10
39.1878
 20
5.7289
 11
39.2936
 21
6.02458
  0
LINE
  8
0
 10
39.2936
 20
6.02458
 11
39.4278
 21
6.30846
  0
LINE
  8
0
 10
39.4278
 20
6.30846
 11
39.5893
 21
6.57782
  0
LINE
  8
0
 10
39.5893
 20
6.57782
 11
39.7764
 21
6.83005
  0
LINE
  8
0
 10
39.7764
 20
6.83005
 11
39.9872
 21
7.06273
  0
LINE
  8
0
 10
39.9872
 20
7.06273
 11
40.2199
 21
7.27362
  0
LINE
  8
0
 10
40.2199
 20
7.27362
 11
40.4722
 21
7.46069
  0
LINE
  8
0
 10
40.4722
 20
7.46069
 11
40.7415
 21
7.62215
  0
LINE
  8
0
 10
40.7415
 20
7.62215
 11
41.0254
 21
7.75641
  0
LINE
  8
0
 10
41.0254
 20
7.75641
 11
41.3211
 21
7.8622
  0
LINE
  8
0
 10
41.3211
 20
7.8622
 11
41.6257
 21
7.93851
  0
LINE
  8
0
 10
41.6257
 20
7.93851
 11
41.9363
 21
7.98459
  0
LINE
  8
0
 10
41.9363
 20
7.98459
 11
42.25
 21
8
  0
LINE
  8
0
 10
42.25
 20
8
 11
42.5636
 21
7.98459
  0
LINE
  8
0
 10
42.5636
 20
7.98459
 11
42.8743
 21
7.93851
  0
LINE
  8
0
 10
42.8743
 20
7.93851
 11
43.1789
 21
7.8622
  0
LINE
  8
0
 10
43.1789
 20
7.8622
 11
43.4746
 21
7.75641
  0
LINE
  8
0
 10
43.4746
 20
7.75641
 11
43.7585
 21
7.62215
  0
LINE
  8
0
 10
43.7585
 20
7.62215
 11
44.0278
 21
7.46069
  0
LINE
  8
0
 10
44.0278
 20
7.46069
 11
44.28
 21
7.27362
  0
LINE
  8
0
 10
44.28
 20
7.27362
 11
44.5127
 21
7.06273
  0
LINE
  8
0
 10
44.5127
 20
7.06273
 11
44.7236
 21
6.83005
  0
LINE
  8
0
 10
44.7236
 20
6.83005
 11
44.9107
 21
6.57782
  0
LINE
  8
0
 10
44.9107
 20
6.57782
 11
45.0721
 21
6.30846
  0
LINE
  8
0
 10
45.0721
 20
6.30846
 11
45.2064
 21
6.02458
  0
LINE
  8
0
 10
45.2064
 20
6.02458
 11
45.3122
 21
5.7289
  0
LINE
  8
0
 10
45.3122
 20
5.7289
 11
45.3885
 21
5.42429
  0
LINE
  8
0
 10
45.3885
 20
5.42429
 11
45.4346
 21
5.11365
  0
LINE
  8
0
 10
45.4346
 20
5.11365
 11
45.45
 21
4.79999
  0
LINE
  8
0
 10
45.45
 20
4.79999
 11
45.4346
 21
4.48634
  0
LINE
  8
0
 10
45.4346
 20
4.48634
 11
45.3885
 21
4.1757
  0
LINE
  8
0
 10
45.3885
 20
4.1757
 11
45.3122
 21
3.87108
  0
LINE
  8
0
 10
45.3122
 20
3.87108
 11
45.2064
 21
3.57541
  0
LINE
  8
0
 10
45.2064
 20
3.57541
 11
45.0721
 21
3.29152
  0
LINE
  8
0
 10
45.0721
 20
3.29152
 11
44.9107
 21
3.02217
  0
LINE
  8
0
 10
44.9107
 20
3.02217
 11
44.7236
 21
2.76993
  0
LINE
  8
0
 10
44.7236
 20
2.76993
 11
44.5127
 21
2.53725
  0
LINE
  8
0
 10
44.5127
 20
2.53725
 11
44.28
 21
2.32635
  0
LINE
  8
0
 10
44.28
 20
2.32635
 11
44.0278
 21
2.13928
  0
LINE
  8
0
 10
44.0278
 20
2.13928
 11
43.7585
 21
1.97784
  0
LINE
  8
0
 10
43.7585
 20
1.97784
 11
43.4746
 21
1.84358
  0
LINE
  8
0
 10
43.4746
 20
1.84358
 11
43.1789
 21
1.73778
  0
LINE
  8
0
 10
43.1789
 20
1.73778
 11
42.8743
 21
1.66148
  0
LINE
  8
0
 10
42.8743
 20
1.66148
 11
42.5636
 21
1.6154
  0
LINE
  8
0
 10
42.5636
 20
1.6154
 11
42.25
 21
1.59999
  0
LINE
  8
0
 10
42.25
 20
1.59999
 11
41.9363
 21
1.6154
  0
LINE
  8
0
 10
4.83336
 20
3.30818
 11
4.66833
 21
3.33266
  0
LINE
  8
0
 10
4.66833
 20
3.33266
 11
4.50652
 21
3.3732
  0
LINE
  8
0
 10
4.50652
 20
3.3732
 11
4.34943
 21
3.4294
  0
LINE
  8
0
 10
4.34943
 20
3.4294
 11
4.19862
 21
3.50073
  0
LINE
  8
0
 10
4.19862
 20
3.50073
 11
4.05553
 21
3.58649
  0
LINE
  8
0
 10
4.05553
 20
3.58649
 11
3.92152
 21
3.68587
  0
LINE
  8
0
 10
3.92152
 20
3.68587
 11
3.79791
 21
3.79791
  0
LINE
  8
0
 10
3.79791
 20
3.79791
 11
3.68587
 21
3.92152
  0
LINE
  8
0
 10
3.68587
 20
3.92152
 11
3.58649
 21
4.05553
  0
LINE
  8
0
 10
3.58649
 20
4.05553
 11
3.50073
 21
4.19862
  0
LINE
  8
0
 10
3.50073
 20
4.19862
 11
3.4294
 21
4.34943
  0
LINE
  8
0
 10
3.4294
 20
4.34943
 11
3.3732
 21
4.50652
  0
LINE
  8
0
 10
3.3732
 20
4.50652
 11
3.33266
 21
4.66833
  0
LINE
  8
0
 10
3.33266
 20
4.66833
 11
3.30818
 21
4.83336
  0
LINE
  8
0
 10
3.30818
 20
4.83336
 11
3.29999
 21
5
  0
LINE
  8
0
 10
3.29999
 20
5
 11
3.30818
 21
5.16663
  0
LINE
  8
0
 10
3.30818
 20
5.16663
 11
3.33266
 21
5.33165
  0
LINE
  8
0
 10
3.33266
 20
5.33165
 11
3.3732
 21
5.49347
  0
LINE
  8
0
 10
3.3732
 20
5.49347
 11
3.4294
 21
5.65056
  0
LINE
  8
0
 10
3.4294
 20
5.65056
 11
3.50073
 21
5.80136
  0
LINE
  8
0
 10
3.50073
 20
5.80136
 11
3.58649
 21
5.94446
  0
LINE
  8
0
 10
3.58649
 20
5.94446
 11
3.68587
 21
6.07846
  0
LINE
  8
0
 10
3.68587
 20
6.07846
 11
3.79791
 21
6.20207
  0
LINE
  8
0
 10
3.79791
 20
6.20207
 11
3.92152
 21
6.31412
  0
LINE
  8
0
 10
3.92152
 20
6.31412
 11
4.05553
 21
6.4135
  0
LINE
  8
0
 10
4.05553
 20
6.4135
 11
4.19862
 21
6.49925
  0
LINE
  8
0
 10
4.19862
 20
6.49925
 11
4.34943
 21
6.57059
  0
LINE
  8
0
 10
4.34943
 20
6.57059
 11
4.50652
 21
6.62679
  0
LINE
  8
0
 10
4.50652
 20
6.62679
 11
4.66833
 21
6.66733
  0
LINE
  8
0
 10
4.66833
 20
6.66733
 11
4.83336
 21
6.6918
  0
LINE
  8
0
 10
4.83336
 20
6.6918
 11
5
 21
6.7
  0
LINE
  8
0
 10
5
 20
6.7
 11
5.16663
 21
6.6918
  0
LINE
  8
0
 10
5.16663
 20
6.6918
 11
5.33165
 21
6.66733
  0
LINE
  8
0
 10
5.33165
 20
6.66733
 11
5.49347
 21
6.62679
  0
LINE
  8
0
 10
5.49347
 20
6.62679
 11
5.65056
 21
6.57059
  0
LINE
  8
0
 10
5.65056
 20
6.57059
 11
5.80136
 21
6.49925
  0
LINE
  8
0
 10
5.80136
 20
6.49925
 11
5.94446
 21
6.4135
  0
LINE
  8
0
 10
5.94446
 20
6.4135
 11
6.07846
 21
6.31412
  0
LINE
  8
0
 10
6.07846
 20
6.31412
 11
6.20207
 21
6.20207
  0
LINE
  8
0
 10
6.20207
 20
6.20207
 11
6.31412
 21
6.07846
  0
LINE
  8
0
 10
6.31412
 20
6.07846
 11
6.4135
 21
5.94446
  0
LINE
  8
0
 10
6.4135
 20
5.94446
 11
6.49925
 21
5.80136
  0
LINE
  8
0
 10
6.49925
 20
5.80136
 11
6.57059
 21
5.65056
  0
LINE
  8
0
 10
6.57059
 20
5.65056
 11
6.62679
 21
5.49347
  0
LINE
  8
0
 10
6.62679
 20
5.49347
 11
6.66733
 21
5.33165
  0
LINE
  8
0
 10
6.66733
 20
5.33165
 11
6.6918
 21
5.16663
  0
LINE
  8
0
 10
6.6918
 20
5.16663
 11
6.7
 21
5
  0
LINE
  8
0
 10
6.7
 20
5
 11
6.6918
 21
4.83336
  0
LINE
  8
0
 10
6.6918
 20
4.83336
 11
6.66733
 21
4.66833
  0
LINE
  8
0
 10
6.66733
 20
4.66833
 11
6.62679
 21
4.50652
  0
LINE
  8
0
 10
6.62679
 20
4.50652
 11
6.57059
 21
4.34943
  0
LINE
  8
0
 10
6.57059
 20
4.34943
 11
6.49925
 21
4.19862
  0
LINE
  8
0
 10
6.49925
 20
4.19862
 11
6.4135
 21
4.05553
  0
LINE
  8
0
 10
6.4135
 20
4.05553
 11
6.31412
 21
3.92152
  0
LINE
  8
0
 10
6.31412
 20
3.92152
 11
6.20207
 21
3.79791
  0
LINE
  8
0
 10
6.20207
 20
3.79791
 11
6.07846
 21
3.68587
  0
LINE
  8
0
 10
6.07846
 20
3.68587
 11
5.94446
 21
3.58649
  0
LINE
  8
0
 10
5.94446
 20
3.58649
 11
5.80136
 21
3.50073
  0
LINE
  8
0
 10
5.80136
 20
3.50073
 11
5.65056
 21
3.4294
  0
LINE
  8
0
 10
5.65056
 20
3.4294
 11
5.49347
 21
3.3732
  0
LINE
  8
0
 10
5.49347
 20
3.3732
 11
5.33165
 21
3.33266
  0
LINE
  8
0
 10
5.33165
 20
3.33266
 11
5.16663
 21
3.30818
  0
LINE
  8
0
 10
5.16663
 20
3.30818
 11
5
 21
3.29999
  0
LINE
  8
0
 10
5
 20
3.29999
 11
4.83336
 21
3.30818
  0
LINE
  8
0
 10
55.3334
 20
3.30818
 11
55.1683
 21
3.33266
  0
LINE
  8
0
 10
55.1683
 20
3.33266
 11
55.0065
 21
3.3732
  0
LINE
  8
0
 10
55.0065
 20
3.3732
 11
54.8494
 21
3.4294
  0
LINE
  8
0
 10
54.8494
 20
3.4294
 11
54.6986
 21
3.50073
  0
LINE
  8
0
 10
54.6986
 20
3.50073
 11
54.5555
 21
3.58649
  0
LINE
  8
0
 10
54.5555
 20
3.58649
 11
54.4215
 21
3.68587
  0
LINE
  8
0
 10
54.4215
 20
3.68587
 11
54.2979
 21
3.79791
  0
LINE
  8
0
 10
54.2979
 20
3.79791
 11
54.1859
 21
3.92152
  0
LINE
  8
0
 10
54.1859
 20
3.92152
 11
54.0865
 21
4.05553
  0
LINE
  8
0
 10
54.0865
 20
4.05553
 11
54.0007
 21
4.19862
  0
LINE
  8
0
 10
54.0007
 20
4.19862
 11
53.9294
 21
4.34943
  0
LINE
  8
0
 10
53.9294
 20
4.34943
 11
53.8732
 21
4.50652
  0
LINE
  8
0
 10
53.8732
 20
4.50652
 11
53.8327
 21
4.66833
  0
LINE
  8
0
 10
53.8327
 20
4.66833
 11
53.8082
 21
4.83336
  0
LINE
  8
0
 10
53.8082
 20
4.83336
 11
53.8
 21
5
  0
LINE
  8
0
 10
53.8
 20
5
 11
53.8082
 21
5.16663
  0
LINE
  8
0
 10
53.8082
 20
5.16663
 11
53.8327
 21
5.33165
  0
LINE
  8
0
 10
53.8327
 20
5.33165
 11
53.8732
 21
5.49347
  0
LINE
  8
0
 10
53.8732
 20
5.49347
 11
53.9294
 21
5.65056
  0
LINE
  8
0
 10
53.9294
 20
5.65056
 11
54.0007
 21
5.80136
  0
LINE
  8
0
 10
54.0007
 20
5.80136
 11
54.0865
 21
5.94446
  0
LINE
  8
0
 10
54.0865
 20
5.94446
 11
54.1859
 21
6.07846
  0
LINE
  8
0
 10
54.1859
 20
6.07846
 11
54.2979
 21
6.20207
  0
LINE
  8
0
 10
54.2979
 20
6.20207
 11
54.4215
 21
6.31412
  0
LINE
  8
0
 10
54.4215
 20
6.31412
 11
54.5555
 21
6.4135
  0
LINE
  8
0
 10
54.5555
 20
6.4135
 11
54.6986
 21
6.49925
  0
LINE
  8
0
 10
54.6986
 20
6.49925
 11
54.8494
 21
6.57059
  0
LINE
  8
0
 10
54.8494
 20
6.57059
 11
55.0065
 21
6.62679
  0
LINE
  8
0
 10
55.0065
 20
6.62679
 11
55.1683
 21
6.66733
  0
LINE
  8
0
 10
55.1683
 20
6.66733
 11
55.3334
 21
6.6918
  0
LINE
  8
0
 10
55.3334
 20
6.6918
 11
55.5
 21
6.7
  0
LINE
  8
0
 10
55.5
 20
6.7
 11
55.6666
 21
6.6918
  0
LINE
  8
0
 10
55.6666
 20
6.6918
 11
55.8316
 21
6.66733
  0
LINE
  8
0
 10
55.8316
 20
6.66733
 11
55.9935
 21
6.62679
  0
LINE
  8
0
 10
55.9935
 20
6.62679
 11
56.1506
 21
6.57059
  0
LINE
  8
0
 10
56.1506
 20
6.57059
 11
56.3014
 21
6.49925
  0
LINE
  8
0
 10
56.3014
 20
6.49925
 11
56.4445
 21
6.4135
  0
LINE
  8
0
 10
56.4445
 20
6.4135
 11
56.5785
 21
6.31412
  0
LINE
  8
0
 10
56.5785
 20
6.31412
 11
56.7021
 21
6.20207
  0
LINE
  8
0
 10
56.7021
 20
6.20207
 11
56.8141
 21
6.07846
  0
LINE
  8
0
 10
56.8141
 20
6.07846
 11
56.9135
 21
5.94446
  0
LINE
  8
0
 10
56.9135
 20
5.94446
 11
56.9993
 21
5.80136
  0
LINE
  8
0
 10
56.9993
 20
5.80136
 11
57.0706
 21
5.65056
  0
LINE
  8
0
 10
57.0706
 20
5.65056
 11
57.1268
 21
5.49347
  0
LINE
  8
0
 10
57.1268
 20
5.49347
 11
57.1673
 21
5.33165
  0
LINE
  8
0
 10
57.1673
 20
5.33165
 11
57.1918
 21
5.16663
  0
LINE
  8
0
 10
57.1918
 20
5.16663
 11
57.2
 21
5
  0
LINE
  8
0
 10
57.2
 20
5
 11
57.1918
 21
4.83336
  0
LINE
  8
0
 10
57.1918
 20
4.83336
 11
57.1673
 21
4.66833
  0
LINE
  8
0
 10
57.1673
 20
4.66833
 11
57.1268
 21
4.50652
  0
LINE
  8
0
 10
57.1268
 20
4.50652
 11
57.0706
 21
4.34943
  0
LINE
  8
0
 10
57.0706
 20
4.34943
 11
56.9993
 21
4.19862
  0
LINE
  8
0
 10
56.9993
 20
4.19862
 11
56.9135
 21
4.05553
  0
LINE
  8
0
 10
56.9135
 20
4.05553
 11
56.8141
 21
3.92152
  0
LINE
  8
0
 10
56.8141
 20
3.92152
 11
56.7021
 21
3.79791
  0
LINE
  8
0
 10
56.7021
 20
3.79791
 11
56.5785
 21
3.68587
  0
LINE
  8
0
 10
56.5785
 20
3.68587
 11
56.4445
 21
3.58649
  0
LINE
  8
0
 10
56.4445
 20
3.58649
 11
56.3014
 21
3.50073
  0
LINE
  8
0
 10
56.3014
 20
3.50073
 11
56.1506
 21
3.4294
  0
LINE
  8
0
 10
56.1506
 20
3.4294
 11
55.9935
 21
3.3732
  0
LINE
  8
0
 10
55.9935
 20
3.3732
 11
55.8316
 21
3.33266
  0
LINE
  8
0
 10
55.8316
 20
3.33266
 11
55.6666
 21
3.30818
  0
LINE
  8
0
 10
55.6666
 20
3.30818
 11
55.5
 21
3.29999
  0
LINE
  8
0
 10
55.5
 20
3.29999
 11
55.3334
 21
3.30818
  0
ENDSEC
  0
SECTION
  2
OBJECTS
  0
DICTIONARY
  0
ENDSEC
  0
EOF
