%TF.GenerationSoftware,KiCad,Pcbnew,9.0.6*%
%TF.CreationDate,2026-06-23T15:17:50+07:00*%
%TF.ProjectId,Phylax_Version_1,5068796c-6178-45f5-9665-7273696f6e5f,rev?*%
%TF.SameCoordinates,Original*%
%TF.FileFunction,Legend,Top*%
%TF.FilePolarity,Positive*%
%FSLAX46Y46*%
G04 Gerber Fmt 4.6, Leading zero omitted, Abs format (unit mm)*
G04 Created by KiCad (PCBNEW 9.0.6) date 2026-06-23 15:17:50*
%MOMM*%
%LPD*%
G01*
G04 APERTURE LIST*
%ADD10C,0.150000*%
%ADD11C,0.100000*%
%ADD12C,0.125000*%
%ADD13C,0.200000*%
%ADD14C,0.000000*%
G04 APERTURE END LIST*
D10*
X180736779Y-151469819D02*
X180736779Y-150469819D01*
X180736779Y-150469819D02*
X181117731Y-150469819D01*
X181117731Y-150469819D02*
X181212969Y-150517438D01*
X181212969Y-150517438D02*
X181260588Y-150565057D01*
X181260588Y-150565057D02*
X181308207Y-150660295D01*
X181308207Y-150660295D02*
X181308207Y-150803152D01*
X181308207Y-150803152D02*
X181260588Y-150898390D01*
X181260588Y-150898390D02*
X181212969Y-150946009D01*
X181212969Y-150946009D02*
X181117731Y-150993628D01*
X181117731Y-150993628D02*
X180736779Y-150993628D01*
X181736779Y-151469819D02*
X181736779Y-150469819D01*
X181736779Y-150946009D02*
X182308207Y-150946009D01*
X182308207Y-151469819D02*
X182308207Y-150469819D01*
X182974874Y-150993628D02*
X182974874Y-151469819D01*
X182641541Y-150469819D02*
X182974874Y-150993628D01*
X182974874Y-150993628D02*
X183308207Y-150469819D01*
X184117731Y-151469819D02*
X183641541Y-151469819D01*
X183641541Y-151469819D02*
X183641541Y-150469819D01*
X184403446Y-151184104D02*
X184879636Y-151184104D01*
X184308208Y-151469819D02*
X184641541Y-150469819D01*
X184641541Y-150469819D02*
X184974874Y-151469819D01*
X185212970Y-150469819D02*
X185879636Y-151469819D01*
X185879636Y-150469819D02*
X185212970Y-151469819D01*
X187022494Y-151469819D02*
X187022494Y-150469819D01*
X187022494Y-150469819D02*
X187403446Y-150469819D01*
X187403446Y-150469819D02*
X187498684Y-150517438D01*
X187498684Y-150517438D02*
X187546303Y-150565057D01*
X187546303Y-150565057D02*
X187593922Y-150660295D01*
X187593922Y-150660295D02*
X187593922Y-150803152D01*
X187593922Y-150803152D02*
X187546303Y-150898390D01*
X187546303Y-150898390D02*
X187498684Y-150946009D01*
X187498684Y-150946009D02*
X187403446Y-150993628D01*
X187403446Y-150993628D02*
X187022494Y-150993628D01*
X188593922Y-151374580D02*
X188546303Y-151422200D01*
X188546303Y-151422200D02*
X188403446Y-151469819D01*
X188403446Y-151469819D02*
X188308208Y-151469819D01*
X188308208Y-151469819D02*
X188165351Y-151422200D01*
X188165351Y-151422200D02*
X188070113Y-151326961D01*
X188070113Y-151326961D02*
X188022494Y-151231723D01*
X188022494Y-151231723D02*
X187974875Y-151041247D01*
X187974875Y-151041247D02*
X187974875Y-150898390D01*
X187974875Y-150898390D02*
X188022494Y-150707914D01*
X188022494Y-150707914D02*
X188070113Y-150612676D01*
X188070113Y-150612676D02*
X188165351Y-150517438D01*
X188165351Y-150517438D02*
X188308208Y-150469819D01*
X188308208Y-150469819D02*
X188403446Y-150469819D01*
X188403446Y-150469819D02*
X188546303Y-150517438D01*
X188546303Y-150517438D02*
X188593922Y-150565057D01*
X189355827Y-150946009D02*
X189498684Y-150993628D01*
X189498684Y-150993628D02*
X189546303Y-151041247D01*
X189546303Y-151041247D02*
X189593922Y-151136485D01*
X189593922Y-151136485D02*
X189593922Y-151279342D01*
X189593922Y-151279342D02*
X189546303Y-151374580D01*
X189546303Y-151374580D02*
X189498684Y-151422200D01*
X189498684Y-151422200D02*
X189403446Y-151469819D01*
X189403446Y-151469819D02*
X189022494Y-151469819D01*
X189022494Y-151469819D02*
X189022494Y-150469819D01*
X189022494Y-150469819D02*
X189355827Y-150469819D01*
X189355827Y-150469819D02*
X189451065Y-150517438D01*
X189451065Y-150517438D02*
X189498684Y-150565057D01*
X189498684Y-150565057D02*
X189546303Y-150660295D01*
X189546303Y-150660295D02*
X189546303Y-150755533D01*
X189546303Y-150755533D02*
X189498684Y-150850771D01*
X189498684Y-150850771D02*
X189451065Y-150898390D01*
X189451065Y-150898390D02*
X189355827Y-150946009D01*
X189355827Y-150946009D02*
X189022494Y-150946009D01*
X190689161Y-150803152D02*
X190927256Y-151469819D01*
X190927256Y-151469819D02*
X191165351Y-150803152D01*
X192070113Y-151469819D02*
X191498685Y-151469819D01*
X191784399Y-151469819D02*
X191784399Y-150469819D01*
X191784399Y-150469819D02*
X191689161Y-150612676D01*
X191689161Y-150612676D02*
X191593923Y-150707914D01*
X191593923Y-150707914D02*
X191498685Y-150755533D01*
X192498685Y-151374580D02*
X192546304Y-151422200D01*
X192546304Y-151422200D02*
X192498685Y-151469819D01*
X192498685Y-151469819D02*
X192451066Y-151422200D01*
X192451066Y-151422200D02*
X192498685Y-151374580D01*
X192498685Y-151374580D02*
X192498685Y-151469819D01*
X193165351Y-150469819D02*
X193260589Y-150469819D01*
X193260589Y-150469819D02*
X193355827Y-150517438D01*
X193355827Y-150517438D02*
X193403446Y-150565057D01*
X193403446Y-150565057D02*
X193451065Y-150660295D01*
X193451065Y-150660295D02*
X193498684Y-150850771D01*
X193498684Y-150850771D02*
X193498684Y-151088866D01*
X193498684Y-151088866D02*
X193451065Y-151279342D01*
X193451065Y-151279342D02*
X193403446Y-151374580D01*
X193403446Y-151374580D02*
X193355827Y-151422200D01*
X193355827Y-151422200D02*
X193260589Y-151469819D01*
X193260589Y-151469819D02*
X193165351Y-151469819D01*
X193165351Y-151469819D02*
X193070113Y-151422200D01*
X193070113Y-151422200D02*
X193022494Y-151374580D01*
X193022494Y-151374580D02*
X192974875Y-151279342D01*
X192974875Y-151279342D02*
X192927256Y-151088866D01*
X192927256Y-151088866D02*
X192927256Y-150850771D01*
X192927256Y-150850771D02*
X192974875Y-150660295D01*
X192974875Y-150660295D02*
X193022494Y-150565057D01*
X193022494Y-150565057D02*
X193070113Y-150517438D01*
X193070113Y-150517438D02*
X193165351Y-150469819D01*
X162636779Y-60069819D02*
X162636779Y-59069819D01*
X162636779Y-59069819D02*
X162874874Y-59069819D01*
X162874874Y-59069819D02*
X163017731Y-59117438D01*
X163017731Y-59117438D02*
X163112969Y-59212676D01*
X163112969Y-59212676D02*
X163160588Y-59307914D01*
X163160588Y-59307914D02*
X163208207Y-59498390D01*
X163208207Y-59498390D02*
X163208207Y-59641247D01*
X163208207Y-59641247D02*
X163160588Y-59831723D01*
X163160588Y-59831723D02*
X163112969Y-59926961D01*
X163112969Y-59926961D02*
X163017731Y-60022200D01*
X163017731Y-60022200D02*
X162874874Y-60069819D01*
X162874874Y-60069819D02*
X162636779Y-60069819D01*
X163636779Y-60069819D02*
X163636779Y-59403152D01*
X163636779Y-59069819D02*
X163589160Y-59117438D01*
X163589160Y-59117438D02*
X163636779Y-59165057D01*
X163636779Y-59165057D02*
X163684398Y-59117438D01*
X163684398Y-59117438D02*
X163636779Y-59069819D01*
X163636779Y-59069819D02*
X163636779Y-59165057D01*
X164065350Y-60022200D02*
X164160588Y-60069819D01*
X164160588Y-60069819D02*
X164351064Y-60069819D01*
X164351064Y-60069819D02*
X164446302Y-60022200D01*
X164446302Y-60022200D02*
X164493921Y-59926961D01*
X164493921Y-59926961D02*
X164493921Y-59879342D01*
X164493921Y-59879342D02*
X164446302Y-59784104D01*
X164446302Y-59784104D02*
X164351064Y-59736485D01*
X164351064Y-59736485D02*
X164208207Y-59736485D01*
X164208207Y-59736485D02*
X164112969Y-59688866D01*
X164112969Y-59688866D02*
X164065350Y-59593628D01*
X164065350Y-59593628D02*
X164065350Y-59546009D01*
X164065350Y-59546009D02*
X164112969Y-59450771D01*
X164112969Y-59450771D02*
X164208207Y-59403152D01*
X164208207Y-59403152D02*
X164351064Y-59403152D01*
X164351064Y-59403152D02*
X164446302Y-59450771D01*
X164922493Y-59403152D02*
X164922493Y-60403152D01*
X164922493Y-59450771D02*
X165017731Y-59403152D01*
X165017731Y-59403152D02*
X165208207Y-59403152D01*
X165208207Y-59403152D02*
X165303445Y-59450771D01*
X165303445Y-59450771D02*
X165351064Y-59498390D01*
X165351064Y-59498390D02*
X165398683Y-59593628D01*
X165398683Y-59593628D02*
X165398683Y-59879342D01*
X165398683Y-59879342D02*
X165351064Y-59974580D01*
X165351064Y-59974580D02*
X165303445Y-60022200D01*
X165303445Y-60022200D02*
X165208207Y-60069819D01*
X165208207Y-60069819D02*
X165017731Y-60069819D01*
X165017731Y-60069819D02*
X164922493Y-60022200D01*
X165970112Y-60069819D02*
X165874874Y-60022200D01*
X165874874Y-60022200D02*
X165827255Y-59926961D01*
X165827255Y-59926961D02*
X165827255Y-59069819D01*
X166779636Y-60069819D02*
X166779636Y-59546009D01*
X166779636Y-59546009D02*
X166732017Y-59450771D01*
X166732017Y-59450771D02*
X166636779Y-59403152D01*
X166636779Y-59403152D02*
X166446303Y-59403152D01*
X166446303Y-59403152D02*
X166351065Y-59450771D01*
X166779636Y-60022200D02*
X166684398Y-60069819D01*
X166684398Y-60069819D02*
X166446303Y-60069819D01*
X166446303Y-60069819D02*
X166351065Y-60022200D01*
X166351065Y-60022200D02*
X166303446Y-59926961D01*
X166303446Y-59926961D02*
X166303446Y-59831723D01*
X166303446Y-59831723D02*
X166351065Y-59736485D01*
X166351065Y-59736485D02*
X166446303Y-59688866D01*
X166446303Y-59688866D02*
X166684398Y-59688866D01*
X166684398Y-59688866D02*
X166779636Y-59641247D01*
X167160589Y-59403152D02*
X167398684Y-60069819D01*
X167636779Y-59403152D02*
X167398684Y-60069819D01*
X167398684Y-60069819D02*
X167303446Y-60307914D01*
X167303446Y-60307914D02*
X167255827Y-60355533D01*
X167255827Y-60355533D02*
X167160589Y-60403152D01*
D11*
X136700000Y-46200000D02*
X191700000Y-46200000D01*
X191700000Y-73700000D01*
X136700000Y-73700000D01*
X136700000Y-46200000D01*
D12*
X169373333Y-40414809D02*
X169373333Y-40771952D01*
X169373333Y-40771952D02*
X169349524Y-40843380D01*
X169349524Y-40843380D02*
X169301905Y-40891000D01*
X169301905Y-40891000D02*
X169230476Y-40914809D01*
X169230476Y-40914809D02*
X169182857Y-40914809D01*
X169587619Y-40462428D02*
X169611428Y-40438619D01*
X169611428Y-40438619D02*
X169659047Y-40414809D01*
X169659047Y-40414809D02*
X169778095Y-40414809D01*
X169778095Y-40414809D02*
X169825714Y-40438619D01*
X169825714Y-40438619D02*
X169849523Y-40462428D01*
X169849523Y-40462428D02*
X169873333Y-40510047D01*
X169873333Y-40510047D02*
X169873333Y-40557666D01*
X169873333Y-40557666D02*
X169849523Y-40629095D01*
X169849523Y-40629095D02*
X169563809Y-40914809D01*
X169563809Y-40914809D02*
X169873333Y-40914809D01*
X141519048Y-95701000D02*
X141590476Y-95724809D01*
X141590476Y-95724809D02*
X141709524Y-95724809D01*
X141709524Y-95724809D02*
X141757143Y-95701000D01*
X141757143Y-95701000D02*
X141780952Y-95677190D01*
X141780952Y-95677190D02*
X141804762Y-95629571D01*
X141804762Y-95629571D02*
X141804762Y-95581952D01*
X141804762Y-95581952D02*
X141780952Y-95534333D01*
X141780952Y-95534333D02*
X141757143Y-95510523D01*
X141757143Y-95510523D02*
X141709524Y-95486714D01*
X141709524Y-95486714D02*
X141614286Y-95462904D01*
X141614286Y-95462904D02*
X141566667Y-95439095D01*
X141566667Y-95439095D02*
X141542857Y-95415285D01*
X141542857Y-95415285D02*
X141519048Y-95367666D01*
X141519048Y-95367666D02*
X141519048Y-95320047D01*
X141519048Y-95320047D02*
X141542857Y-95272428D01*
X141542857Y-95272428D02*
X141566667Y-95248619D01*
X141566667Y-95248619D02*
X141614286Y-95224809D01*
X141614286Y-95224809D02*
X141733333Y-95224809D01*
X141733333Y-95224809D02*
X141804762Y-95248619D01*
X141995238Y-95272428D02*
X142019047Y-95248619D01*
X142019047Y-95248619D02*
X142066666Y-95224809D01*
X142066666Y-95224809D02*
X142185714Y-95224809D01*
X142185714Y-95224809D02*
X142233333Y-95248619D01*
X142233333Y-95248619D02*
X142257142Y-95272428D01*
X142257142Y-95272428D02*
X142280952Y-95320047D01*
X142280952Y-95320047D02*
X142280952Y-95367666D01*
X142280952Y-95367666D02*
X142257142Y-95439095D01*
X142257142Y-95439095D02*
X141971428Y-95724809D01*
X141971428Y-95724809D02*
X142280952Y-95724809D01*
X171519048Y-95601000D02*
X171590476Y-95624809D01*
X171590476Y-95624809D02*
X171709524Y-95624809D01*
X171709524Y-95624809D02*
X171757143Y-95601000D01*
X171757143Y-95601000D02*
X171780952Y-95577190D01*
X171780952Y-95577190D02*
X171804762Y-95529571D01*
X171804762Y-95529571D02*
X171804762Y-95481952D01*
X171804762Y-95481952D02*
X171780952Y-95434333D01*
X171780952Y-95434333D02*
X171757143Y-95410523D01*
X171757143Y-95410523D02*
X171709524Y-95386714D01*
X171709524Y-95386714D02*
X171614286Y-95362904D01*
X171614286Y-95362904D02*
X171566667Y-95339095D01*
X171566667Y-95339095D02*
X171542857Y-95315285D01*
X171542857Y-95315285D02*
X171519048Y-95267666D01*
X171519048Y-95267666D02*
X171519048Y-95220047D01*
X171519048Y-95220047D02*
X171542857Y-95172428D01*
X171542857Y-95172428D02*
X171566667Y-95148619D01*
X171566667Y-95148619D02*
X171614286Y-95124809D01*
X171614286Y-95124809D02*
X171733333Y-95124809D01*
X171733333Y-95124809D02*
X171804762Y-95148619D01*
X172280952Y-95624809D02*
X171995238Y-95624809D01*
X172138095Y-95624809D02*
X172138095Y-95124809D01*
X172138095Y-95124809D02*
X172090476Y-95196238D01*
X172090476Y-95196238D02*
X172042857Y-95243857D01*
X172042857Y-95243857D02*
X171995238Y-95267666D01*
D13*
%TO.C,J2*%
X167610000Y-40540000D02*
G75*
G02*
X167410000Y-40540000I-100000J0D01*
G01*
X167410000Y-40540000D02*
G75*
G02*
X167610000Y-40540000I100000J0D01*
G01*
D14*
%TO.C,G\u002A\u002A\u002A*%
G36*
X187292937Y-134426403D02*
G01*
X187320612Y-134433913D01*
X187370406Y-134440397D01*
X187433758Y-134444891D01*
X187467989Y-134446095D01*
X187554560Y-134448864D01*
X187650795Y-134453146D01*
X187738222Y-134458100D01*
X187751872Y-134459017D01*
X187828158Y-134464273D01*
X187905954Y-134469572D01*
X187970801Y-134473931D01*
X187981944Y-134474669D01*
X188030454Y-134478205D01*
X188063798Y-134481274D01*
X188073973Y-134482952D01*
X188087363Y-134486385D01*
X188120318Y-134491981D01*
X188127657Y-134493085D01*
X188181282Y-134501145D01*
X188213295Y-134506657D01*
X188232448Y-134511442D01*
X188247491Y-134517318D01*
X188250362Y-134518598D01*
X188279883Y-134526503D01*
X188324341Y-134533194D01*
X188336268Y-134534367D01*
X188380114Y-134540212D01*
X188411376Y-134548024D01*
X188416001Y-134550209D01*
X188439059Y-134556658D01*
X188483059Y-134563432D01*
X188536432Y-134568882D01*
X188590656Y-134574154D01*
X188632522Y-134579971D01*
X188652692Y-134584976D01*
X188675870Y-134592367D01*
X188711773Y-134598676D01*
X188788484Y-134610113D01*
X188857795Y-134623589D01*
X188912544Y-134637477D01*
X188945570Y-134650147D01*
X188949293Y-134652679D01*
X188974921Y-134663356D01*
X189019587Y-134673201D01*
X189054556Y-134677963D01*
X189101052Y-134684902D01*
X189132076Y-134693632D01*
X189139976Y-134699972D01*
X189152655Y-134711129D01*
X189166817Y-134713088D01*
X189198623Y-134718321D01*
X189249557Y-134732207D01*
X189310321Y-134751869D01*
X189371616Y-134774427D01*
X189393055Y-134783135D01*
X189438976Y-134799978D01*
X189492963Y-134816666D01*
X189502470Y-134819262D01*
X189546944Y-134835227D01*
X189579920Y-134854350D01*
X189585453Y-134859685D01*
X189610391Y-134875780D01*
X189625153Y-134875560D01*
X189656351Y-134875165D01*
X189698699Y-134886564D01*
X189737719Y-134904685D01*
X189757695Y-134921977D01*
X189778361Y-134934235D01*
X189819695Y-134945618D01*
X189860357Y-134952067D01*
X189929461Y-134965516D01*
X189976556Y-134986774D01*
X189983180Y-134992175D01*
X190021081Y-135015626D01*
X190067753Y-135030536D01*
X190068411Y-135030645D01*
X190103688Y-135041341D01*
X190121198Y-135056396D01*
X190121618Y-135058931D01*
X190135278Y-135073701D01*
X190169758Y-135086273D01*
X190182971Y-135088949D01*
X190222585Y-135100141D01*
X190243197Y-135115140D01*
X190244323Y-135119333D01*
X190258352Y-135142341D01*
X190297008Y-135155629D01*
X190329938Y-135157971D01*
X190359837Y-135166198D01*
X190367029Y-135180978D01*
X190377968Y-135201342D01*
X190387437Y-135203985D01*
X190411801Y-135210562D01*
X190452504Y-135227454D01*
X190483300Y-135242267D01*
X190528663Y-135263636D01*
X190564440Y-135277560D01*
X190577812Y-135280612D01*
X190600800Y-135289141D01*
X190638330Y-135315858D01*
X190692862Y-135362620D01*
X190723870Y-135390944D01*
X190765224Y-135421075D01*
X190808002Y-135440699D01*
X190813133Y-135442012D01*
X190844755Y-135452402D01*
X190857850Y-135463525D01*
X190871008Y-135474980D01*
X190903753Y-135489047D01*
X190915368Y-135492849D01*
X190959349Y-135513615D01*
X191010005Y-135547824D01*
X191039454Y-135572627D01*
X191084568Y-135608684D01*
X191129819Y-135635338D01*
X191154491Y-135644172D01*
X191201042Y-135665220D01*
X191249221Y-135707147D01*
X191254003Y-135712534D01*
X191285954Y-135746336D01*
X191311287Y-135767667D01*
X191319832Y-135771497D01*
X191340708Y-135781057D01*
X191368180Y-135802767D01*
X191405027Y-135829095D01*
X191436561Y-135842776D01*
X191463634Y-135857533D01*
X191471377Y-135872858D01*
X191483553Y-135892115D01*
X191492743Y-135894203D01*
X191516741Y-135906512D01*
X191522400Y-135915807D01*
X191538498Y-135933737D01*
X191573995Y-135962372D01*
X191622132Y-135996389D01*
X191637998Y-136006829D01*
X191690154Y-136042988D01*
X191733041Y-136077154D01*
X191759140Y-136103210D01*
X191762263Y-136107930D01*
X191787464Y-136133012D01*
X191809356Y-136139613D01*
X191834301Y-136147783D01*
X191840203Y-136158786D01*
X191851934Y-136178654D01*
X191880980Y-136207668D01*
X191900845Y-136223973D01*
X191935753Y-136253043D01*
X191957717Y-136275681D01*
X191961488Y-136282671D01*
X191972844Y-136302808D01*
X191999125Y-136332067D01*
X192030752Y-136361277D01*
X192058148Y-136381267D01*
X192068385Y-136385024D01*
X192084210Y-136396816D01*
X192084903Y-136401542D01*
X192094827Y-136420858D01*
X192118715Y-136450496D01*
X192147737Y-136480954D01*
X192173066Y-136502729D01*
X192183554Y-136507729D01*
X192203947Y-136518373D01*
X192233361Y-136543906D01*
X192262339Y-136574730D01*
X192281423Y-136601249D01*
X192284299Y-136609963D01*
X192296631Y-136628082D01*
X192307307Y-136630435D01*
X192328106Y-136640793D01*
X192331024Y-136649607D01*
X192342755Y-136669475D01*
X192371802Y-136698489D01*
X192391666Y-136714795D01*
X192426511Y-136743353D01*
X192448482Y-136764824D01*
X192452309Y-136771061D01*
X192462359Y-136787083D01*
X192487480Y-136817460D01*
X192510537Y-136842974D01*
X192552778Y-136888649D01*
X192594173Y-136934018D01*
X192609989Y-136951593D01*
X192639610Y-136981116D01*
X192662299Y-136997423D01*
X192666473Y-136998551D01*
X192681756Y-137011330D01*
X192691826Y-137033061D01*
X192713819Y-137077120D01*
X192755474Y-137135824D01*
X192797568Y-137186443D01*
X192816215Y-137213370D01*
X192821135Y-137227861D01*
X192832594Y-137247740D01*
X192841728Y-137254703D01*
X192863630Y-137275491D01*
X192889270Y-137309614D01*
X192891436Y-137312983D01*
X192923433Y-137357993D01*
X192956207Y-137397343D01*
X192988998Y-137438194D01*
X193013935Y-137477240D01*
X193041213Y-137518418D01*
X193074284Y-137557068D01*
X193100336Y-137590570D01*
X193112451Y-137620833D01*
X193112560Y-137623040D01*
X193122491Y-137652298D01*
X193146808Y-137687513D01*
X193150906Y-137692090D01*
X193176236Y-137723379D01*
X193188914Y-137746818D01*
X193189251Y-137749276D01*
X193191418Y-137760195D01*
X193200598Y-137776042D01*
X193220808Y-137802417D01*
X193256066Y-137844921D01*
X193268075Y-137859165D01*
X193292576Y-137895650D01*
X193312116Y-137934564D01*
X193328545Y-137966009D01*
X193342653Y-137980134D01*
X193343304Y-137980193D01*
X193355351Y-137993301D01*
X193370201Y-138025937D01*
X193374289Y-138037711D01*
X193391393Y-138077905D01*
X193410070Y-138104629D01*
X193413824Y-138107495D01*
X193430188Y-138131092D01*
X193434662Y-138156249D01*
X193444042Y-138194980D01*
X193457669Y-138215743D01*
X193476355Y-138238913D01*
X193480676Y-138249468D01*
X193487107Y-138268356D01*
X193503591Y-138305757D01*
X193525916Y-138353027D01*
X193549873Y-138401521D01*
X193571247Y-138442594D01*
X193585829Y-138467603D01*
X193588612Y-138471014D01*
X193599250Y-138488748D01*
X193615760Y-138525011D01*
X193624666Y-138546821D01*
X193647869Y-138598362D01*
X193673484Y-138644980D01*
X193681128Y-138656556D01*
X193701492Y-138688790D01*
X193710703Y-138710550D01*
X193710749Y-138711351D01*
X193717540Y-138731823D01*
X193734667Y-138768039D01*
X193743962Y-138785674D01*
X193767372Y-138840368D01*
X193785727Y-138903183D01*
X193789465Y-138922269D01*
X193799373Y-138967728D01*
X193810905Y-138999353D01*
X193816705Y-139006978D01*
X193828488Y-139024954D01*
X193846580Y-139064113D01*
X193867946Y-139116418D01*
X193889548Y-139173835D01*
X193908349Y-139228329D01*
X193921314Y-139271865D01*
X193925483Y-139294796D01*
X193936848Y-139323776D01*
X193948813Y-139335960D01*
X193964459Y-139360157D01*
X193978724Y-139403173D01*
X193984700Y-139432455D01*
X193996484Y-139485846D01*
X194012228Y-139531713D01*
X194020358Y-139547461D01*
X194033670Y-139580696D01*
X194045982Y-139632965D01*
X194054277Y-139690058D01*
X194062532Y-139747226D01*
X194073759Y-139794089D01*
X194085486Y-139820433D01*
X194098502Y-139848011D01*
X194110458Y-139894343D01*
X194116450Y-139931733D01*
X194124694Y-139981034D01*
X194135001Y-140016972D01*
X194142533Y-140029270D01*
X194151348Y-140049782D01*
X194149320Y-140073601D01*
X194151727Y-140112996D01*
X194172117Y-140167115D01*
X194178392Y-140179426D01*
X194202786Y-140238529D01*
X194214726Y-140295320D01*
X194215172Y-140307891D01*
X194215174Y-140336411D01*
X194216715Y-140366122D01*
X194220512Y-140403232D01*
X194227280Y-140453945D01*
X194237734Y-140524469D01*
X194247434Y-140587681D01*
X194256884Y-140653192D01*
X194265222Y-140718357D01*
X194269378Y-140756401D01*
X194275468Y-140816425D01*
X194282756Y-140882786D01*
X194285001Y-140902113D01*
X194294857Y-141014647D01*
X194295329Y-141113873D01*
X194293437Y-141147524D01*
X194292764Y-141208475D01*
X194299376Y-141281718D01*
X194314044Y-141375416D01*
X194315810Y-141385266D01*
X194318715Y-141433740D01*
X194314567Y-141492315D01*
X194311088Y-141514214D01*
X194304368Y-141582127D01*
X194314661Y-141640248D01*
X194316833Y-141646658D01*
X194328299Y-141691997D01*
X194322673Y-141717899D01*
X194320615Y-141720231D01*
X194313263Y-141741840D01*
X194306865Y-141786576D01*
X194302315Y-141846890D01*
X194300856Y-141886880D01*
X194298259Y-141966342D01*
X194294256Y-142047817D01*
X194289568Y-142117443D01*
X194287861Y-142136836D01*
X194281960Y-142204463D01*
X194275832Y-142285021D01*
X194270919Y-142359239D01*
X194264793Y-142423758D01*
X194253623Y-142507158D01*
X194239032Y-142598377D01*
X194223654Y-142681340D01*
X194207158Y-142766910D01*
X194191852Y-142852113D01*
X194179454Y-142927034D01*
X194171724Y-142981363D01*
X194162925Y-143038719D01*
X194151989Y-143087472D01*
X194142686Y-143113865D01*
X194129136Y-143152474D01*
X194121854Y-143195248D01*
X194113750Y-143231632D01*
X194099292Y-143251924D01*
X194098473Y-143252279D01*
X194084612Y-143271349D01*
X194078335Y-143306945D01*
X194078318Y-143308012D01*
X194073217Y-143357863D01*
X194060744Y-143423526D01*
X194043869Y-143491934D01*
X194025562Y-143550016D01*
X194020314Y-143563285D01*
X194008307Y-143602221D01*
X193997489Y-143654483D01*
X193994492Y-143674487D01*
X193986512Y-143716905D01*
X193976896Y-143743171D01*
X193972058Y-143747343D01*
X193958435Y-143760650D01*
X193943538Y-143793328D01*
X193931274Y-143834510D01*
X193925546Y-143873332D01*
X193925483Y-143876948D01*
X193919965Y-143911213D01*
X193906658Y-143949611D01*
X193890430Y-143980592D01*
X193876721Y-143992634D01*
X193868207Y-144006371D01*
X193857095Y-144041720D01*
X193848848Y-144076846D01*
X193836854Y-144124623D01*
X193824380Y-144158956D01*
X193817084Y-144169780D01*
X193804621Y-144191026D01*
X193802778Y-144205150D01*
X193796066Y-144234828D01*
X193779271Y-144277047D01*
X193772101Y-144291848D01*
X193752987Y-144335327D01*
X193742265Y-144371335D01*
X193741425Y-144379321D01*
X193729452Y-144408401D01*
X193710749Y-144425782D01*
X193686394Y-144453235D01*
X193680072Y-144476035D01*
X193671719Y-144507648D01*
X193650805Y-144549314D01*
X193641727Y-144563560D01*
X193617991Y-144604514D01*
X193604530Y-144639419D01*
X193603381Y-144647875D01*
X193597032Y-144673846D01*
X193580533Y-144718326D01*
X193557706Y-144772512D01*
X193532375Y-144827605D01*
X193508363Y-144874803D01*
X193494864Y-144897705D01*
X193476334Y-144933271D01*
X193470773Y-144947554D01*
X193456873Y-144970199D01*
X193448211Y-144974396D01*
X193436212Y-144986859D01*
X193434662Y-144997611D01*
X193422134Y-145041720D01*
X193388227Y-145091782D01*
X193354136Y-145126168D01*
X193319470Y-145171472D01*
X193311956Y-145205931D01*
X193305190Y-145241658D01*
X193291215Y-145261224D01*
X193271009Y-145282645D01*
X193244828Y-145321880D01*
X193218556Y-145368451D01*
X193198078Y-145411882D01*
X193189279Y-145441695D01*
X193189251Y-145442754D01*
X193176613Y-145461457D01*
X193161030Y-145465217D01*
X193135976Y-145478633D01*
X193114699Y-145520302D01*
X193112560Y-145526570D01*
X193097314Y-145564406D01*
X193083266Y-145585993D01*
X193079429Y-145587923D01*
X193067217Y-145600108D01*
X193066201Y-145607095D01*
X193055810Y-145626459D01*
X193028624Y-145660290D01*
X192990090Y-145701927D01*
X192981841Y-145710265D01*
X192935738Y-145760949D01*
X192906505Y-145802903D01*
X192897826Y-145828023D01*
X192886350Y-145861078D01*
X192859480Y-145891945D01*
X192832649Y-145917925D01*
X192821142Y-145938734D01*
X192821135Y-145939073D01*
X192808866Y-145954419D01*
X192799791Y-145956038D01*
X192779933Y-145969027D01*
X192769708Y-145990855D01*
X192752618Y-146028215D01*
X192729700Y-146059235D01*
X192707452Y-146085523D01*
X192698430Y-146100852D01*
X192688207Y-146117068D01*
X192657321Y-146153390D01*
X192605446Y-146210177D01*
X192532255Y-146287787D01*
X192456854Y-146366439D01*
X192407533Y-146418640D01*
X192367201Y-146463282D01*
X192340061Y-146495575D01*
X192330314Y-146510643D01*
X192318108Y-146523077D01*
X192311141Y-146524200D01*
X192290128Y-146535756D01*
X192261606Y-146563691D01*
X192253623Y-146573312D01*
X192235619Y-146595592D01*
X192216924Y-146617181D01*
X192194039Y-146641579D01*
X192163463Y-146672283D01*
X192121698Y-146712793D01*
X192065244Y-146766608D01*
X191990601Y-146837225D01*
X191973555Y-146853321D01*
X191885775Y-146935892D01*
X191817530Y-146999310D01*
X191766319Y-147045765D01*
X191729644Y-147077446D01*
X191705003Y-147096545D01*
X191689898Y-147105249D01*
X191684686Y-147106401D01*
X191670971Y-147116256D01*
X191670773Y-147118251D01*
X191658526Y-147132200D01*
X191627860Y-147152864D01*
X191614441Y-147160431D01*
X191570596Y-147188463D01*
X191527442Y-147223091D01*
X191492447Y-147257462D01*
X191473084Y-147284725D01*
X191471377Y-147291639D01*
X191458892Y-147304107D01*
X191447714Y-147305797D01*
X191423900Y-147314461D01*
X191384702Y-147337119D01*
X191341002Y-147367150D01*
X191297734Y-147398146D01*
X191264441Y-147420203D01*
X191248448Y-147428502D01*
X191232618Y-147438368D01*
X191204682Y-147462999D01*
X191194685Y-147472762D01*
X191157925Y-147502479D01*
X191104956Y-147537032D01*
X191050166Y-147567402D01*
X190996716Y-147596317D01*
X190951822Y-147624274D01*
X190924957Y-147645362D01*
X190924509Y-147645847D01*
X190897565Y-147667657D01*
X190879758Y-147673913D01*
X190858162Y-147682553D01*
X190855294Y-147686957D01*
X190840166Y-147700483D01*
X190805455Y-147723354D01*
X190759165Y-147750340D01*
X190707288Y-147780744D01*
X190662592Y-147809924D01*
X190637402Y-147829326D01*
X190605403Y-147850944D01*
X190581218Y-147857971D01*
X190551818Y-147867514D01*
X190520410Y-147888647D01*
X190488597Y-147910693D01*
X190464172Y-147919323D01*
X190434719Y-147927082D01*
X190397523Y-147944836D01*
X190369477Y-147964304D01*
X190367029Y-147966950D01*
X190348710Y-147977261D01*
X190312792Y-147991291D01*
X190301842Y-147994981D01*
X190265387Y-148009813D01*
X190245540Y-148023622D01*
X190244323Y-148026661D01*
X190231022Y-148038193D01*
X190198585Y-148049041D01*
X190194474Y-148049938D01*
X190152586Y-148062878D01*
X190090455Y-148087417D01*
X190014797Y-148120523D01*
X189932331Y-148159162D01*
X189849776Y-148200302D01*
X189784179Y-148235176D01*
X189742223Y-148249711D01*
X189692058Y-148256480D01*
X189688315Y-148256537D01*
X189651332Y-148260169D01*
X189631738Y-148268892D01*
X189630797Y-148271562D01*
X189616103Y-148292823D01*
X189574565Y-148311364D01*
X189509996Y-148325498D01*
X189508233Y-148325764D01*
X189450735Y-148340660D01*
X189391324Y-148365256D01*
X189377029Y-148373014D01*
X189332652Y-148395360D01*
X189294306Y-148408593D01*
X189282863Y-148410145D01*
X189247081Y-148416755D01*
X189207519Y-148431721D01*
X189168106Y-148445044D01*
X189111962Y-148457304D01*
X189065416Y-148464101D01*
X188991477Y-148477646D01*
X188944976Y-148498586D01*
X188938876Y-148503877D01*
X188897863Y-148526450D01*
X188840881Y-148532850D01*
X188778789Y-148540776D01*
X188743251Y-148561459D01*
X188712368Y-148580347D01*
X188693386Y-148578172D01*
X188666035Y-148577308D01*
X188623655Y-148591516D01*
X188610793Y-148597707D01*
X188561480Y-148616975D01*
X188497729Y-148634128D01*
X188449758Y-148642933D01*
X188370211Y-148653914D01*
X188313295Y-148661669D01*
X188271258Y-148667198D01*
X188236347Y-148671503D01*
X188200810Y-148675586D01*
X188173671Y-148678598D01*
X188114326Y-148685210D01*
X188058122Y-148691572D01*
X188035628Y-148694165D01*
X187916813Y-148707905D01*
X187824688Y-148718182D01*
X187755492Y-148725240D01*
X187705464Y-148729317D01*
X187670841Y-148730656D01*
X187647863Y-148729498D01*
X187632767Y-148726082D01*
X187621834Y-148720678D01*
X187577960Y-148711185D01*
X187550101Y-148716875D01*
X187436270Y-148741688D01*
X187320064Y-148747605D01*
X187264007Y-148742719D01*
X187185177Y-148737458D01*
X187127509Y-148746390D01*
X187092275Y-148757348D01*
X187071402Y-148761411D01*
X187070869Y-148761352D01*
X187051100Y-148757070D01*
X187014575Y-148748603D01*
X187007971Y-148747040D01*
X186964391Y-148740294D01*
X186904030Y-148735349D01*
X186846920Y-148733410D01*
X186782325Y-148731440D01*
X186694503Y-148726705D01*
X186590728Y-148719711D01*
X186478273Y-148710967D01*
X186364413Y-148700978D01*
X186317753Y-148696517D01*
X186247065Y-148688163D01*
X186181849Y-148677963D01*
X186129850Y-148667337D01*
X186098809Y-148657708D01*
X186095350Y-148655711D01*
X186066684Y-148644206D01*
X186057005Y-148642788D01*
X185983808Y-148635857D01*
X185938894Y-148627149D01*
X185925161Y-148621318D01*
X185902457Y-148614919D01*
X185858220Y-148607959D01*
X185801533Y-148601836D01*
X185794786Y-148601262D01*
X185734657Y-148594039D01*
X185683467Y-148583888D01*
X185651716Y-148572921D01*
X185650543Y-148572210D01*
X185620010Y-148560608D01*
X185569927Y-148549353D01*
X185513462Y-148541172D01*
X185454797Y-148532489D01*
X185404838Y-148520842D01*
X185375419Y-148509259D01*
X185344580Y-148496274D01*
X185294328Y-148482076D01*
X185236413Y-148469905D01*
X185179204Y-148457669D01*
X185132015Y-148443604D01*
X185104973Y-148430734D01*
X185104831Y-148430615D01*
X185073228Y-148416450D01*
X185029834Y-148410163D01*
X185027548Y-148410145D01*
X184978390Y-148402850D01*
X184925467Y-148384878D01*
X184916659Y-148380665D01*
X184860937Y-148357980D01*
X184801271Y-148341552D01*
X184794809Y-148340368D01*
X184751088Y-148329447D01*
X184720140Y-148315395D01*
X184715179Y-148311101D01*
X184691751Y-148295933D01*
X184650793Y-148279139D01*
X184630555Y-148272719D01*
X184576859Y-148255889D01*
X184527189Y-148238238D01*
X184515519Y-148233580D01*
X184467972Y-148215285D01*
X184415791Y-148197264D01*
X184413343Y-148196480D01*
X184374800Y-148179645D01*
X184350983Y-148160803D01*
X184348962Y-148157169D01*
X184329605Y-148140316D01*
X184292826Y-148126903D01*
X184286253Y-148125528D01*
X184250563Y-148115974D01*
X184232360Y-148105510D01*
X184231763Y-148103681D01*
X184218343Y-148093806D01*
X184185363Y-148084623D01*
X184178556Y-148083423D01*
X184131094Y-148068061D01*
X184091441Y-148043198D01*
X184091304Y-148043070D01*
X184057600Y-148020013D01*
X184028833Y-148011352D01*
X183997257Y-148001357D01*
X183967084Y-147980306D01*
X183930282Y-147955670D01*
X183881887Y-147934408D01*
X183871862Y-147931228D01*
X183830159Y-147915408D01*
X183801815Y-147897991D01*
X183797698Y-147893253D01*
X183774087Y-147877583D01*
X183748962Y-147873309D01*
X183713086Y-147861753D01*
X183684359Y-147837544D01*
X183647944Y-147806830D01*
X183611600Y-147790579D01*
X183565413Y-147772135D01*
X183529184Y-147749653D01*
X183496271Y-147728514D01*
X183471177Y-147719927D01*
X183439813Y-147713461D01*
X183405013Y-147698225D01*
X183379094Y-147680461D01*
X183372826Y-147670075D01*
X183360127Y-147647227D01*
X183328720Y-147620933D01*
X183288640Y-147598464D01*
X183260862Y-147588923D01*
X183225166Y-147572283D01*
X183182487Y-147540942D01*
X183161164Y-147521091D01*
X183100896Y-147466638D01*
X183049315Y-147436771D01*
X183005718Y-147428502D01*
X182980248Y-147422492D01*
X182974034Y-147413734D01*
X182962654Y-147392043D01*
X182933278Y-147359208D01*
X182893054Y-147321662D01*
X182849127Y-147285834D01*
X182808645Y-147258158D01*
X182790950Y-147248961D01*
X182739189Y-147222209D01*
X182691397Y-147189911D01*
X182654956Y-147157871D01*
X182637244Y-147131890D01*
X182636594Y-147127588D01*
X182628596Y-147108360D01*
X182622833Y-147106401D01*
X182601788Y-147096232D01*
X182564255Y-147068473D01*
X182515419Y-147027248D01*
X182463791Y-146979861D01*
X182434002Y-146953174D01*
X182414298Y-146938599D01*
X182411722Y-146937681D01*
X182397694Y-146927851D01*
X182367708Y-146901859D01*
X182327774Y-146864954D01*
X182320308Y-146857859D01*
X182274022Y-146815126D01*
X182231387Y-146778230D01*
X182201253Y-146754813D01*
X182200124Y-146754061D01*
X182165049Y-146726173D01*
X182127201Y-146689397D01*
X182122579Y-146684336D01*
X182065861Y-146622146D01*
X182013105Y-146566303D01*
X181968333Y-146520883D01*
X181935569Y-146489957D01*
X181918836Y-146477601D01*
X181918338Y-146477536D01*
X181903161Y-146465825D01*
X181892496Y-146449981D01*
X181852614Y-146382799D01*
X181820615Y-146340266D01*
X181797977Y-146324321D01*
X181796830Y-146324251D01*
X181778999Y-146315194D01*
X181777657Y-146309996D01*
X181767168Y-146290317D01*
X181741755Y-146260621D01*
X181710501Y-146229989D01*
X181682487Y-146207504D01*
X181669110Y-146201449D01*
X181655564Y-146189566D01*
X181654952Y-146184702D01*
X181643788Y-146157462D01*
X181610558Y-146109859D01*
X181555652Y-146042429D01*
X181528412Y-146010832D01*
X181497024Y-145972667D01*
X181476103Y-145943002D01*
X181470823Y-145931316D01*
X181461250Y-145912305D01*
X181437479Y-145881655D01*
X181428622Y-145871679D01*
X181391727Y-145827578D01*
X181354490Y-145777523D01*
X181348168Y-145768251D01*
X181322771Y-145733677D01*
X181303226Y-145713162D01*
X181298339Y-145710733D01*
X181288117Y-145698153D01*
X181286836Y-145687621D01*
X181279102Y-145667201D01*
X181272531Y-145664613D01*
X181257432Y-145651840D01*
X181247392Y-145630102D01*
X181228080Y-145594044D01*
X181202138Y-145563475D01*
X181173325Y-145528992D01*
X181157221Y-145498288D01*
X181144426Y-145472294D01*
X181134875Y-145465217D01*
X181123237Y-145452087D01*
X181108196Y-145419147D01*
X181102778Y-145403865D01*
X181087690Y-145366039D01*
X181074032Y-145344448D01*
X181070366Y-145342512D01*
X181056826Y-145329972D01*
X181037699Y-145298615D01*
X181031150Y-145285502D01*
X181006719Y-145241459D01*
X180981106Y-145205834D01*
X180976746Y-145201143D01*
X180955540Y-145171638D01*
X180949396Y-145151382D01*
X180938987Y-145124489D01*
X180920184Y-145101533D01*
X180891429Y-145066181D01*
X180860808Y-145016050D01*
X180833758Y-144961738D01*
X180815715Y-144913842D01*
X180811352Y-144889393D01*
X180802840Y-144858771D01*
X180789792Y-144846699D01*
X180772056Y-144827221D01*
X180757983Y-144790997D01*
X180757188Y-144787540D01*
X180747001Y-144750843D01*
X180736999Y-144729712D01*
X180736215Y-144728985D01*
X180713338Y-144701752D01*
X180690499Y-144661318D01*
X180675468Y-144622546D01*
X180673309Y-144608698D01*
X180663001Y-144574922D01*
X180652302Y-144561926D01*
X180634456Y-144537693D01*
X180613639Y-144496606D01*
X180605019Y-144475688D01*
X180587003Y-144435497D01*
X180570754Y-144410713D01*
X180564673Y-144406884D01*
X180552699Y-144394206D01*
X180550525Y-144380042D01*
X180542755Y-144351291D01*
X180523249Y-144310117D01*
X180512658Y-144291848D01*
X180492433Y-144247762D01*
X181313604Y-144247762D01*
X181329638Y-144286555D01*
X181334002Y-144293384D01*
X181354409Y-144333520D01*
X181363405Y-144369367D01*
X181363425Y-144370495D01*
X181373758Y-144406119D01*
X181386534Y-144422222D01*
X181405981Y-144447469D01*
X181409541Y-144460805D01*
X181421800Y-144483142D01*
X181430846Y-144488468D01*
X181448164Y-144506618D01*
X181468900Y-144543956D01*
X181480191Y-144570635D01*
X181502041Y-144620062D01*
X181525564Y-144661262D01*
X181535576Y-144674359D01*
X181556451Y-144704974D01*
X181562923Y-144726347D01*
X181570555Y-144750987D01*
X181590227Y-144791041D01*
X181608937Y-144823383D01*
X181634101Y-144866989D01*
X181650815Y-144901142D01*
X181654952Y-144914694D01*
X181656621Y-144922964D01*
X181663250Y-144936134D01*
X181677264Y-144957625D01*
X181701092Y-144990857D01*
X181737161Y-145039253D01*
X181787900Y-145106233D01*
X181831340Y-145163248D01*
X181865564Y-145208812D01*
X181893648Y-145247446D01*
X181908031Y-145268520D01*
X181925168Y-145294663D01*
X181952737Y-145335175D01*
X181973218Y-145364720D01*
X182000520Y-145406197D01*
X182018626Y-145438296D01*
X182023067Y-145450648D01*
X182032298Y-145465014D01*
X182034571Y-145465322D01*
X182049419Y-145476946D01*
X182073348Y-145506113D01*
X182084298Y-145521538D01*
X182118594Y-145568087D01*
X182154552Y-145611496D01*
X182160989Y-145618523D01*
X182190484Y-145651784D01*
X182229969Y-145698757D01*
X182268478Y-145746261D01*
X182304463Y-145788864D01*
X182334720Y-145819875D01*
X182353174Y-145833119D01*
X182354072Y-145833229D01*
X182371244Y-145844909D01*
X182398523Y-145875017D01*
X182422158Y-145906189D01*
X182463710Y-145959439D01*
X182518867Y-146022131D01*
X182583768Y-146090662D01*
X182654555Y-146161432D01*
X182727368Y-146230840D01*
X182798349Y-146295284D01*
X182863638Y-146351164D01*
X182919376Y-146394878D01*
X182961704Y-146422826D01*
X182985124Y-146431522D01*
X183003269Y-146443341D01*
X183004815Y-146450694D01*
X183016672Y-146470149D01*
X183046437Y-146496744D01*
X183062333Y-146508070D01*
X183100478Y-146536032D01*
X183127715Y-146560630D01*
X183132845Y-146567077D01*
X183153494Y-146591792D01*
X183182694Y-146619834D01*
X183208555Y-146648215D01*
X183219443Y-146671872D01*
X183219444Y-146672029D01*
X183232472Y-146687505D01*
X183255912Y-146692270D01*
X183292589Y-146701431D01*
X183311473Y-146715278D01*
X183341081Y-146734466D01*
X183374646Y-146736310D01*
X183396464Y-146721926D01*
X183394761Y-146700261D01*
X183383871Y-146687415D01*
X183363889Y-146659704D01*
X183350638Y-146624184D01*
X183333406Y-146577587D01*
X183311342Y-146538704D01*
X183292416Y-146499552D01*
X183276859Y-146445768D01*
X183271867Y-146417592D01*
X183262404Y-146370861D01*
X183249699Y-146338199D01*
X183241447Y-146329316D01*
X183227093Y-146310651D01*
X183214943Y-146273056D01*
X183212121Y-146257766D01*
X183200427Y-146201155D01*
X183184392Y-146146417D01*
X183182076Y-146140096D01*
X183166778Y-146093188D01*
X183150637Y-146033680D01*
X183143213Y-146002053D01*
X183128922Y-145945155D01*
X183112818Y-145893173D01*
X183104559Y-145871679D01*
X183091969Y-145833020D01*
X183078580Y-145776349D01*
X183067558Y-145715531D01*
X183056875Y-145654102D01*
X183045059Y-145599296D01*
X183034762Y-145563273D01*
X183025866Y-145529108D01*
X183015911Y-145474188D01*
X183006586Y-145408315D01*
X183003508Y-145381981D01*
X182992332Y-145282166D01*
X182983429Y-145208486D01*
X182976171Y-145156536D01*
X182969931Y-145121912D01*
X182964081Y-145100209D01*
X182962930Y-145097101D01*
X182950886Y-145038883D01*
X182949839Y-144957238D01*
X182951823Y-144937302D01*
X183691976Y-144937302D01*
X183693114Y-145015503D01*
X183696952Y-145088657D01*
X183703372Y-145150825D01*
X183712254Y-145196066D01*
X183723481Y-145218441D01*
X183727311Y-145219807D01*
X183733469Y-145233967D01*
X183738180Y-145271757D01*
X183740707Y-145326137D01*
X183740942Y-145350237D01*
X183742975Y-145425581D01*
X183750087Y-145479733D01*
X183763793Y-145521971D01*
X183771618Y-145537902D01*
X183791653Y-145586291D01*
X183802210Y-145633194D01*
X183802669Y-145641379D01*
X183806644Y-145689814D01*
X183816254Y-145743317D01*
X183829061Y-145791896D01*
X183842631Y-145825556D01*
X183849674Y-145834177D01*
X183860401Y-145853518D01*
X183871538Y-145892948D01*
X183877224Y-145922865D01*
X183889097Y-145974020D01*
X183905309Y-146015585D01*
X183914328Y-146029411D01*
X183931893Y-146061153D01*
X183946334Y-146107996D01*
X183949605Y-146125159D01*
X183957931Y-146168051D01*
X183966456Y-146196429D01*
X183969508Y-146201449D01*
X183992285Y-146232722D01*
X184010533Y-146277195D01*
X184017029Y-146313988D01*
X184021744Y-146353613D01*
X184033389Y-146396030D01*
X184048214Y-146430599D01*
X184062470Y-146446677D01*
X184063849Y-146446860D01*
X184074950Y-146460276D01*
X184085566Y-146493388D01*
X184087292Y-146501768D01*
X184099141Y-146540060D01*
X184114890Y-146562897D01*
X184117518Y-146564322D01*
X184132007Y-146583043D01*
X184144233Y-146620676D01*
X184147058Y-146635954D01*
X184158262Y-146687917D01*
X184174865Y-146739915D01*
X184193500Y-146783543D01*
X184210802Y-146810396D01*
X184218754Y-146814976D01*
X184228817Y-146828023D01*
X184231763Y-146850429D01*
X184242023Y-146888672D01*
X184260151Y-146916353D01*
X184281690Y-146951603D01*
X184298015Y-146998977D01*
X184299795Y-147007440D01*
X184311857Y-147052453D01*
X184327352Y-147086620D01*
X184330615Y-147091063D01*
X184345397Y-147116482D01*
X184365805Y-147161231D01*
X184388208Y-147216012D01*
X184408981Y-147271525D01*
X184424495Y-147318472D01*
X184431122Y-147347552D01*
X184431159Y-147348784D01*
X184443492Y-147370625D01*
X184454166Y-147376941D01*
X184474598Y-147394132D01*
X184477321Y-147403301D01*
X184490867Y-147415711D01*
X184527219Y-147434960D01*
X184580146Y-147457987D01*
X184619199Y-147473055D01*
X184683761Y-147498407D01*
X184740005Y-147523330D01*
X184779790Y-147544081D01*
X184791606Y-147552272D01*
X184825297Y-147570878D01*
X184874130Y-147586042D01*
X184895139Y-147589986D01*
X184937525Y-147598548D01*
X184963797Y-147608334D01*
X184967995Y-147613083D01*
X184981261Y-147624419D01*
X185013575Y-147635436D01*
X185017341Y-147636299D01*
X185059343Y-147647436D01*
X185090197Y-147658736D01*
X185153329Y-147687230D01*
X185210185Y-147705140D01*
X185278835Y-147718097D01*
X185282427Y-147718644D01*
X185357606Y-147733919D01*
X185443374Y-147757295D01*
X185527376Y-147784948D01*
X185597258Y-147813054D01*
X185614240Y-147821323D01*
X185651044Y-147834653D01*
X185705222Y-147847843D01*
X185752676Y-147856135D01*
X185816216Y-147868005D01*
X185877561Y-147884102D01*
X185911684Y-147896208D01*
X185958369Y-147910221D01*
X186021887Y-147921674D01*
X186087681Y-147928031D01*
X186149626Y-147932050D01*
X186204039Y-147937305D01*
X186239707Y-147942701D01*
X186241063Y-147943018D01*
X186372654Y-147970497D01*
X186514197Y-147990619D01*
X186671107Y-148003880D01*
X186848802Y-148010775D01*
X186995719Y-148012073D01*
X187070117Y-148013692D01*
X187123623Y-148018494D01*
X187151991Y-148026038D01*
X187154885Y-148028635D01*
X187177682Y-148038184D01*
X187220821Y-148034793D01*
X187272929Y-148027202D01*
X187321497Y-148023627D01*
X187322403Y-148023614D01*
X187369554Y-148023945D01*
X187423769Y-148025498D01*
X187429770Y-148025750D01*
X187489086Y-148025925D01*
X187552734Y-148022339D01*
X187611136Y-148015948D01*
X187654713Y-148007705D01*
X187670620Y-148001762D01*
X187699914Y-147993668D01*
X187728426Y-147992825D01*
X187758550Y-147991971D01*
X187811449Y-147987542D01*
X187879525Y-147980269D01*
X187951268Y-147971399D01*
X188030714Y-147961319D01*
X188106067Y-147952436D01*
X188168171Y-147945790D01*
X188204348Y-147942635D01*
X188264430Y-147935222D01*
X188324561Y-147922700D01*
X188334722Y-147919864D01*
X188385377Y-147907065D01*
X188448902Y-147893987D01*
X188488104Y-147887212D01*
X188543038Y-147877707D01*
X188589257Y-147868127D01*
X188610809Y-147862383D01*
X188644644Y-147855307D01*
X188660177Y-147855526D01*
X188681831Y-147846777D01*
X188698378Y-147827856D01*
X188730649Y-147802257D01*
X188768889Y-147796618D01*
X188821983Y-147789329D01*
X188868983Y-147770741D01*
X188895397Y-147748426D01*
X188914392Y-147739164D01*
X188953337Y-147729946D01*
X188979757Y-147725879D01*
X189031973Y-147715878D01*
X189076271Y-147701720D01*
X189089587Y-147695085D01*
X189128535Y-147678473D01*
X189155757Y-147673913D01*
X189186469Y-147667631D01*
X189233254Y-147651338D01*
X189275167Y-147633436D01*
X189336270Y-147609581D01*
X189399962Y-147591595D01*
X189435235Y-147585470D01*
X189483274Y-147576570D01*
X189506582Y-147563095D01*
X189508092Y-147558144D01*
X189521363Y-147541346D01*
X189553376Y-147528364D01*
X189554264Y-147528166D01*
X189593705Y-147515189D01*
X189619451Y-147500074D01*
X189643990Y-147484272D01*
X189685879Y-147463553D01*
X189714560Y-147451212D01*
X189761442Y-147429303D01*
X189788252Y-147406199D01*
X189804505Y-147372603D01*
X189808708Y-147359214D01*
X189824096Y-147316693D01*
X189847297Y-147263195D01*
X189874369Y-147206629D01*
X189901366Y-147154906D01*
X189924344Y-147115936D01*
X189939046Y-147097814D01*
X189950975Y-147079045D01*
X189964635Y-147042227D01*
X189968225Y-147029753D01*
X189983655Y-146985924D01*
X190001408Y-146953337D01*
X190005117Y-146949006D01*
X190022909Y-146919843D01*
X190036753Y-146878627D01*
X190036835Y-146878258D01*
X190050350Y-146841550D01*
X190068208Y-146820483D01*
X190069381Y-146819967D01*
X190084989Y-146798603D01*
X190090934Y-146753977D01*
X190090942Y-146751982D01*
X190094431Y-146714174D01*
X190103120Y-146693553D01*
X190106280Y-146692270D01*
X190119002Y-146679510D01*
X190121618Y-146663472D01*
X190132759Y-146629432D01*
X190144220Y-146615916D01*
X190162493Y-146588509D01*
X190176109Y-146547501D01*
X190176673Y-146544641D01*
X190190384Y-146503288D01*
X190210249Y-146474395D01*
X190211590Y-146473326D01*
X190229702Y-146444591D01*
X190240779Y-146396180D01*
X190241792Y-146385507D01*
X190249353Y-146335636D01*
X190262050Y-146294419D01*
X190266779Y-146285344D01*
X190281084Y-146253307D01*
X190296808Y-146203946D01*
X190306263Y-146166473D01*
X190319729Y-146119434D01*
X190334475Y-146087622D01*
X190344695Y-146078744D01*
X190357642Y-146064312D01*
X190369043Y-146024641D01*
X190374434Y-145990549D01*
X190384171Y-145934459D01*
X190397390Y-145885416D01*
X190406185Y-145864009D01*
X190421057Y-145827128D01*
X190438719Y-145769672D01*
X190456792Y-145701306D01*
X190472897Y-145631691D01*
X190484657Y-145570493D01*
X190489692Y-145527374D01*
X190489734Y-145524555D01*
X190494777Y-145490234D01*
X190505072Y-145472886D01*
X190514646Y-145452901D01*
X190520060Y-145414357D01*
X190520505Y-145399125D01*
X190526637Y-145345349D01*
X190541612Y-145295812D01*
X190544987Y-145288828D01*
X190559234Y-145244911D01*
X190570025Y-145178371D01*
X190577094Y-145097095D01*
X190580177Y-145008971D01*
X190579008Y-144921886D01*
X190573323Y-144843726D01*
X190562857Y-144782380D01*
X190562092Y-144779484D01*
X190552061Y-144729602D01*
X190542258Y-144658334D01*
X190533769Y-144574954D01*
X190527683Y-144488740D01*
X190527412Y-144483575D01*
X190521343Y-144387384D01*
X190513908Y-144316314D01*
X190504277Y-144264816D01*
X190491620Y-144227337D01*
X190487934Y-144219602D01*
X190468874Y-144169300D01*
X190459317Y-144119128D01*
X190459058Y-144111814D01*
X190451362Y-144064217D01*
X190434007Y-144025167D01*
X190419134Y-143992686D01*
X190403362Y-143940543D01*
X190389892Y-143879478D01*
X190388855Y-143873646D01*
X190377634Y-143817189D01*
X190366264Y-143773305D01*
X190356914Y-143750133D01*
X190355600Y-143748781D01*
X190342936Y-143730087D01*
X190325392Y-143692663D01*
X190315585Y-143668026D01*
X190295452Y-143622219D01*
X190274900Y-143587434D01*
X190266524Y-143577953D01*
X190247419Y-143550407D01*
X190244323Y-143535777D01*
X190236409Y-143506360D01*
X190213065Y-143452041D01*
X190174888Y-143374075D01*
X190122477Y-143273718D01*
X190096717Y-143225845D01*
X190060871Y-143165577D01*
X190017961Y-143102128D01*
X189973352Y-143042590D01*
X189932412Y-142994058D01*
X189900507Y-142963623D01*
X189895954Y-142960500D01*
X189878117Y-142941518D01*
X189876208Y-142934427D01*
X189868040Y-142914900D01*
X189847264Y-142879247D01*
X189819470Y-142836038D01*
X189790248Y-142793842D01*
X189765189Y-142761228D01*
X189757963Y-142753173D01*
X189729686Y-142738511D01*
X189690080Y-142732085D01*
X189652976Y-142734738D01*
X189633170Y-142745558D01*
X189613907Y-142759478D01*
X189575974Y-142777956D01*
X189550489Y-142788280D01*
X189504707Y-142808313D01*
X189470127Y-142828340D01*
X189460417Y-142836723D01*
X189433937Y-142855084D01*
X189421184Y-142857729D01*
X189396143Y-142867504D01*
X189363132Y-142891490D01*
X189358032Y-142896075D01*
X189325403Y-142921538D01*
X189299133Y-142934131D01*
X189296325Y-142934420D01*
X189271972Y-142943158D01*
X189236423Y-142964915D01*
X189225699Y-142972766D01*
X189183269Y-142997650D01*
X189142058Y-143010591D01*
X189134693Y-143011111D01*
X189104735Y-143015341D01*
X189093961Y-143024156D01*
X189081702Y-143039239D01*
X189050717Y-143062714D01*
X189009697Y-143089211D01*
X188967330Y-143113359D01*
X188932307Y-143129785D01*
X188916553Y-143133816D01*
X188896782Y-143140755D01*
X188894565Y-143146124D01*
X188881388Y-143157712D01*
X188847513Y-143174362D01*
X188817180Y-143186260D01*
X188769797Y-143205305D01*
X188733301Y-143223561D01*
X188721316Y-143231927D01*
X188698951Y-143246908D01*
X188658212Y-143269173D01*
X188607701Y-143294568D01*
X188556017Y-143318943D01*
X188511761Y-143338144D01*
X188483532Y-143348021D01*
X188479746Y-143348551D01*
X188465517Y-143360243D01*
X188465096Y-143363889D01*
X188452250Y-143376351D01*
X188434420Y-143379227D01*
X188409496Y-143385650D01*
X188403744Y-143394565D01*
X188391287Y-143408094D01*
X188380255Y-143409903D01*
X188354568Y-143422296D01*
X188348082Y-143432534D01*
X188329512Y-143453182D01*
X188295118Y-143476796D01*
X188257806Y-143495582D01*
X188233185Y-143501932D01*
X188215065Y-143509726D01*
X188178824Y-143530285D01*
X188131876Y-143559372D01*
X188125796Y-143563285D01*
X188075399Y-143593475D01*
X188031805Y-143615377D01*
X188003871Y-143624582D01*
X188002574Y-143624638D01*
X187978962Y-143630976D01*
X187974275Y-143638707D01*
X187961229Y-143651908D01*
X187928054Y-143669646D01*
X187905471Y-143679053D01*
X187860774Y-143698999D01*
X187827367Y-143719028D01*
X187819233Y-143726336D01*
X187790700Y-143743366D01*
X187767210Y-143747343D01*
X187731405Y-143756632D01*
X187714196Y-143769543D01*
X187689486Y-143787870D01*
X187647714Y-143809156D01*
X187624124Y-143818872D01*
X187572596Y-143842851D01*
X187527154Y-143871308D01*
X187514130Y-143882053D01*
X187479004Y-143908117D01*
X187428199Y-143937901D01*
X187387590Y-143958019D01*
X187341848Y-143980582D01*
X187309969Y-143999863D01*
X187299396Y-144010682D01*
X187286694Y-144021666D01*
X187272554Y-144023771D01*
X187241790Y-144033076D01*
X187207367Y-144054106D01*
X187162134Y-144080037D01*
X187121291Y-144078646D01*
X187080476Y-144054106D01*
X187044047Y-144032302D01*
X187012278Y-144023430D01*
X186979168Y-144013390D01*
X186952948Y-143995358D01*
X186915943Y-143972085D01*
X186873063Y-143957336D01*
X186832605Y-143945596D01*
X186804627Y-143931213D01*
X186804439Y-143931051D01*
X186783960Y-143916870D01*
X186743323Y-143891280D01*
X186688919Y-143858241D01*
X186641940Y-143830376D01*
X186580764Y-143793628D01*
X186528033Y-143760435D01*
X186490359Y-143735046D01*
X186475959Y-143723682D01*
X186443461Y-143705995D01*
X186415659Y-143701328D01*
X186378355Y-143690734D01*
X186341616Y-143665231D01*
X186341353Y-143664969D01*
X186303717Y-143636062D01*
X186266432Y-143618932D01*
X186227575Y-143602787D01*
X186205643Y-143587026D01*
X186174370Y-143566935D01*
X186139383Y-143554211D01*
X186096714Y-143536390D01*
X186067911Y-143515109D01*
X186038746Y-143493211D01*
X186018070Y-143486594D01*
X185993330Y-143479833D01*
X185953311Y-143462768D01*
X185907506Y-143440226D01*
X185865411Y-143417036D01*
X185836521Y-143398025D01*
X185829519Y-143390730D01*
X185811937Y-143381121D01*
X185794978Y-143379227D01*
X185770756Y-143372555D01*
X185765580Y-143363889D01*
X185753012Y-143350637D01*
X185740346Y-143348551D01*
X185711332Y-143340482D01*
X185671737Y-143320294D01*
X185630803Y-143294012D01*
X185597771Y-143267661D01*
X185581883Y-143247266D01*
X185581549Y-143245018D01*
X185568146Y-143231024D01*
X185537782Y-143225845D01*
X185489718Y-143212124D01*
X185445893Y-143179831D01*
X185412565Y-143151479D01*
X185386432Y-143135280D01*
X185380623Y-143133816D01*
X185356790Y-143127215D01*
X185315879Y-143110312D01*
X185266817Y-143087459D01*
X185218527Y-143063008D01*
X185179935Y-143041312D01*
X185159966Y-143026722D01*
X185159414Y-143025951D01*
X185137923Y-143013181D01*
X185122612Y-143011111D01*
X185093332Y-143002840D01*
X185053081Y-142982110D01*
X185038476Y-142972766D01*
X184999277Y-142949220D01*
X184968034Y-142935693D01*
X184960740Y-142934420D01*
X184931772Y-142924735D01*
X184918648Y-142915247D01*
X184880145Y-142886595D01*
X184838577Y-142865065D01*
X184810064Y-142857729D01*
X184787625Y-142847698D01*
X184754457Y-142822355D01*
X184738774Y-142807880D01*
X184703808Y-142777763D01*
X184670461Y-142762933D01*
X184624922Y-142758236D01*
X184605167Y-142758031D01*
X184563205Y-142759025D01*
X184533014Y-142765094D01*
X184506047Y-142780867D01*
X184473757Y-142810978D01*
X184438508Y-142848330D01*
X184398938Y-142894063D01*
X184369388Y-142934344D01*
X184355063Y-142961899D01*
X184354468Y-142965762D01*
X184344336Y-142989712D01*
X184317694Y-143027058D01*
X184280172Y-143069966D01*
X184277778Y-143072464D01*
X184239759Y-143115709D01*
X184212323Y-143154166D01*
X184201120Y-143179858D01*
X184201087Y-143180736D01*
X184191417Y-143209301D01*
X184167108Y-143247137D01*
X184155072Y-143261847D01*
X184127003Y-143299309D01*
X184110712Y-143331683D01*
X184109058Y-143340539D01*
X184100616Y-143371227D01*
X184080562Y-143407535D01*
X184056432Y-143451109D01*
X184042217Y-143490429D01*
X184030605Y-143539980D01*
X184022412Y-143574788D01*
X184011899Y-143608173D01*
X184002455Y-143624638D01*
X183981466Y-143650949D01*
X183955258Y-143697951D01*
X183927717Y-143757042D01*
X183902733Y-143819619D01*
X183884191Y-143877081D01*
X183879411Y-143896890D01*
X183867493Y-143946215D01*
X183855981Y-143980815D01*
X183847955Y-143992753D01*
X183839315Y-144006447D01*
X183830208Y-144041301D01*
X183826087Y-144065610D01*
X183814189Y-144123409D01*
X183795404Y-144189612D01*
X183783915Y-144222826D01*
X183765145Y-144287440D01*
X183752714Y-144367753D01*
X183745526Y-144470964D01*
X183745323Y-144475906D01*
X183740150Y-144556983D01*
X183732085Y-144626640D01*
X183722140Y-144677172D01*
X183716793Y-144692828D01*
X183705946Y-144731818D01*
X183698273Y-144789520D01*
X183693656Y-144859995D01*
X183691976Y-144937302D01*
X182951823Y-144937302D01*
X182959581Y-144859360D01*
X182968149Y-144798301D01*
X182974797Y-144745787D01*
X182980210Y-144694344D01*
X182985072Y-144636497D01*
X182990067Y-144564770D01*
X182995879Y-144471688D01*
X182997478Y-144445229D01*
X183004391Y-144353927D01*
X183012591Y-144285655D01*
X183021670Y-144243249D01*
X183028303Y-144230495D01*
X183038513Y-144209156D01*
X183049771Y-144165194D01*
X183060215Y-144106522D01*
X183063952Y-144079057D01*
X183073526Y-144015421D01*
X183084679Y-143962037D01*
X183095525Y-143927339D01*
X183099400Y-143920525D01*
X183111299Y-143893612D01*
X183122522Y-143847631D01*
X183128589Y-143808436D01*
X183141528Y-143743842D01*
X183161981Y-143689419D01*
X183171633Y-143673175D01*
X183198410Y-143612243D01*
X183204106Y-143564752D01*
X183207116Y-143525790D01*
X183214656Y-143503765D01*
X183217978Y-143501932D01*
X183230760Y-143488905D01*
X183249801Y-143455104D01*
X183266815Y-143417572D01*
X183287344Y-143372699D01*
X183305036Y-143342102D01*
X183314296Y-143333212D01*
X183323154Y-143319893D01*
X183326811Y-143288103D01*
X183331229Y-143252906D01*
X183341178Y-143234115D01*
X183358624Y-143213434D01*
X183379312Y-143177053D01*
X183396513Y-143138284D01*
X183403502Y-143110830D01*
X183413940Y-143087775D01*
X183434719Y-143064305D01*
X183455276Y-143037131D01*
X183458438Y-143016513D01*
X183463360Y-142994678D01*
X183484047Y-142959568D01*
X183503912Y-142933569D01*
X183533966Y-142892402D01*
X183553162Y-142856129D01*
X183556884Y-142840940D01*
X183567245Y-142808727D01*
X183587560Y-142781038D01*
X183610311Y-142750672D01*
X183618237Y-142727355D01*
X183626720Y-142706946D01*
X183633954Y-142704348D01*
X183650622Y-142691684D01*
X183663627Y-142667645D01*
X183680878Y-142637399D01*
X183712171Y-142594585D01*
X183747379Y-142552354D01*
X183784659Y-142506457D01*
X183813433Y-142463822D01*
X183826736Y-142435675D01*
X183841254Y-142407013D01*
X183857641Y-142397584D01*
X183876910Y-142385801D01*
X183878985Y-142376954D01*
X183889498Y-142351925D01*
X183909662Y-142328563D01*
X183934454Y-142289026D01*
X183938171Y-142242639D01*
X183920444Y-142202144D01*
X183913496Y-142195175D01*
X183884137Y-142174201D01*
X183840559Y-142147573D01*
X183818566Y-142135280D01*
X183766597Y-142102260D01*
X183765317Y-142101280D01*
X185122050Y-142101280D01*
X185125394Y-142146507D01*
X185141487Y-142176357D01*
X185171010Y-142200978D01*
X185237946Y-142244714D01*
X185289695Y-142269634D01*
X185314857Y-142274879D01*
X185334127Y-142283075D01*
X185336111Y-142289028D01*
X185349221Y-142302350D01*
X185381832Y-142317982D01*
X185393205Y-142322019D01*
X185436181Y-142339786D01*
X185468280Y-142359201D01*
X185471745Y-142362307D01*
X185502738Y-142381497D01*
X185535509Y-142392216D01*
X185570503Y-142407815D01*
X185613317Y-142438349D01*
X185637193Y-142459980D01*
X185675771Y-142493431D01*
X185710587Y-142515167D01*
X185726246Y-142519785D01*
X185761275Y-142508587D01*
X185796831Y-142480813D01*
X185821738Y-142446774D01*
X185826932Y-142426865D01*
X185834376Y-142401354D01*
X185842060Y-142395028D01*
X185852380Y-142378128D01*
X185862046Y-142340614D01*
X185866205Y-142313224D01*
X185876027Y-142254970D01*
X185890023Y-142199447D01*
X185895641Y-142182850D01*
X185915502Y-142130393D01*
X185934654Y-142079463D01*
X185934709Y-142079317D01*
X185955169Y-142040715D01*
X185974852Y-142032280D01*
X185991654Y-142053534D01*
X186002107Y-142094656D01*
X186014274Y-142152241D01*
X186031614Y-142214324D01*
X186036428Y-142228865D01*
X186051021Y-142281810D01*
X186064540Y-142349020D01*
X186072467Y-142403384D01*
X186080604Y-142457475D01*
X186090410Y-142498699D01*
X186099794Y-142518300D01*
X186099977Y-142518420D01*
X186110773Y-142537587D01*
X186123127Y-142577643D01*
X186132336Y-142619628D01*
X186159423Y-142701681D01*
X186205372Y-142761378D01*
X186268554Y-142796828D01*
X186289594Y-142802248D01*
X186334779Y-142819730D01*
X186366133Y-142841303D01*
X186406218Y-142867533D01*
X186443837Y-142881478D01*
X186485343Y-142899467D01*
X186526294Y-142930109D01*
X186529958Y-142933771D01*
X186573386Y-142968221D01*
X186624125Y-142995117D01*
X186628351Y-142996700D01*
X186664769Y-143013981D01*
X186684633Y-143031683D01*
X186685869Y-143035981D01*
X186699200Y-143051568D01*
X186731697Y-143064551D01*
X186735718Y-143065483D01*
X186785455Y-143082694D01*
X186826281Y-143105047D01*
X186864544Y-143125543D01*
X186897859Y-143133816D01*
X186925414Y-143139634D01*
X186933836Y-143147307D01*
X186949452Y-143162128D01*
X186982846Y-143183727D01*
X187000075Y-143193322D01*
X187081239Y-143220394D01*
X187170584Y-143223174D01*
X187238058Y-143208204D01*
X187281377Y-143188031D01*
X187315203Y-143164021D01*
X187315539Y-143163688D01*
X187342583Y-143143764D01*
X187387976Y-143117063D01*
X187442037Y-143089269D01*
X187443610Y-143088517D01*
X187492772Y-143063457D01*
X187528753Y-143042073D01*
X187544590Y-143028554D01*
X187544807Y-143027626D01*
X187558351Y-143017590D01*
X187592205Y-143007783D01*
X187606159Y-143005221D01*
X187644509Y-142996004D01*
X187665906Y-142984871D01*
X187667512Y-142981443D01*
X187680640Y-142968318D01*
X187713321Y-142952878D01*
X187725030Y-142948778D01*
X187765224Y-142931675D01*
X187791947Y-142912997D01*
X187794814Y-142909243D01*
X187819596Y-142890504D01*
X187831463Y-142888406D01*
X187857358Y-142880739D01*
X187898315Y-142860987D01*
X187930629Y-142842391D01*
X187972455Y-142817433D01*
X188002878Y-142800722D01*
X188013260Y-142796377D01*
X188034372Y-142785242D01*
X188064600Y-142757883D01*
X188095699Y-142723365D01*
X188119424Y-142690753D01*
X188127657Y-142670596D01*
X188134374Y-142638831D01*
X188151048Y-142595970D01*
X188156402Y-142584866D01*
X188172255Y-142540254D01*
X188186340Y-142477304D01*
X188195925Y-142408338D01*
X188196210Y-142405253D01*
X188204697Y-142339325D01*
X188216259Y-142287579D01*
X188229072Y-142258089D01*
X188229613Y-142257454D01*
X188243465Y-142229954D01*
X188257874Y-142182547D01*
X188269136Y-142128666D01*
X188278483Y-142074452D01*
X188285730Y-142046056D01*
X188293786Y-142039034D01*
X188305561Y-142048941D01*
X188314355Y-142059596D01*
X188335182Y-142094948D01*
X188342391Y-142123197D01*
X188348425Y-142147194D01*
X188356067Y-142152174D01*
X188370146Y-142166889D01*
X188383450Y-142208548D01*
X188394905Y-142273419D01*
X188397939Y-142297886D01*
X188408555Y-142348584D01*
X188427527Y-142403901D01*
X188451118Y-142455943D01*
X188475588Y-142496815D01*
X188497200Y-142518621D01*
X188503243Y-142520290D01*
X188523806Y-142513840D01*
X188526449Y-142508300D01*
X188539769Y-142497314D01*
X188573583Y-142483020D01*
X188595605Y-142475891D01*
X188646615Y-142456887D01*
X188690913Y-142433938D01*
X188701557Y-142426528D01*
X188738378Y-142405385D01*
X188769539Y-142397584D01*
X188799371Y-142391018D01*
X188809976Y-142382618D01*
X188827120Y-142366533D01*
X188861131Y-142341062D01*
X188903458Y-142311926D01*
X188941591Y-142287396D01*
X190331284Y-142287396D01*
X190344673Y-142311685D01*
X190363159Y-142337009D01*
X190367029Y-142349605D01*
X190378008Y-142370434D01*
X190393871Y-142385444D01*
X190423521Y-142413709D01*
X190436051Y-142430034D01*
X190478551Y-142495411D01*
X190514571Y-142546979D01*
X190540624Y-142579885D01*
X190550055Y-142588674D01*
X190566717Y-142608109D01*
X190586797Y-142642843D01*
X190589056Y-142647481D01*
X190611094Y-142686289D01*
X190644301Y-142736698D01*
X190673826Y-142777515D01*
X190705180Y-142820977D01*
X190727285Y-142855679D01*
X190735145Y-142873379D01*
X190745176Y-142888032D01*
X190748028Y-142888406D01*
X190760310Y-142901548D01*
X190775723Y-142934515D01*
X190781159Y-142949758D01*
X190796406Y-142987594D01*
X190810453Y-143009182D01*
X190814291Y-143011111D01*
X190826857Y-143022808D01*
X190827174Y-143026113D01*
X190833189Y-143045585D01*
X190848934Y-143084961D01*
X190870960Y-143136446D01*
X190895815Y-143192244D01*
X190920050Y-143244559D01*
X190940215Y-143285595D01*
X190949510Y-143302536D01*
X190979603Y-143356865D01*
X191009093Y-143417869D01*
X191034303Y-143476985D01*
X191051557Y-143525648D01*
X191057246Y-143553554D01*
X191066191Y-143592692D01*
X191080253Y-143614777D01*
X191099314Y-143644151D01*
X191103261Y-143661132D01*
X191107498Y-143702657D01*
X191118234Y-143754565D01*
X191132509Y-143805760D01*
X191147361Y-143845146D01*
X191156185Y-143859429D01*
X191167106Y-143883579D01*
X191177685Y-143929040D01*
X191185815Y-143986497D01*
X191186494Y-143993415D01*
X191193424Y-144049058D01*
X191201932Y-144091264D01*
X191210348Y-144112085D01*
X191211579Y-144112902D01*
X191221333Y-144130096D01*
X191225916Y-144165204D01*
X191225966Y-144169515D01*
X191229478Y-144206785D01*
X191238027Y-144228332D01*
X191238978Y-144229057D01*
X191245071Y-144246770D01*
X191251474Y-144288480D01*
X191257340Y-144347529D01*
X191261061Y-144402517D01*
X191266485Y-144476298D01*
X191273894Y-144543610D01*
X191282168Y-144595453D01*
X191287778Y-144617447D01*
X191293082Y-144649362D01*
X191296460Y-144705601D01*
X191297984Y-144779876D01*
X191297729Y-144865899D01*
X191295768Y-144957382D01*
X191292175Y-145048037D01*
X191287025Y-145131578D01*
X191280968Y-145196799D01*
X191276527Y-145238857D01*
X191270418Y-145301285D01*
X191263623Y-145373892D01*
X191259918Y-145414843D01*
X191252577Y-145482599D01*
X191243985Y-145539797D01*
X191235405Y-145578917D01*
X191230320Y-145591232D01*
X191219738Y-145616794D01*
X191209328Y-145661280D01*
X191203990Y-145695290D01*
X191191705Y-145758855D01*
X191172920Y-145822885D01*
X191163399Y-145847249D01*
X191142625Y-145903981D01*
X191127412Y-145962645D01*
X191124871Y-145977623D01*
X191116225Y-146025760D01*
X191105820Y-146065208D01*
X191103647Y-146071075D01*
X191086136Y-146118226D01*
X191063669Y-146184805D01*
X191039486Y-146260681D01*
X191016825Y-146335721D01*
X191000673Y-146393176D01*
X190984472Y-146445990D01*
X190967574Y-146488719D01*
X190956371Y-146508285D01*
X190943068Y-146536223D01*
X190930942Y-146582060D01*
X190925923Y-146611818D01*
X190917678Y-146656712D01*
X190907922Y-146685916D01*
X190901889Y-146692270D01*
X190891209Y-146704483D01*
X190889099Y-146730715D01*
X190896180Y-146755356D01*
X190899229Y-146759213D01*
X190921165Y-146764205D01*
X190931160Y-146761769D01*
X190958779Y-146754253D01*
X190965438Y-146753623D01*
X190979987Y-146740986D01*
X190988224Y-146722947D01*
X191002758Y-146698137D01*
X191014060Y-146692270D01*
X191032883Y-146682025D01*
X191064340Y-146655636D01*
X191089700Y-146630918D01*
X191124333Y-146597195D01*
X191150880Y-146574903D01*
X191160762Y-146569546D01*
X191178837Y-146560394D01*
X191209054Y-146537758D01*
X191216848Y-146531201D01*
X191248179Y-146506452D01*
X191269617Y-146493450D01*
X191272140Y-146492874D01*
X191287861Y-146482961D01*
X191318367Y-146457076D01*
X191353884Y-146423852D01*
X191391701Y-146388364D01*
X191420736Y-146363455D01*
X191434003Y-146354831D01*
X191450212Y-146344256D01*
X191478332Y-146317860D01*
X191510936Y-146283638D01*
X191540598Y-146249583D01*
X191559892Y-146223689D01*
X191563406Y-146215536D01*
X191575104Y-146201839D01*
X191578666Y-146201449D01*
X191596828Y-146191254D01*
X191628383Y-146165238D01*
X191666253Y-146130257D01*
X191703364Y-146093166D01*
X191732639Y-146060820D01*
X191747003Y-146040075D01*
X191747464Y-146037917D01*
X191758260Y-146020531D01*
X191785045Y-145993904D01*
X191793478Y-145986715D01*
X191823181Y-145957580D01*
X191838796Y-145933293D01*
X191839493Y-145929365D01*
X191846969Y-145911401D01*
X191851353Y-145910024D01*
X191869669Y-145899318D01*
X191903241Y-145870589D01*
X191947149Y-145828921D01*
X191996473Y-145779399D01*
X192046293Y-145727108D01*
X192091688Y-145677131D01*
X192127739Y-145634552D01*
X192149524Y-145604457D01*
X192152414Y-145598921D01*
X192173791Y-145563125D01*
X192209571Y-145515893D01*
X192252180Y-145467189D01*
X192254046Y-145465217D01*
X192298034Y-145414382D01*
X192336419Y-145362089D01*
X192360916Y-145319628D01*
X192360970Y-145319505D01*
X192389074Y-145269050D01*
X192426922Y-145217184D01*
X192439556Y-145202807D01*
X192499329Y-145136205D01*
X192539126Y-145084650D01*
X192562345Y-145043320D01*
X192570835Y-145016576D01*
X192583385Y-144985987D01*
X192599430Y-144974396D01*
X192615836Y-144961060D01*
X192629249Y-144928552D01*
X192630188Y-144924547D01*
X192647182Y-144876689D01*
X192669752Y-144838119D01*
X192690668Y-144802551D01*
X192698430Y-144773551D01*
X192708643Y-144747717D01*
X192734957Y-144710705D01*
X192759782Y-144682971D01*
X192794532Y-144641683D01*
X192816604Y-144604014D01*
X192821135Y-144586331D01*
X192831228Y-144552858D01*
X192856019Y-144514927D01*
X192860978Y-144509314D01*
X192892554Y-144464946D01*
X192914664Y-144416102D01*
X192915382Y-144413607D01*
X192930186Y-144378719D01*
X192947702Y-144361314D01*
X192950489Y-144360869D01*
X192962497Y-144347505D01*
X192975044Y-144314937D01*
X192985305Y-144274455D01*
X192990457Y-144237346D01*
X192987675Y-144214899D01*
X192987171Y-144214237D01*
X192971548Y-144196794D01*
X192940520Y-144162592D01*
X192899421Y-144117471D01*
X192853589Y-144067273D01*
X192808359Y-144017840D01*
X192769067Y-143975013D01*
X192741051Y-143944633D01*
X192732941Y-143935939D01*
X192708974Y-143907734D01*
X192697803Y-143889137D01*
X192697720Y-143888524D01*
X192686183Y-143873631D01*
X192657604Y-143847795D01*
X192637600Y-143831703D01*
X192600492Y-143798272D01*
X192574744Y-143766457D01*
X192569242Y-143755012D01*
X192554168Y-143726040D01*
X192527167Y-143689781D01*
X192495983Y-143655073D01*
X192468359Y-143630753D01*
X192454999Y-143624638D01*
X192437089Y-143613228D01*
X192417956Y-143590127D01*
X192396600Y-143563376D01*
X192360225Y-143522545D01*
X192315597Y-143475152D01*
X192301156Y-143460316D01*
X192258969Y-143416117D01*
X192226491Y-143379768D01*
X192208746Y-143356991D01*
X192206898Y-143352949D01*
X192195302Y-143337363D01*
X192166556Y-143311135D01*
X192146256Y-143294867D01*
X192111270Y-143265170D01*
X192089317Y-143241096D01*
X192085613Y-143233202D01*
X192075442Y-143215830D01*
X192048714Y-143182065D01*
X192010116Y-143137643D01*
X191985295Y-143110496D01*
X191942301Y-143063174D01*
X191908614Y-143023975D01*
X191888855Y-142998391D01*
X191885597Y-142992034D01*
X191875121Y-142976665D01*
X191847662Y-142946405D01*
X191809032Y-142906892D01*
X191765041Y-142863763D01*
X191721502Y-142822658D01*
X191684226Y-142789215D01*
X191659023Y-142769070D01*
X191652315Y-142765700D01*
X191640603Y-142753783D01*
X191640096Y-142749048D01*
X191633852Y-142733243D01*
X191613730Y-142706001D01*
X191577644Y-142664954D01*
X191523508Y-142607738D01*
X191449239Y-142531989D01*
X191444535Y-142527245D01*
X191401850Y-142483282D01*
X191368944Y-142447620D01*
X191350748Y-142425684D01*
X191348671Y-142421762D01*
X191339168Y-142405261D01*
X191321830Y-142385340D01*
X191296087Y-142357922D01*
X191260328Y-142318721D01*
X191239800Y-142295846D01*
X191203958Y-142258966D01*
X191172418Y-142232104D01*
X191159275Y-142224212D01*
X191137436Y-142203315D01*
X191133937Y-142189177D01*
X191123555Y-142168925D01*
X191095316Y-142132720D01*
X191053584Y-142085759D01*
X191004806Y-142035314D01*
X190947393Y-141979265D01*
X190905676Y-141942043D01*
X190874485Y-141919991D01*
X190848649Y-141909451D01*
X190823125Y-141906763D01*
X190769805Y-141917970D01*
X190742814Y-141937439D01*
X190714865Y-141960510D01*
X190694422Y-141968116D01*
X190668241Y-141978091D01*
X190646444Y-141994958D01*
X190617578Y-142020329D01*
X190576598Y-142053079D01*
X190558250Y-142066968D01*
X190519989Y-142097484D01*
X190492107Y-142123546D01*
X190485137Y-142132155D01*
X190465403Y-142150212D01*
X190457648Y-142152174D01*
X190433279Y-142161124D01*
X190423900Y-142167796D01*
X190398078Y-142189496D01*
X190373633Y-142209976D01*
X190338764Y-142250112D01*
X190331284Y-142287396D01*
X188941591Y-142287396D01*
X188945552Y-142284848D01*
X188978861Y-142265551D01*
X188993861Y-142259541D01*
X189019209Y-142250323D01*
X189056781Y-142227451D01*
X189096788Y-142198099D01*
X189129438Y-142169443D01*
X189144884Y-142148872D01*
X189149585Y-142108646D01*
X189147791Y-142056913D01*
X189140809Y-142006185D01*
X189129949Y-141968974D01*
X189125266Y-141961204D01*
X189114252Y-141936457D01*
X189101163Y-141890224D01*
X189088415Y-141831368D01*
X189085465Y-141815156D01*
X189073161Y-141752659D01*
X189060045Y-141698693D01*
X189048556Y-141663043D01*
X189046421Y-141658502D01*
X189035495Y-141626589D01*
X189024381Y-141575881D01*
X189016553Y-141525191D01*
X189007897Y-141473126D01*
X188997390Y-141434803D01*
X188987649Y-141418850D01*
X188974394Y-141401075D01*
X188971256Y-141381076D01*
X188967826Y-141339887D01*
X188958975Y-141280725D01*
X188946855Y-141215344D01*
X188933624Y-141155494D01*
X188922808Y-141116848D01*
X188912367Y-141079002D01*
X188899498Y-141022600D01*
X188886856Y-140959338D01*
X188885960Y-140954471D01*
X188872437Y-140891345D01*
X188856833Y-140834449D01*
X188842357Y-140795381D01*
X188841368Y-140793421D01*
X188826517Y-140749199D01*
X188818385Y-140694435D01*
X188817874Y-140679710D01*
X188812514Y-140625854D01*
X188799406Y-140577058D01*
X188794772Y-140566755D01*
X188777983Y-140520635D01*
X188771860Y-140479466D01*
X188766948Y-140444702D01*
X188756522Y-140426630D01*
X188747017Y-140406670D01*
X188741636Y-140368055D01*
X188741183Y-140352102D01*
X188738007Y-140308279D01*
X188730064Y-140277550D01*
X188726763Y-140272482D01*
X188717802Y-140259133D01*
X188709753Y-140235158D01*
X188701240Y-140194728D01*
X188690890Y-140132016D01*
X188685918Y-140099328D01*
X188673105Y-140044349D01*
X188654128Y-139993558D01*
X188648598Y-139982876D01*
X188631912Y-139941120D01*
X188617680Y-139883883D01*
X188611459Y-139843780D01*
X188602110Y-139779732D01*
X188588723Y-139712846D01*
X188573260Y-139650701D01*
X188557683Y-139600873D01*
X188543953Y-139570940D01*
X188539649Y-139566372D01*
X188530741Y-139546948D01*
X188526505Y-139510334D01*
X188526449Y-139505435D01*
X188522845Y-139470309D01*
X188514003Y-139453028D01*
X188512330Y-139452657D01*
X188499504Y-139439444D01*
X188488319Y-139407620D01*
X188488216Y-139407152D01*
X188472869Y-139364640D01*
X188447487Y-139316810D01*
X188440982Y-139306773D01*
X188417873Y-139268521D01*
X188404822Y-139238775D01*
X188403744Y-139232575D01*
X188395800Y-139207813D01*
X188375873Y-139170427D01*
X188349819Y-139129358D01*
X188323493Y-139093543D01*
X188302752Y-139071921D01*
X188296714Y-139069203D01*
X188283673Y-139056460D01*
X188281038Y-139040684D01*
X188269847Y-139016202D01*
X188240824Y-138981825D01*
X188208964Y-138952489D01*
X188161159Y-138911146D01*
X188103768Y-138858996D01*
X188048832Y-138806990D01*
X188046396Y-138804619D01*
X188002244Y-138763750D01*
X187964731Y-138732935D01*
X187940310Y-138717355D01*
X187936553Y-138716425D01*
X187912770Y-138708331D01*
X187875966Y-138687993D01*
X187860698Y-138678080D01*
X187822830Y-138654672D01*
X187794342Y-138641101D01*
X187788068Y-138639734D01*
X187763609Y-138632419D01*
X187727854Y-138615010D01*
X187693125Y-138594313D01*
X187671739Y-138577133D01*
X187670068Y-138574547D01*
X187652947Y-138567115D01*
X187616998Y-138563215D01*
X187606950Y-138563043D01*
X187542649Y-138550371D01*
X187506870Y-138529948D01*
X187490025Y-138518230D01*
X187470396Y-138509505D01*
X187443237Y-138503219D01*
X187403801Y-138498816D01*
X187347343Y-138495743D01*
X187269117Y-138493446D01*
X187178866Y-138491632D01*
X187059854Y-138489977D01*
X186968260Y-138490087D01*
X186900861Y-138492244D01*
X186854434Y-138496730D01*
X186825756Y-138503827D01*
X186811603Y-138513815D01*
X186808575Y-138523999D01*
X186794524Y-138540426D01*
X186757489Y-138553726D01*
X186705151Y-138561711D01*
X186671682Y-138563043D01*
X186635610Y-138567870D01*
X186616081Y-138576949D01*
X186591515Y-138594315D01*
X186549431Y-138618755D01*
X186498305Y-138645945D01*
X186446613Y-138671564D01*
X186402829Y-138691287D01*
X186375430Y-138700792D01*
X186372691Y-138701087D01*
X186344961Y-138711382D01*
X186322185Y-138729409D01*
X186288031Y-138755945D01*
X186247399Y-138778060D01*
X186210114Y-138801513D01*
X186186236Y-138829702D01*
X186186046Y-138830124D01*
X186163866Y-138859402D01*
X186128019Y-138889272D01*
X186122783Y-138892674D01*
X186090267Y-138918448D01*
X186072988Y-138942660D01*
X186072223Y-138946497D01*
X186060058Y-138968714D01*
X186030600Y-138999255D01*
X186010990Y-139015519D01*
X185975974Y-139045466D01*
X185954025Y-139070112D01*
X185950348Y-139078359D01*
X185940546Y-139101112D01*
X185918961Y-139130555D01*
X185896957Y-139161868D01*
X185888285Y-139185409D01*
X185879062Y-139209256D01*
X185856390Y-139242633D01*
X185851624Y-139248462D01*
X185830004Y-139283015D01*
X185804351Y-139336665D01*
X185778344Y-139399917D01*
X185755662Y-139463278D01*
X185739984Y-139517252D01*
X185734903Y-139549673D01*
X185727383Y-139571750D01*
X185719565Y-139575362D01*
X185707935Y-139588460D01*
X185704227Y-139612802D01*
X185698571Y-139645279D01*
X185688889Y-139659722D01*
X185679111Y-139679820D01*
X185673844Y-139718008D01*
X185673551Y-139730032D01*
X185668237Y-139779266D01*
X185654598Y-139840142D01*
X185642874Y-139878142D01*
X185626021Y-139933014D01*
X185614879Y-139982557D01*
X185612198Y-140007228D01*
X185607111Y-140041403D01*
X185596860Y-140058514D01*
X185586333Y-140078988D01*
X185581548Y-140115868D01*
X185581522Y-140118899D01*
X185575328Y-140169943D01*
X185560430Y-140221371D01*
X185560367Y-140221526D01*
X185546348Y-140266981D01*
X185533818Y-140326178D01*
X185528685Y-140360652D01*
X185518094Y-140415851D01*
X185502262Y-140463290D01*
X185491196Y-140483357D01*
X185473906Y-140519844D01*
X185463994Y-140577105D01*
X185460883Y-140630619D01*
X185451438Y-140726803D01*
X185429467Y-140796500D01*
X185428023Y-140799339D01*
X185409611Y-140847247D01*
X185394211Y-140908917D01*
X185387997Y-140948128D01*
X185380184Y-140998547D01*
X185370614Y-141035696D01*
X185363109Y-141049569D01*
X185354862Y-141068193D01*
X185345405Y-141109610D01*
X185336388Y-141166074D01*
X185333682Y-141187613D01*
X185323268Y-141255097D01*
X185309292Y-141317581D01*
X185294435Y-141363486D01*
X185291459Y-141369927D01*
X185274522Y-141415867D01*
X185260234Y-141476129D01*
X185254295Y-141515640D01*
X185244414Y-141579845D01*
X185230049Y-141643598D01*
X185220780Y-141674249D01*
X185204456Y-141729646D01*
X185189437Y-141795529D01*
X185183695Y-141827630D01*
X185171384Y-141889507D01*
X185155198Y-141950051D01*
X185146427Y-141975785D01*
X185130453Y-142033116D01*
X185122286Y-142093460D01*
X185122050Y-142101280D01*
X183765317Y-142101280D01*
X183710804Y-142059547D01*
X183685377Y-142037138D01*
X183621440Y-141979109D01*
X183572122Y-141940585D01*
X183531723Y-141918089D01*
X183494539Y-141908147D01*
X183471399Y-141906763D01*
X183437218Y-141909920D01*
X183407658Y-141922809D01*
X183374211Y-141950554D01*
X183339616Y-141986167D01*
X183302966Y-142026959D01*
X183276460Y-142059417D01*
X183265504Y-142076891D01*
X183265459Y-142077352D01*
X183255089Y-142093262D01*
X183228116Y-142122810D01*
X183196437Y-142153825D01*
X183159747Y-142192553D01*
X183134715Y-142227280D01*
X183127415Y-142246698D01*
X183119813Y-142270223D01*
X183110562Y-142274879D01*
X183090226Y-142285593D01*
X183060552Y-142311513D01*
X183030604Y-142343302D01*
X183009450Y-142371624D01*
X183004710Y-142383868D01*
X182993228Y-142397401D01*
X182990994Y-142397584D01*
X182970056Y-142407990D01*
X182939501Y-142433164D01*
X182908666Y-142464037D01*
X182886885Y-142491545D01*
X182882005Y-142503436D01*
X182869902Y-142519256D01*
X182862832Y-142520544D01*
X182843257Y-142531527D01*
X182811885Y-142559785D01*
X182782307Y-142591561D01*
X182743197Y-142635545D01*
X182691798Y-142691828D01*
X182637094Y-142750607D01*
X182617421Y-142771441D01*
X182572988Y-142820440D01*
X182537941Y-142863209D01*
X182517003Y-142893760D01*
X182513178Y-142903654D01*
X182501373Y-142925905D01*
X182472161Y-142956454D01*
X182452536Y-142972766D01*
X182417530Y-143002624D01*
X182395580Y-143027065D01*
X182391894Y-143035187D01*
X182380903Y-143056312D01*
X182356673Y-143082465D01*
X182322366Y-143115634D01*
X182285296Y-143154830D01*
X182282383Y-143158087D01*
X182253654Y-143188511D01*
X182209959Y-143232586D01*
X182158667Y-143282935D01*
X182132836Y-143307810D01*
X182086443Y-143352640D01*
X182049754Y-143388978D01*
X182027518Y-143412066D01*
X182023067Y-143417709D01*
X182013687Y-143432511D01*
X181989456Y-143462891D01*
X181956239Y-143501803D01*
X181919901Y-143542201D01*
X181915700Y-143546716D01*
X181873388Y-143594524D01*
X181833582Y-143643789D01*
X181801279Y-143687841D01*
X181781471Y-143720008D01*
X181777657Y-143731105D01*
X181764866Y-143744444D01*
X181748014Y-143747343D01*
X181719743Y-143760625D01*
X181707838Y-143780529D01*
X181693724Y-143802122D01*
X181661426Y-143840609D01*
X181614881Y-143891633D01*
X181558027Y-143950834D01*
X181515275Y-143993746D01*
X181453271Y-144056438D01*
X181398550Y-144114346D01*
X181355155Y-144162985D01*
X181327132Y-144197874D01*
X181318963Y-144211341D01*
X181313604Y-144247762D01*
X180492433Y-144247762D01*
X180486223Y-144234225D01*
X180474509Y-144177290D01*
X180474392Y-144172977D01*
X180470959Y-144135987D01*
X180463049Y-144116397D01*
X180460659Y-144115459D01*
X180446883Y-144102086D01*
X180430092Y-144068403D01*
X180413846Y-144024064D01*
X180401707Y-143978722D01*
X180397222Y-143943487D01*
X180389116Y-143904123D01*
X180374972Y-143880666D01*
X180354877Y-143849370D01*
X180342181Y-143814383D01*
X180330503Y-143777044D01*
X180319325Y-143754535D01*
X180307160Y-143727949D01*
X180300062Y-143700399D01*
X180284752Y-143632704D01*
X180263298Y-143557835D01*
X180240459Y-143491910D01*
X180233557Y-143475157D01*
X180219834Y-143436402D01*
X180215301Y-143408035D01*
X180215549Y-143406136D01*
X180214934Y-143379668D01*
X180208735Y-143337790D01*
X180206284Y-143325543D01*
X180196933Y-143280648D01*
X180190089Y-143246303D01*
X180189140Y-143241183D01*
X180181247Y-143212922D01*
X180166600Y-143170577D01*
X180161421Y-143156823D01*
X180146213Y-143109925D01*
X180137726Y-143069552D01*
X180137146Y-143061865D01*
X180130050Y-143030711D01*
X180120511Y-143018394D01*
X180111361Y-142997692D01*
X180113744Y-142979560D01*
X180112806Y-142949570D01*
X180100211Y-142904988D01*
X180088757Y-142877318D01*
X180067394Y-142818882D01*
X180053479Y-142757178D01*
X180051170Y-142735024D01*
X180047101Y-142677383D01*
X180040701Y-142610562D01*
X180037384Y-142581642D01*
X180030822Y-142527236D01*
X180024694Y-142473498D01*
X180017912Y-142410549D01*
X180009386Y-142328507D01*
X180007816Y-142313224D01*
X180002459Y-142267518D01*
X179994225Y-142204402D01*
X179984807Y-142136797D01*
X179983898Y-142130517D01*
X179974687Y-142041546D01*
X179976479Y-141970534D01*
X179982466Y-141933673D01*
X179990358Y-141887811D01*
X179992527Y-141854577D01*
X179990821Y-141845508D01*
X179984205Y-141822420D01*
X179976871Y-141778734D01*
X179970068Y-141724464D01*
X179965046Y-141669625D01*
X179963056Y-141624231D01*
X179963056Y-141623007D01*
X179963542Y-141580696D01*
X179963816Y-141566889D01*
X180681728Y-141566889D01*
X180682507Y-141639210D01*
X180684394Y-141715083D01*
X180687274Y-141787737D01*
X180691031Y-141850401D01*
X180694911Y-141891425D01*
X180701997Y-141954133D01*
X180708343Y-142019400D01*
X180709200Y-142029468D01*
X180713213Y-142078333D01*
X180718653Y-142144839D01*
X180724465Y-142216056D01*
X180725508Y-142228865D01*
X180731577Y-142292667D01*
X180738364Y-142347493D01*
X180744656Y-142383945D01*
X180746274Y-142389915D01*
X180753265Y-142424160D01*
X180758486Y-142472737D01*
X180759473Y-142489613D01*
X180765709Y-142551011D01*
X180777265Y-142615381D01*
X180780212Y-142627657D01*
X180792948Y-142681304D01*
X180803141Y-142730950D01*
X180805158Y-142742693D01*
X180822478Y-142841946D01*
X180840217Y-142924348D01*
X180857187Y-142984808D01*
X180867846Y-143011111D01*
X180882905Y-143048090D01*
X180887949Y-143073417D01*
X180894391Y-143101222D01*
X180910494Y-143142974D01*
X180918720Y-143160871D01*
X180937739Y-143208555D01*
X180948497Y-143251657D01*
X180949396Y-143262728D01*
X180958854Y-143323350D01*
X180985500Y-143363389D01*
X181026739Y-143379128D01*
X181030761Y-143379227D01*
X181058014Y-143374435D01*
X181088773Y-143357514D01*
X181128453Y-143324648D01*
X181181681Y-143272813D01*
X181226681Y-143225698D01*
X181262064Y-143185651D01*
X181283087Y-143158206D01*
X181286836Y-143150108D01*
X181299493Y-143136210D01*
X181313677Y-143133640D01*
X181338227Y-143119786D01*
X181364368Y-143083012D01*
X181369829Y-143072288D01*
X181391064Y-143035143D01*
X181410160Y-143013370D01*
X181415843Y-143011006D01*
X181433771Y-142999208D01*
X181459482Y-142969574D01*
X181470894Y-142953488D01*
X181502090Y-142912023D01*
X181545298Y-142860997D01*
X181585930Y-142816972D01*
X181653948Y-142746072D01*
X181709534Y-142686627D01*
X181750147Y-142641443D01*
X181773243Y-142613322D01*
X181777657Y-142605544D01*
X181788287Y-142588540D01*
X181813360Y-142562658D01*
X181842646Y-142537255D01*
X181865919Y-142521686D01*
X181870864Y-142520290D01*
X181888571Y-142507959D01*
X181895685Y-142495017D01*
X181915931Y-142464613D01*
X181957062Y-142420364D01*
X182015109Y-142366403D01*
X182038617Y-142346048D01*
X182074445Y-142310252D01*
X182109591Y-142267452D01*
X182112017Y-142264078D01*
X182143042Y-142224056D01*
X182183879Y-142176000D01*
X182207670Y-142149720D01*
X182240504Y-142112588D01*
X182262584Y-142083941D01*
X182268478Y-142072460D01*
X182279043Y-142054522D01*
X182304626Y-142026440D01*
X182336059Y-141996940D01*
X182364173Y-141974746D01*
X182378120Y-141968116D01*
X182389550Y-141955403D01*
X182391894Y-141941274D01*
X182403770Y-141916737D01*
X182433140Y-141884725D01*
X182452536Y-141868418D01*
X182487614Y-141837968D01*
X182509554Y-141812175D01*
X182513178Y-141803230D01*
X182522842Y-141785381D01*
X182528047Y-141784058D01*
X182544926Y-141774422D01*
X182573378Y-141751134D01*
X182604228Y-141722620D01*
X182628301Y-141697307D01*
X182636594Y-141684360D01*
X182647085Y-141668857D01*
X182672440Y-141642724D01*
X182703485Y-141614389D01*
X182731045Y-141592279D01*
X182745141Y-141584662D01*
X182758625Y-141572733D01*
X182759299Y-141567514D01*
X182769162Y-141545586D01*
X182795369Y-141508278D01*
X182832849Y-141462172D01*
X182876528Y-141413852D01*
X182882413Y-141407733D01*
X182904695Y-141378984D01*
X182912681Y-141358761D01*
X182903904Y-141329666D01*
X182882594Y-141290463D01*
X182856281Y-141252901D01*
X182832496Y-141228725D01*
X182827614Y-141226066D01*
X182807672Y-141206314D01*
X182805314Y-141195661D01*
X182792933Y-141171548D01*
X182782307Y-141164985D01*
X182761928Y-141146033D01*
X182759299Y-141135436D01*
X182749501Y-141114871D01*
X182723571Y-141079262D01*
X182686704Y-141035615D01*
X182678774Y-141026863D01*
X182608406Y-140948744D01*
X182558569Y-140890163D01*
X182527798Y-140849280D01*
X182514627Y-140824249D01*
X182513889Y-140819483D01*
X182504007Y-140803213D01*
X182499740Y-140802415D01*
X182486391Y-140789311D01*
X182470787Y-140756742D01*
X182466894Y-140745761D01*
X182446831Y-140699596D01*
X182422538Y-140661737D01*
X182419690Y-140658509D01*
X182398468Y-140630892D01*
X182391183Y-140613430D01*
X182380952Y-140592799D01*
X182363987Y-140574142D01*
X182335756Y-140540778D01*
X182317366Y-140510990D01*
X182285031Y-140450947D01*
X182256814Y-140409343D01*
X182225522Y-140376103D01*
X182213406Y-140365348D01*
X182177611Y-140340125D01*
X182146819Y-140327342D01*
X182142660Y-140326951D01*
X182111220Y-140333014D01*
X182070207Y-140347341D01*
X182034913Y-140364090D01*
X182023067Y-140372634D01*
X181996487Y-140392750D01*
X181958171Y-140414999D01*
X181927204Y-140428864D01*
X181904422Y-140444622D01*
X181900186Y-140455261D01*
X181887431Y-140471874D01*
X181855511Y-140493307D01*
X181838834Y-140501954D01*
X181801793Y-140522345D01*
X181780051Y-140539428D01*
X181777657Y-140544134D01*
X181764639Y-140554210D01*
X181743146Y-140557071D01*
X181712853Y-140566014D01*
X181669490Y-140589144D01*
X181631944Y-140614589D01*
X181572552Y-140655153D01*
X181504612Y-140696000D01*
X181467680Y-140715735D01*
X181418828Y-140742013D01*
X181380089Y-140766292D01*
X181362270Y-140780922D01*
X181339632Y-140799388D01*
X181329505Y-140802415D01*
X181308304Y-140810694D01*
X181274736Y-140831173D01*
X181266514Y-140836926D01*
X181214999Y-140872300D01*
X181165456Y-140901814D01*
X181103721Y-140933815D01*
X181093782Y-140938730D01*
X181050873Y-140962888D01*
X181018215Y-140986538D01*
X181011379Y-140993383D01*
X180983231Y-141013404D01*
X180966691Y-141017168D01*
X180939454Y-141026659D01*
X180903791Y-141050097D01*
X180896035Y-141056481D01*
X180862814Y-141078691D01*
X180844986Y-141078024D01*
X180846067Y-141056078D01*
X180854751Y-141037707D01*
X180860842Y-140996243D01*
X180853965Y-140971942D01*
X180843989Y-140926019D01*
X180841368Y-140866136D01*
X180845719Y-140805890D01*
X180856659Y-140758872D01*
X180860193Y-140751120D01*
X180868962Y-140723571D01*
X180879647Y-140673470D01*
X180890696Y-140608746D01*
X180897919Y-140558210D01*
X180913842Y-140439570D01*
X180927517Y-140347289D01*
X180940306Y-140277262D01*
X180953573Y-140225384D01*
X180968679Y-140187550D01*
X180986988Y-140159656D01*
X181009861Y-140137596D01*
X181038661Y-140117267D01*
X181045792Y-140112705D01*
X181089755Y-140087043D01*
X181125373Y-140070146D01*
X181140015Y-140066183D01*
X181163213Y-140053821D01*
X181169677Y-140043176D01*
X181188121Y-140022807D01*
X181198316Y-140020169D01*
X181221949Y-140010447D01*
X181254208Y-139986571D01*
X181259481Y-139981823D01*
X181292394Y-139956332D01*
X181319263Y-139943758D01*
X181322134Y-139943478D01*
X181347819Y-139932945D01*
X181370673Y-139913379D01*
X181403771Y-139888206D01*
X181448406Y-139866724D01*
X181453576Y-139864933D01*
X181497220Y-139845409D01*
X181550574Y-139814593D01*
X181585930Y-139790691D01*
X181634813Y-139756670D01*
X181680525Y-139727496D01*
X181704801Y-139713840D01*
X181734474Y-139695388D01*
X181746979Y-139680244D01*
X181746980Y-139680137D01*
X181759708Y-139669415D01*
X181774589Y-139667391D01*
X181810738Y-139654608D01*
X181833023Y-139621597D01*
X181839571Y-139576364D01*
X181828512Y-139526916D01*
X181813705Y-139500047D01*
X181795252Y-139460129D01*
X181783684Y-139410445D01*
X181783061Y-139404637D01*
X181771233Y-139356007D01*
X181749324Y-139317128D01*
X181746786Y-139314419D01*
X181722297Y-139271354D01*
X181719083Y-139241077D01*
X181714474Y-139201711D01*
X181699083Y-139151571D01*
X181689924Y-139130102D01*
X181670326Y-139076022D01*
X181653942Y-139008882D01*
X181646722Y-138962688D01*
X181635655Y-138892775D01*
X181618859Y-138819491D01*
X181606860Y-138779409D01*
X181587966Y-138714234D01*
X181572868Y-138644300D01*
X181568271Y-138613810D01*
X181556843Y-138552072D01*
X181540897Y-138518364D01*
X181521330Y-138513499D01*
X181499034Y-138538292D01*
X181494462Y-138546620D01*
X181474520Y-138578250D01*
X181457875Y-138593476D01*
X181456351Y-138593720D01*
X181443315Y-138606832D01*
X181427817Y-138639478D01*
X181423653Y-138651238D01*
X181406812Y-138692325D01*
X181389234Y-138720863D01*
X181385958Y-138724094D01*
X181368886Y-138749549D01*
X181356940Y-138783465D01*
X181341853Y-138823706D01*
X181324447Y-138849725D01*
X181303805Y-138881520D01*
X181292166Y-138913059D01*
X181281368Y-138946005D01*
X181271914Y-138961836D01*
X181260737Y-138979572D01*
X181243885Y-139015942D01*
X181234644Y-139038526D01*
X181214373Y-139084668D01*
X181194626Y-139121025D01*
X181187801Y-139130555D01*
X181174429Y-139159020D01*
X181163403Y-139204488D01*
X181160177Y-139227468D01*
X181144786Y-139293272D01*
X181119882Y-139331598D01*
X181092598Y-139377122D01*
X181087439Y-139414437D01*
X181080047Y-139462848D01*
X181061782Y-139515600D01*
X181056906Y-139525630D01*
X181034931Y-139578296D01*
X181016554Y-139639875D01*
X181012240Y-139659862D01*
X181001041Y-139704432D01*
X180988118Y-139734383D01*
X180981420Y-139741076D01*
X180970652Y-139758495D01*
X180964988Y-139794635D01*
X180964734Y-139804835D01*
X180957330Y-139854497D01*
X180939351Y-139884082D01*
X180909421Y-139922686D01*
X180885420Y-139977626D01*
X180873223Y-140034564D01*
X180872705Y-140046735D01*
X180867161Y-140084909D01*
X180852906Y-140137288D01*
X180840118Y-140173767D01*
X180823250Y-140229618D01*
X180807682Y-140302427D01*
X180796230Y-140378514D01*
X180794387Y-140395954D01*
X180786498Y-140466538D01*
X180777049Y-140533160D01*
X180767728Y-140584312D01*
X180765098Y-140595350D01*
X180752198Y-140645124D01*
X180741157Y-140688930D01*
X180739661Y-140695048D01*
X180734596Y-140728041D01*
X180728718Y-140785674D01*
X180722438Y-140861936D01*
X180716163Y-140950817D01*
X180710302Y-141046304D01*
X180705263Y-141142386D01*
X180701456Y-141233052D01*
X180700049Y-141277898D01*
X180697464Y-141342722D01*
X180693741Y-141396243D01*
X180689491Y-141430833D01*
X180687193Y-141438949D01*
X180683955Y-141459988D01*
X180682172Y-141504891D01*
X180681728Y-141566889D01*
X179963816Y-141566889D01*
X179964663Y-141524138D01*
X179965448Y-141492633D01*
X179966693Y-141437297D01*
X179967353Y-141388968D01*
X179967373Y-141369927D01*
X179968014Y-141317782D01*
X179970420Y-141250469D01*
X179974125Y-141175673D01*
X179978663Y-141101074D01*
X179983568Y-141034357D01*
X179988376Y-140983204D01*
X179992485Y-140955797D01*
X179998378Y-140921010D01*
X180004074Y-140867479D01*
X180008139Y-140810084D01*
X180014276Y-140705308D01*
X180020168Y-140628186D01*
X180026100Y-140575699D01*
X180032356Y-140544831D01*
X180033417Y-140541666D01*
X180039628Y-140517157D01*
X180049356Y-140470370D01*
X180060989Y-140409275D01*
X180067530Y-140372947D01*
X180081339Y-140300067D01*
X180096232Y-140230055D01*
X180109732Y-140174291D01*
X180114282Y-140158212D01*
X180126589Y-140111943D01*
X180133139Y-140075555D01*
X180133484Y-140066183D01*
X180136827Y-139991118D01*
X180161240Y-139935474D01*
X180167150Y-139928140D01*
X180190157Y-139891960D01*
X180199575Y-139860606D01*
X180207566Y-139780738D01*
X180221777Y-139727120D01*
X180226516Y-139717117D01*
X180237648Y-139688055D01*
X180252014Y-139639570D01*
X180266266Y-139583144D01*
X180280277Y-139528249D01*
X180293747Y-139484661D01*
X180303813Y-139461620D01*
X180303995Y-139461389D01*
X180315152Y-139438279D01*
X180329843Y-139396080D01*
X180340245Y-139360628D01*
X180358361Y-139299426D01*
X180379879Y-139234686D01*
X180402095Y-139173650D01*
X180422305Y-139123562D01*
X180437806Y-139091665D01*
X180443286Y-139084541D01*
X180452661Y-139065848D01*
X180462699Y-139028661D01*
X180465302Y-139015519D01*
X180478147Y-138962249D01*
X180494825Y-138913039D01*
X180496919Y-138908152D01*
X180515498Y-138862108D01*
X180534531Y-138808825D01*
X180537168Y-138800785D01*
X180554101Y-138756202D01*
X180571510Y-138721900D01*
X180575358Y-138716425D01*
X180591004Y-138687215D01*
X180606844Y-138643459D01*
X180610216Y-138631591D01*
X180626392Y-138584189D01*
X180645538Y-138545344D01*
X180649500Y-138539562D01*
X180667707Y-138506252D01*
X180672821Y-138484904D01*
X180682619Y-138457827D01*
X180706134Y-138422525D01*
X180711636Y-138415882D01*
X180737059Y-138377818D01*
X180749679Y-138342260D01*
X180749981Y-138337711D01*
X180756958Y-138306292D01*
X180766935Y-138293638D01*
X180783861Y-138273804D01*
X180804599Y-138237744D01*
X180809496Y-138227546D01*
X180821677Y-138202206D01*
X180836058Y-138175280D01*
X180855463Y-138142113D01*
X180882720Y-138098048D01*
X180920653Y-138038429D01*
X180972089Y-137958600D01*
X180982413Y-137942632D01*
X181011837Y-137894220D01*
X181032982Y-137853863D01*
X181041415Y-137830053D01*
X181041425Y-137829626D01*
X181051627Y-137807445D01*
X181077915Y-137773253D01*
X181102778Y-137746512D01*
X181139442Y-137703529D01*
X181160919Y-137665331D01*
X181164130Y-137650259D01*
X181169674Y-137629051D01*
X182192004Y-137629051D01*
X182194733Y-137693898D01*
X182202835Y-137744838D01*
X182206123Y-137755152D01*
X182211881Y-137783539D01*
X182217996Y-137836025D01*
X182223864Y-137906046D01*
X182228883Y-137987039D01*
X182230505Y-138020734D01*
X182235573Y-138107461D01*
X182242545Y-138187953D01*
X182250626Y-138254857D01*
X182259025Y-138300819D01*
X182261671Y-138309964D01*
X182278796Y-138366325D01*
X182291513Y-138426157D01*
X182301383Y-138498569D01*
X182309848Y-138591172D01*
X182318252Y-138660863D01*
X182330121Y-138701378D01*
X182339599Y-138711684D01*
X182354371Y-138732387D01*
X182360468Y-138775125D01*
X182360507Y-138779419D01*
X182363996Y-138817227D01*
X182372685Y-138837847D01*
X182375845Y-138839130D01*
X182387475Y-138852228D01*
X182391183Y-138876570D01*
X182396498Y-138908807D01*
X182405635Y-138922942D01*
X182416438Y-138942352D01*
X182426901Y-138980959D01*
X182430466Y-139001085D01*
X182445802Y-139058426D01*
X182470760Y-139113532D01*
X182477367Y-139124114D01*
X182507827Y-139191863D01*
X182513889Y-139238006D01*
X182523297Y-139295262D01*
X182542400Y-139325519D01*
X182562053Y-139358002D01*
X182577211Y-139407428D01*
X182580824Y-139428529D01*
X182591193Y-139478290D01*
X182606132Y-139517965D01*
X182613665Y-139529434D01*
X182632449Y-139561399D01*
X182636594Y-139580944D01*
X182644842Y-139611063D01*
X182664432Y-139650809D01*
X182687630Y-139685786D01*
X182699500Y-139698067D01*
X182709289Y-139717014D01*
X182719588Y-139752618D01*
X182720226Y-139755494D01*
X182733019Y-139793260D01*
X182749165Y-139816367D01*
X182749895Y-139816847D01*
X182767689Y-139837971D01*
X182787029Y-139874919D01*
X182790006Y-139882125D01*
X182805955Y-139919048D01*
X182818220Y-139941667D01*
X182819781Y-139943478D01*
X182839541Y-139968795D01*
X182861758Y-140006499D01*
X182876570Y-140039342D01*
X182890126Y-140061977D01*
X182898412Y-140066183D01*
X182912482Y-140078715D01*
X182931722Y-140109923D01*
X182937385Y-140121275D01*
X182959059Y-140158579D01*
X182980003Y-140181959D01*
X182984119Y-140184269D01*
X183001459Y-140204348D01*
X183004710Y-140221206D01*
X183011144Y-140245230D01*
X183019329Y-140250241D01*
X183034555Y-140262803D01*
X183054439Y-140294077D01*
X183060090Y-140305333D01*
X183081765Y-140342637D01*
X183102708Y-140366017D01*
X183106824Y-140368327D01*
X183124164Y-140388406D01*
X183127415Y-140405264D01*
X183132720Y-140429304D01*
X183139446Y-140434299D01*
X183154770Y-140446153D01*
X183175430Y-140474867D01*
X183176535Y-140476718D01*
X183204317Y-140517845D01*
X183238443Y-140561227D01*
X183241630Y-140564912D01*
X183281056Y-140610197D01*
X183305519Y-140639201D01*
X183320357Y-140658638D01*
X183330909Y-140675222D01*
X183335020Y-140682375D01*
X183357669Y-140714637D01*
X183395430Y-140760956D01*
X183441649Y-140813773D01*
X183489669Y-140865526D01*
X183532837Y-140908657D01*
X183540339Y-140915617D01*
X183568115Y-140941730D01*
X183613122Y-140984951D01*
X183670766Y-141040828D01*
X183736454Y-141104912D01*
X183799439Y-141166697D01*
X183865244Y-141230463D01*
X183924449Y-141286034D01*
X183973317Y-141330044D01*
X184008108Y-141359128D01*
X184025084Y-141369921D01*
X184025243Y-141369927D01*
X184046950Y-141382257D01*
X184053252Y-141392935D01*
X184073750Y-141413339D01*
X184085569Y-141415942D01*
X184106288Y-141424076D01*
X184109058Y-141431280D01*
X184121280Y-141445323D01*
X184129464Y-141446618D01*
X184150074Y-141456431D01*
X184185411Y-141482295D01*
X184228231Y-141518855D01*
X184232996Y-141523215D01*
X184276000Y-141560592D01*
X184312060Y-141587895D01*
X184334039Y-141599771D01*
X184335296Y-141599906D01*
X184353131Y-141608583D01*
X184354468Y-141613549D01*
X184367656Y-141628339D01*
X184398861Y-141637331D01*
X184435545Y-141637458D01*
X184444628Y-141635609D01*
X184475690Y-141613041D01*
X184498197Y-141569003D01*
X184507772Y-141512415D01*
X184507850Y-141506756D01*
X184513985Y-141461026D01*
X184528947Y-141410636D01*
X184530857Y-141405907D01*
X184546307Y-141358348D01*
X184553683Y-141314812D01*
X184553789Y-141310536D01*
X184559274Y-141269881D01*
X184574003Y-141210846D01*
X184595223Y-141143286D01*
X184616447Y-141086171D01*
X184624213Y-141056659D01*
X184633475Y-141006552D01*
X184642443Y-140945755D01*
X184643893Y-140934396D01*
X184652696Y-140876413D01*
X184662561Y-140830967D01*
X184671666Y-140806071D01*
X184673570Y-140804022D01*
X184680444Y-140796821D01*
X184686515Y-140781593D01*
X184692753Y-140753418D01*
X184700132Y-140707377D01*
X184709624Y-140638553D01*
X184716235Y-140588145D01*
X184725609Y-140537854D01*
X184737945Y-140499031D01*
X184746004Y-140485380D01*
X184758172Y-140460503D01*
X184769704Y-140416202D01*
X184775863Y-140378547D01*
X184784671Y-140322296D01*
X184795419Y-140272836D01*
X184802011Y-140251239D01*
X184812579Y-140216219D01*
X184825525Y-140162755D01*
X184837626Y-140104529D01*
X184852066Y-140038241D01*
X184869168Y-139973195D01*
X184883068Y-139929709D01*
X184898340Y-139877786D01*
X184912673Y-139811323D01*
X184921328Y-139756527D01*
X184930260Y-139700486D01*
X184940882Y-139655435D01*
X184950834Y-139631243D01*
X184961224Y-139606110D01*
X184971289Y-139561361D01*
X184977150Y-139520668D01*
X184987374Y-139462022D01*
X185002849Y-139408743D01*
X185014095Y-139383635D01*
X185035037Y-139336569D01*
X185050679Y-139282425D01*
X185051861Y-139276268D01*
X185061727Y-139233510D01*
X185072661Y-139203638D01*
X185075246Y-139199577D01*
X185086024Y-139174078D01*
X185093046Y-139139047D01*
X185107985Y-139094900D01*
X185132880Y-139059219D01*
X185157562Y-139024400D01*
X185167391Y-138991399D01*
X185177159Y-138959892D01*
X185201688Y-138920251D01*
X185213406Y-138905809D01*
X185241396Y-138869049D01*
X185257712Y-138838183D01*
X185259420Y-138829904D01*
X185268232Y-138803407D01*
X185290150Y-138766587D01*
X185297766Y-138756134D01*
X185321990Y-138720363D01*
X185335256Y-138692975D01*
X185336111Y-138688135D01*
X185346260Y-138671375D01*
X185351137Y-138670410D01*
X185366813Y-138657984D01*
X185388060Y-138626842D01*
X185395665Y-138612892D01*
X185408250Y-138590836D01*
X185425326Y-138566664D01*
X185449813Y-138537197D01*
X185484633Y-138499253D01*
X185532707Y-138449653D01*
X185596959Y-138385215D01*
X185680307Y-138302759D01*
X185682730Y-138300372D01*
X185741407Y-138247331D01*
X185798305Y-138208484D01*
X185849939Y-138181643D01*
X185877701Y-138165099D01*
X185920150Y-138136193D01*
X185964725Y-138103686D01*
X186013574Y-138069758D01*
X186058416Y-138043465D01*
X186087431Y-138031209D01*
X186127092Y-138016053D01*
X186149795Y-138001544D01*
X186178763Y-137983766D01*
X186222609Y-137964041D01*
X186238631Y-137958044D01*
X186284238Y-137938635D01*
X186319835Y-137917772D01*
X186327160Y-137911625D01*
X186358011Y-137895549D01*
X186401256Y-137888210D01*
X186404676Y-137888164D01*
X186455001Y-137879531D01*
X186499937Y-137858823D01*
X186544686Y-137838507D01*
X186608855Y-137824237D01*
X186636562Y-137820991D01*
X186691643Y-137814287D01*
X186737054Y-137805571D01*
X186758774Y-137798510D01*
X186795724Y-137787544D01*
X186856844Y-137778495D01*
X186935676Y-137771552D01*
X187025763Y-137766907D01*
X187120646Y-137764751D01*
X187213869Y-137765275D01*
X187298972Y-137768670D01*
X187369499Y-137775126D01*
X187397580Y-137779621D01*
X187457216Y-137790850D01*
X187528344Y-137803611D01*
X187575483Y-137811737D01*
X187637274Y-137824571D01*
X187695041Y-137840587D01*
X187728248Y-137852925D01*
X187779712Y-137870873D01*
X187837772Y-137883515D01*
X187847119Y-137884737D01*
X187890469Y-137893865D01*
X187911815Y-137907640D01*
X187912923Y-137911818D01*
X187926583Y-137926605D01*
X187961067Y-137939177D01*
X187974195Y-137941834D01*
X188014966Y-137951576D01*
X188041027Y-137963086D01*
X188044122Y-137966190D01*
X188065032Y-137978037D01*
X188081779Y-137980193D01*
X188110531Y-137988446D01*
X188152311Y-138009555D01*
X188178961Y-138026208D01*
X188220309Y-138052114D01*
X188252632Y-138068804D01*
X188264090Y-138072222D01*
X188280259Y-138082970D01*
X188281038Y-138087560D01*
X188293495Y-138101090D01*
X188304527Y-138102898D01*
X188330161Y-138115300D01*
X188336781Y-138125739D01*
X188356253Y-138144261D01*
X188393323Y-138161162D01*
X188402957Y-138164039D01*
X188436904Y-138180074D01*
X188480210Y-138209576D01*
X188525668Y-138246346D01*
X188566076Y-138284182D01*
X188594226Y-138316884D01*
X188603140Y-138336310D01*
X188614732Y-138348120D01*
X188617222Y-138348309D01*
X188635014Y-138358823D01*
X188666865Y-138386254D01*
X188706633Y-138424438D01*
X188748173Y-138467208D01*
X188785341Y-138508401D01*
X188811994Y-138541849D01*
X188815931Y-138547705D01*
X188843540Y-138583363D01*
X188867457Y-138606093D01*
X188889440Y-138631569D01*
X188894565Y-138648273D01*
X188903129Y-138668120D01*
X188909903Y-138670410D01*
X188923885Y-138682663D01*
X188925241Y-138691178D01*
X188934986Y-138715488D01*
X188958909Y-138748119D01*
X188963587Y-138753321D01*
X188989102Y-138786521D01*
X189001661Y-138813979D01*
X189001932Y-138816913D01*
X189008924Y-138836834D01*
X189014450Y-138839130D01*
X189026903Y-138851911D01*
X189047404Y-138885380D01*
X189070954Y-138931159D01*
X189094985Y-138977802D01*
X189115364Y-139010913D01*
X189127458Y-139023188D01*
X189138110Y-139035881D01*
X189140033Y-139050030D01*
X189147754Y-139080136D01*
X189166747Y-139120270D01*
X189171661Y-139128657D01*
X189193104Y-139176826D01*
X189208979Y-139235439D01*
X189212086Y-139255197D01*
X189221083Y-139301160D01*
X189233590Y-139326887D01*
X189239725Y-139329952D01*
X189252382Y-139344020D01*
X189263965Y-139381158D01*
X189272909Y-139433761D01*
X189277645Y-139494226D01*
X189278019Y-139515780D01*
X189286128Y-139558494D01*
X189305924Y-139604881D01*
X189308638Y-139609502D01*
X189333551Y-139676303D01*
X189339409Y-139736413D01*
X189344474Y-139792294D01*
X189357064Y-139843378D01*
X189363770Y-139859118D01*
X189378859Y-139897447D01*
X189395258Y-139953926D01*
X189409444Y-140016410D01*
X189409588Y-140017153D01*
X189422069Y-140075735D01*
X189434639Y-140124799D01*
X189444727Y-140154388D01*
X189445345Y-140155608D01*
X189454239Y-140183115D01*
X189464665Y-140231341D01*
X189474555Y-140290537D01*
X189475762Y-140299019D01*
X189488389Y-140369574D01*
X189505626Y-140440564D01*
X189523069Y-140494737D01*
X189541415Y-140554728D01*
X189552554Y-140617085D01*
X189554106Y-140642543D01*
X189561043Y-140700807D01*
X189578214Y-140757856D01*
X189583154Y-140768548D01*
X189600238Y-140814557D01*
X189615177Y-140876363D01*
X189623310Y-140929201D01*
X189630761Y-140982606D01*
X189639615Y-141022874D01*
X189647945Y-141041275D01*
X189657143Y-141060879D01*
X189661432Y-141097445D01*
X189661473Y-141101509D01*
X189665606Y-141139394D01*
X189675670Y-141162013D01*
X189676811Y-141162862D01*
X189686616Y-141182973D01*
X189691869Y-141221120D01*
X189692150Y-141232789D01*
X189694885Y-141270882D01*
X189701707Y-141291836D01*
X189704307Y-141293237D01*
X189716385Y-141307093D01*
X189729355Y-141343013D01*
X189741205Y-141392519D01*
X189749922Y-141447136D01*
X189753495Y-141498389D01*
X189753502Y-141500522D01*
X189756260Y-141541612D01*
X189763233Y-141566211D01*
X189767340Y-141569323D01*
X189781419Y-141582221D01*
X189796548Y-141613449D01*
X189797218Y-141615338D01*
X189814999Y-141648784D01*
X189843547Y-141660632D01*
X189859474Y-141661352D01*
X189902495Y-141652427D01*
X189933128Y-141633985D01*
X189962028Y-141609323D01*
X190004302Y-141577725D01*
X190026904Y-141562081D01*
X190068824Y-141531522D01*
X190101350Y-141503535D01*
X190111264Y-141492553D01*
X190136253Y-141468657D01*
X190174456Y-141442145D01*
X190181689Y-141437918D01*
X190224397Y-141409570D01*
X190273685Y-141371048D01*
X190296726Y-141350946D01*
X190322530Y-141328527D01*
X191404019Y-141328527D01*
X191404858Y-141361431D01*
X191411241Y-141389322D01*
X191426799Y-141418193D01*
X191455165Y-141454040D01*
X191499971Y-141502857D01*
X191526556Y-141530748D01*
X191568860Y-141577390D01*
X191608253Y-141624848D01*
X191625672Y-141648031D01*
X191658140Y-141689538D01*
X191700521Y-141737812D01*
X191723874Y-141762337D01*
X191779684Y-141820763D01*
X191825131Y-141872196D01*
X191856462Y-141912130D01*
X191869923Y-141936059D01*
X191870169Y-141937983D01*
X191882800Y-141952268D01*
X191900845Y-141960447D01*
X191925614Y-141973563D01*
X191931522Y-141982945D01*
X191941611Y-141998589D01*
X191968858Y-142030753D01*
X192008727Y-142074267D01*
X192042723Y-142109745D01*
X192094239Y-142163041D01*
X192141904Y-142213178D01*
X192178883Y-142252927D01*
X192192855Y-142268503D01*
X192230406Y-142308096D01*
X192274869Y-142350377D01*
X192285350Y-142359647D01*
X192328041Y-142402770D01*
X192366426Y-142451206D01*
X192373270Y-142461658D01*
X192399886Y-142498481D01*
X192424462Y-142522658D01*
X192430322Y-142525955D01*
X192450531Y-142546538D01*
X192453019Y-142558154D01*
X192461422Y-142578868D01*
X192468874Y-142581642D01*
X192489108Y-142592177D01*
X192519007Y-142617633D01*
X192549331Y-142648788D01*
X192570842Y-142676420D01*
X192575724Y-142688299D01*
X192585916Y-142703432D01*
X192614019Y-142736227D01*
X192656330Y-142782581D01*
X192709144Y-142838392D01*
X192740610Y-142870898D01*
X192836154Y-142969122D01*
X192912029Y-143047837D01*
X192970238Y-143109246D01*
X193012783Y-143155548D01*
X193041667Y-143188947D01*
X193058895Y-143211642D01*
X193066468Y-143225837D01*
X193067256Y-143229879D01*
X193078983Y-143249626D01*
X193108021Y-143278562D01*
X193127898Y-143294867D01*
X193162954Y-143324510D01*
X193185073Y-143348435D01*
X193188889Y-143356220D01*
X193201716Y-143371388D01*
X193231311Y-143392203D01*
X193266426Y-143411816D01*
X193295813Y-143423375D01*
X193300453Y-143424163D01*
X193308566Y-143411661D01*
X193311956Y-143380078D01*
X193311956Y-143379949D01*
X193317045Y-143338485D01*
X193329610Y-143297028D01*
X193345597Y-143266269D01*
X193358755Y-143256522D01*
X193368555Y-143243162D01*
X193377447Y-143210605D01*
X193378126Y-143206673D01*
X193386824Y-143162992D01*
X193401141Y-143100610D01*
X193418886Y-143028127D01*
X193437871Y-142954145D01*
X193455905Y-142887262D01*
X193470799Y-142836080D01*
X193477791Y-142815223D01*
X193486204Y-142780482D01*
X193494394Y-142725474D01*
X193500892Y-142660583D01*
X193502148Y-142642995D01*
X193509820Y-142564874D01*
X193522643Y-142473820D01*
X193538173Y-142386620D01*
X193542298Y-142366908D01*
X193556722Y-142287972D01*
X193567424Y-142205171D01*
X193572662Y-142132900D01*
X193572894Y-142113828D01*
X193573069Y-142055267D01*
X193574442Y-141983314D01*
X193576752Y-141904184D01*
X193579741Y-141824091D01*
X193583150Y-141749248D01*
X193586721Y-141685870D01*
X193590194Y-141640170D01*
X193593310Y-141618362D01*
X193593566Y-141617780D01*
X193595958Y-141597854D01*
X193596893Y-141554020D01*
X193596555Y-141493004D01*
X193595130Y-141421532D01*
X193592801Y-141346329D01*
X193589752Y-141274120D01*
X193586167Y-141211630D01*
X193582232Y-141165586D01*
X193580894Y-141155193D01*
X193574614Y-141099402D01*
X193571726Y-141046527D01*
X193571743Y-141035428D01*
X193568362Y-140991738D01*
X193558800Y-140958475D01*
X193551145Y-140931607D01*
X193543108Y-140883165D01*
X193536103Y-140822200D01*
X193534360Y-140802153D01*
X193528561Y-140730041D01*
X193522782Y-140658775D01*
X193518142Y-140602124D01*
X193517581Y-140595350D01*
X193510027Y-140532001D01*
X193498902Y-140467036D01*
X193495144Y-140449638D01*
X193481951Y-140390699D01*
X193465313Y-140313162D01*
X193447651Y-140228539D01*
X193431383Y-140148341D01*
X193424948Y-140115660D01*
X193414604Y-140078927D01*
X193402712Y-140057802D01*
X193401918Y-140057237D01*
X193392961Y-140037781D01*
X193388703Y-140001149D01*
X193388647Y-139996256D01*
X193385598Y-139961123D01*
X193378117Y-139943847D01*
X193376706Y-139943478D01*
X193366966Y-139929759D01*
X193353957Y-139894120D01*
X193339815Y-139844837D01*
X193326676Y-139790186D01*
X193316677Y-139738444D01*
X193311952Y-139697886D01*
X193311828Y-139692089D01*
X193303936Y-139653615D01*
X193287392Y-139629804D01*
X193270385Y-139603255D01*
X193257594Y-139557007D01*
X193254587Y-139536084D01*
X193243740Y-139481884D01*
X193226041Y-139433888D01*
X193217798Y-139419613D01*
X193197193Y-139378170D01*
X193189251Y-139339964D01*
X193181576Y-139300381D01*
X193162820Y-139255271D01*
X193160061Y-139250303D01*
X193136847Y-139200842D01*
X193120705Y-139150716D01*
X193120269Y-139148692D01*
X193107157Y-139111649D01*
X193089569Y-139090197D01*
X193088107Y-139089533D01*
X193068644Y-139069746D01*
X193066546Y-139059685D01*
X193058481Y-139028697D01*
X193040009Y-138990823D01*
X193019713Y-138963266D01*
X193017534Y-138961448D01*
X193008303Y-138942960D01*
X192996515Y-138904657D01*
X192989847Y-138877441D01*
X192973972Y-138827122D01*
X192953130Y-138786139D01*
X192942995Y-138773698D01*
X192920228Y-138743199D01*
X192913098Y-138719662D01*
X192904939Y-138692582D01*
X192884116Y-138651780D01*
X192867150Y-138624396D01*
X192841333Y-138582236D01*
X192824660Y-138548626D01*
X192821201Y-138536202D01*
X192809658Y-138520286D01*
X192781568Y-138519911D01*
X192746493Y-138534515D01*
X192736775Y-138541171D01*
X192721503Y-138557230D01*
X192711537Y-138582112D01*
X192705347Y-138622640D01*
X192701401Y-138685636D01*
X192700738Y-138701734D01*
X192697018Y-138762369D01*
X192691557Y-138809329D01*
X192685279Y-138835754D01*
X192682261Y-138839130D01*
X192671111Y-138852531D01*
X192660566Y-138885524D01*
X192659041Y-138892983D01*
X192648800Y-138931096D01*
X192636936Y-138953950D01*
X192635338Y-138955241D01*
X192626477Y-138974695D01*
X192621907Y-139012036D01*
X192621739Y-139021162D01*
X192615811Y-139067788D01*
X192601327Y-139105413D01*
X192599220Y-139108451D01*
X192580779Y-139147746D01*
X192576212Y-139174790D01*
X192570800Y-139221553D01*
X192558021Y-139269113D01*
X192541334Y-139307988D01*
X192524198Y-139328697D01*
X192519613Y-139329952D01*
X192505062Y-139343187D01*
X192499207Y-139384005D01*
X192499034Y-139396042D01*
X192493901Y-139444711D01*
X192481122Y-139484414D01*
X192476514Y-139491905D01*
X192462037Y-139525976D01*
X192454029Y-139573670D01*
X192453507Y-139586866D01*
X192455630Y-139628854D01*
X192464998Y-139648025D01*
X192481357Y-139652053D01*
X192506752Y-139661922D01*
X192545194Y-139687693D01*
X192584889Y-139720737D01*
X192624872Y-139755750D01*
X192656407Y-139780611D01*
X192672221Y-139789758D01*
X192699265Y-139797792D01*
X192744520Y-139818255D01*
X192800400Y-139846981D01*
X192859320Y-139879800D01*
X192913691Y-139912547D01*
X192955929Y-139941052D01*
X192972840Y-139954906D01*
X193014677Y-139987357D01*
X193057680Y-140009659D01*
X193068880Y-140013013D01*
X193104024Y-140026679D01*
X193122907Y-140044622D01*
X193142941Y-140061248D01*
X193168582Y-140066183D01*
X193204859Y-140076747D01*
X193242130Y-140102388D01*
X193244329Y-140104529D01*
X193273820Y-140130223D01*
X193295552Y-140142660D01*
X193297315Y-140142874D01*
X193305559Y-140156514D01*
X193311904Y-140190661D01*
X193315251Y-140235158D01*
X193314499Y-140279844D01*
X193313378Y-140291216D01*
X193317300Y-140314598D01*
X193329741Y-140355971D01*
X193342229Y-140390914D01*
X193364560Y-140474353D01*
X193373294Y-140562837D01*
X193373301Y-140565095D01*
X193378199Y-140634429D01*
X193391994Y-140682887D01*
X193396865Y-140691176D01*
X193412563Y-140732226D01*
X193417657Y-140797393D01*
X193417243Y-140821129D01*
X193418392Y-140888570D01*
X193424765Y-140957722D01*
X193430938Y-140994142D01*
X193439831Y-141050772D01*
X193435009Y-141080026D01*
X193415726Y-141082330D01*
X193381235Y-141058106D01*
X193357684Y-141035810D01*
X193312735Y-140997115D01*
X193266027Y-140966425D01*
X193242017Y-140955494D01*
X193207382Y-140940872D01*
X193189800Y-140927203D01*
X193189251Y-140925164D01*
X193176016Y-140913333D01*
X193142210Y-140897343D01*
X193116395Y-140887859D01*
X193060619Y-140861762D01*
X193008261Y-140825621D01*
X192994053Y-140812511D01*
X192948154Y-140775255D01*
X192895639Y-140746050D01*
X192882851Y-140741183D01*
X192844776Y-140724210D01*
X192823066Y-140705993D01*
X192821135Y-140700262D01*
X192807170Y-140684777D01*
X192771622Y-140679710D01*
X192732457Y-140672666D01*
X192694868Y-140647766D01*
X192668089Y-140620998D01*
X192625418Y-140582382D01*
X192579624Y-140552249D01*
X192561382Y-140544116D01*
X192518775Y-140526020D01*
X192486352Y-140506568D01*
X192484691Y-140505189D01*
X192450730Y-140485123D01*
X192422343Y-140475103D01*
X192389892Y-140459862D01*
X192346891Y-140430482D01*
X192316478Y-140405413D01*
X192267858Y-140370274D01*
X192214716Y-140344779D01*
X192163482Y-140330235D01*
X192120585Y-140327947D01*
X192092456Y-140339220D01*
X192084903Y-140358397D01*
X192074746Y-140380077D01*
X192047758Y-140416331D01*
X192009167Y-140460415D01*
X191991704Y-140478676D01*
X191969782Y-140509622D01*
X191948511Y-140552289D01*
X191946620Y-140557005D01*
X191924135Y-140599660D01*
X191893543Y-140640094D01*
X191862382Y-140669627D01*
X191840051Y-140679710D01*
X191829301Y-140693193D01*
X191819134Y-140726646D01*
X191817117Y-140737228D01*
X191793295Y-140798071D01*
X191742913Y-140864312D01*
X191703346Y-140909987D01*
X191663721Y-140960613D01*
X191628999Y-141009227D01*
X191604140Y-141048868D01*
X191594106Y-141072572D01*
X191594082Y-141073197D01*
X191583711Y-141087953D01*
X191556059Y-141118051D01*
X191516314Y-141157950D01*
X191499671Y-141174004D01*
X191452903Y-141220066D01*
X191424575Y-141253414D01*
X191410049Y-141281544D01*
X191404683Y-141311949D01*
X191404019Y-141328527D01*
X190322530Y-141328527D01*
X190333155Y-141319296D01*
X190360756Y-141298393D01*
X190370642Y-141293428D01*
X190385067Y-141283185D01*
X190417048Y-141255160D01*
X190462382Y-141213196D01*
X190516865Y-141161133D01*
X190539362Y-141139238D01*
X190600006Y-141080855D01*
X190656858Y-141027817D01*
X190704451Y-140985105D01*
X190737322Y-140957701D01*
X190743111Y-140953472D01*
X190781336Y-140917553D01*
X190813665Y-140871653D01*
X190816627Y-140865895D01*
X190842230Y-140824050D01*
X190880322Y-140773530D01*
X190912193Y-140736778D01*
X190947081Y-140698516D01*
X190971715Y-140669874D01*
X190980555Y-140657433D01*
X190991044Y-140641595D01*
X191016399Y-140615171D01*
X191047456Y-140586644D01*
X191075047Y-140564491D01*
X191089102Y-140557005D01*
X191101669Y-140544564D01*
X191103261Y-140533997D01*
X191110994Y-140513578D01*
X191117565Y-140510990D01*
X191132550Y-140498192D01*
X191142353Y-140476479D01*
X191158520Y-140441307D01*
X191184645Y-140399661D01*
X191189401Y-140393143D01*
X191212824Y-140358044D01*
X191225324Y-140331865D01*
X191225966Y-140327956D01*
X191238243Y-140313144D01*
X191247266Y-140311594D01*
X191264396Y-140297817D01*
X191277649Y-140262662D01*
X191278795Y-140257073D01*
X191300238Y-140204260D01*
X191340058Y-140153849D01*
X191340380Y-140153541D01*
X191378831Y-140109945D01*
X191410748Y-140062329D01*
X191416629Y-140050845D01*
X191459887Y-139966451D01*
X191497367Y-139910603D01*
X191510716Y-139885186D01*
X191527570Y-139840911D01*
X191540331Y-139800588D01*
X191557202Y-139751891D01*
X191574644Y-139716436D01*
X191586288Y-139703662D01*
X191602362Y-139684643D01*
X191615249Y-139648235D01*
X191616428Y-139642515D01*
X191628805Y-139604506D01*
X191645886Y-139581897D01*
X191648195Y-139580744D01*
X191665387Y-139561256D01*
X191678805Y-139524558D01*
X191679961Y-139518973D01*
X191692037Y-139481109D01*
X191708405Y-139458753D01*
X191710638Y-139457620D01*
X191726988Y-139438476D01*
X191740131Y-139401858D01*
X191741478Y-139395391D01*
X191756479Y-139349913D01*
X191778915Y-139313885D01*
X191780241Y-139312512D01*
X191802499Y-139275796D01*
X191808816Y-139245350D01*
X191812864Y-139208388D01*
X191822980Y-139163845D01*
X191836129Y-139121800D01*
X191849270Y-139092329D01*
X191857294Y-139084541D01*
X191865967Y-139070922D01*
X191877226Y-139035915D01*
X191884762Y-139004642D01*
X191898724Y-138954164D01*
X191915412Y-138913682D01*
X191924358Y-138899925D01*
X191937988Y-138869012D01*
X191949151Y-138810923D01*
X191956749Y-138735194D01*
X191963927Y-138662090D01*
X191973148Y-138612221D01*
X191983739Y-138589055D01*
X191985337Y-138588122D01*
X191996363Y-138569790D01*
X192006693Y-138527681D01*
X192014640Y-138468677D01*
X192014659Y-138468470D01*
X192024913Y-138383830D01*
X192037923Y-138311878D01*
X192052418Y-138258136D01*
X192067126Y-138228131D01*
X192070698Y-138224979D01*
X192074411Y-138207987D01*
X192077882Y-138164537D01*
X192080949Y-138098848D01*
X192083447Y-138015136D01*
X192085211Y-137917621D01*
X192085988Y-137831848D01*
X192087982Y-137447010D01*
X191990579Y-137344484D01*
X191931317Y-137282298D01*
X191865091Y-137213101D01*
X191805084Y-137150662D01*
X191798549Y-137143886D01*
X191751774Y-137093356D01*
X191710456Y-137045072D01*
X191681660Y-137007405D01*
X191676360Y-136999156D01*
X191650068Y-136964929D01*
X191623200Y-136944464D01*
X191621208Y-136943740D01*
X191590324Y-136925862D01*
X191540942Y-136886639D01*
X191474917Y-136827677D01*
X191394105Y-136750584D01*
X191365142Y-136722066D01*
X191290836Y-136651572D01*
X191221829Y-136592091D01*
X191162672Y-136547256D01*
X191117918Y-136520701D01*
X191108078Y-136516874D01*
X191079578Y-136500721D01*
X191039716Y-136469571D01*
X191005270Y-136437986D01*
X190967332Y-136402489D01*
X190937247Y-136377793D01*
X190922819Y-136369686D01*
X190902466Y-136360505D01*
X190879078Y-136342844D01*
X190822955Y-136299529D01*
X190772488Y-136271367D01*
X190765217Y-136268598D01*
X190740709Y-136248943D01*
X190726872Y-136226864D01*
X190702453Y-136199320D01*
X190663773Y-136179071D01*
X190662288Y-136178621D01*
X190628702Y-136165538D01*
X190612666Y-136153007D01*
X190612439Y-136151780D01*
X190600262Y-136140412D01*
X190593267Y-136139542D01*
X190570496Y-136129911D01*
X190537414Y-136106016D01*
X190527413Y-136097362D01*
X190467507Y-136049606D01*
X190417451Y-136022337D01*
X190391885Y-136016908D01*
X190368019Y-136004532D01*
X190361482Y-135993901D01*
X190340942Y-135975976D01*
X190316212Y-135970894D01*
X190280597Y-135961117D01*
X190240766Y-135937126D01*
X190235206Y-135932567D01*
X190198781Y-135907301D01*
X190166652Y-135894582D01*
X190162383Y-135894221D01*
X190130727Y-135885086D01*
X190095127Y-135863526D01*
X190058914Y-135841741D01*
X190027521Y-135832850D01*
X190003719Y-135827668D01*
X189998913Y-135821256D01*
X189986202Y-135808350D01*
X189955012Y-135791807D01*
X189949064Y-135789294D01*
X189882276Y-135760628D01*
X189837142Y-135737384D01*
X189806147Y-135715485D01*
X189796148Y-135706310D01*
X189763211Y-135685190D01*
X189739069Y-135679468D01*
X189709707Y-135672425D01*
X189699819Y-135664130D01*
X189679423Y-135653757D01*
X189642254Y-135648852D01*
X189637561Y-135648792D01*
X189602429Y-135645596D01*
X189585152Y-135637756D01*
X189584782Y-135636276D01*
X189571859Y-135624583D01*
X189539307Y-135606870D01*
X189496454Y-135587247D01*
X189452628Y-135569822D01*
X189417156Y-135558704D01*
X189404263Y-135556763D01*
X189386631Y-135549218D01*
X189385386Y-135545043D01*
X189371806Y-135529696D01*
X189337177Y-135512294D01*
X189290668Y-135496070D01*
X189241447Y-135484260D01*
X189201223Y-135480072D01*
X189158602Y-135476260D01*
X189141070Y-135463628D01*
X189139976Y-135457065D01*
X189126314Y-135438766D01*
X189095131Y-135434058D01*
X189052905Y-135430783D01*
X189002778Y-135422399D01*
X188953791Y-135411069D01*
X188914985Y-135398953D01*
X188895401Y-135388213D01*
X188894565Y-135386104D01*
X188887564Y-135377923D01*
X188863461Y-135369554D01*
X188817604Y-135359748D01*
X188756522Y-135349101D01*
X188619189Y-135322688D01*
X188482957Y-135289996D01*
X188449758Y-135280871D01*
X188383876Y-135265729D01*
X188303756Y-135252349D01*
X188225822Y-135243438D01*
X188219686Y-135242963D01*
X188153200Y-135236748D01*
X188093118Y-135228837D01*
X188050188Y-135220704D01*
X188043297Y-135218778D01*
X188013569Y-135209838D01*
X187983926Y-135202430D01*
X187950768Y-135196259D01*
X187910495Y-135191033D01*
X187859506Y-135186457D01*
X187794200Y-135182237D01*
X187710978Y-135178078D01*
X187606239Y-135173688D01*
X187476382Y-135168771D01*
X187394618Y-135165796D01*
X187321383Y-135162698D01*
X187259573Y-135159231D01*
X187215499Y-135155808D01*
X187195471Y-135152842D01*
X187195222Y-135152718D01*
X187175651Y-135150483D01*
X187132211Y-135149853D01*
X187071657Y-135150610D01*
X187000740Y-135152539D01*
X186926216Y-135155422D01*
X186854838Y-135159044D01*
X186793358Y-135163186D01*
X186754891Y-135166841D01*
X186691780Y-135173715D01*
X186626979Y-135179941D01*
X186609179Y-135181454D01*
X186564860Y-135186090D01*
X186500117Y-135194172D01*
X186424835Y-135204423D01*
X186371437Y-135212163D01*
X186294663Y-135223081D01*
X186221542Y-135232572D01*
X186161958Y-135239399D01*
X186133695Y-135241923D01*
X186073614Y-135249376D01*
X186013483Y-135261864D01*
X186003321Y-135264683D01*
X185946431Y-135279308D01*
X185871204Y-135295769D01*
X185789690Y-135311704D01*
X185713941Y-135324750D01*
X185658212Y-135332327D01*
X185579712Y-135342187D01*
X185516285Y-135353759D01*
X185473414Y-135365862D01*
X185457307Y-135375561D01*
X185438534Y-135384910D01*
X185397964Y-135395728D01*
X185344243Y-135405726D01*
X185342271Y-135406027D01*
X185275603Y-135418818D01*
X185209795Y-135435786D01*
X185167391Y-135450130D01*
X185110412Y-135469980D01*
X185052292Y-135485313D01*
X185037052Y-135488216D01*
X184996555Y-135497022D01*
X184970999Y-135506664D01*
X184968030Y-135509176D01*
X184950758Y-135521777D01*
X184915319Y-135541697D01*
X184891304Y-135553871D01*
X184846092Y-135576654D01*
X184809980Y-135596030D01*
X184799275Y-135602359D01*
X184772124Y-135613233D01*
X184726279Y-135625785D01*
X184688073Y-135634034D01*
X184640945Y-135644920D01*
X184608945Y-135655829D01*
X184599879Y-135662763D01*
X184586750Y-135674367D01*
X184553811Y-135689389D01*
X184538526Y-135694807D01*
X184500728Y-135709509D01*
X184479127Y-135722226D01*
X184477174Y-135725476D01*
X184464156Y-135739757D01*
X184433005Y-135755498D01*
X184395569Y-135767681D01*
X184368464Y-135771497D01*
X184338401Y-135779957D01*
X184298258Y-135800482D01*
X184260164Y-135825792D01*
X184236244Y-135848608D01*
X184234319Y-135852023D01*
X184216662Y-135862547D01*
X184207478Y-135863526D01*
X184187900Y-135872229D01*
X184185749Y-135878865D01*
X184172663Y-135890537D01*
X184148681Y-135894203D01*
X184118278Y-135898388D01*
X184106501Y-135905706D01*
X184089215Y-135921690D01*
X184055763Y-135942291D01*
X184018494Y-135960819D01*
X183989758Y-135970581D01*
X183986193Y-135970894D01*
X183963710Y-135979656D01*
X183928451Y-136001766D01*
X183911869Y-136013960D01*
X183866604Y-136045002D01*
X183808579Y-136079820D01*
X183767195Y-136102154D01*
X183708314Y-136136087D01*
X183650765Y-136175646D01*
X183619783Y-136200966D01*
X183573594Y-136239521D01*
X183525825Y-136273838D01*
X183509170Y-136284064D01*
X183460842Y-136314579D01*
X183415403Y-136347961D01*
X183413829Y-136349251D01*
X183379302Y-136373116D01*
X183351415Y-136384791D01*
X183348642Y-136385024D01*
X183328995Y-136393520D01*
X183326811Y-136400050D01*
X183314340Y-136415467D01*
X183282866Y-136436876D01*
X183265459Y-136446377D01*
X183228490Y-136468291D01*
X183206637Y-136487148D01*
X183204106Y-136492703D01*
X183192178Y-136506978D01*
X183186781Y-136507729D01*
X183168435Y-136518043D01*
X183135671Y-136545329D01*
X183094968Y-136584102D01*
X183087093Y-136592089D01*
X183046484Y-136632268D01*
X183013703Y-136662097D01*
X182994786Y-136676144D01*
X182993217Y-136676582D01*
X182976359Y-136686384D01*
X182945984Y-136711276D01*
X182925208Y-136730266D01*
X182890349Y-136760994D01*
X182863681Y-136780363D01*
X182855317Y-136783816D01*
X182840655Y-136794224D01*
X182808392Y-136823073D01*
X182762302Y-136866797D01*
X182706156Y-136921833D01*
X182656437Y-136971709D01*
X182588431Y-137040330D01*
X182521399Y-137107491D01*
X182461045Y-137167509D01*
X182413074Y-137214703D01*
X182392724Y-137234389D01*
X182353850Y-137274001D01*
X182325844Y-137307210D01*
X182314517Y-137327094D01*
X182314493Y-137327579D01*
X182304131Y-137349610D01*
X182278777Y-137379250D01*
X182274690Y-137383166D01*
X182240017Y-137421891D01*
X182213337Y-137461768D01*
X182201579Y-137501915D01*
X182194377Y-137561366D01*
X182192004Y-137629051D01*
X181169674Y-137629051D01*
X181172144Y-137619600D01*
X181184721Y-137607458D01*
X181204134Y-137589379D01*
X181226434Y-137554471D01*
X181231456Y-137544464D01*
X181250957Y-137509579D01*
X181267325Y-137490555D01*
X181270554Y-137489372D01*
X181283864Y-137476478D01*
X181292188Y-137454797D01*
X181307335Y-137424263D01*
X181336731Y-137383546D01*
X181359038Y-137357768D01*
X181411871Y-137299614D01*
X181448578Y-137255026D01*
X181475115Y-137216280D01*
X181493403Y-137183570D01*
X181519465Y-137143734D01*
X181556362Y-137098915D01*
X181570860Y-137083665D01*
X181601971Y-137049567D01*
X181621227Y-137022714D01*
X181624275Y-137014400D01*
X181636618Y-137000174D01*
X181646301Y-136998551D01*
X181666459Y-136986198D01*
X181691858Y-136954991D01*
X181702809Y-136937198D01*
X181727529Y-136900427D01*
X181750083Y-136878522D01*
X181757474Y-136875845D01*
X181775965Y-136864248D01*
X181777657Y-136856528D01*
X181789394Y-136834029D01*
X181808333Y-136818052D01*
X181832606Y-136795701D01*
X181839452Y-136779852D01*
X181849516Y-136759726D01*
X181875496Y-136725162D01*
X181911798Y-136683593D01*
X181912308Y-136683044D01*
X181956058Y-136635470D01*
X181997226Y-136589721D01*
X182023067Y-136560151D01*
X182057478Y-136524115D01*
X182103256Y-136481642D01*
X182130435Y-136458464D01*
X182181028Y-136415842D01*
X182238777Y-136365519D01*
X182276045Y-136332112D01*
X182317605Y-136296687D01*
X182352200Y-136271568D01*
X182371909Y-136262319D01*
X182388979Y-136249964D01*
X182391183Y-136239311D01*
X182397443Y-136218627D01*
X182402687Y-136215894D01*
X182419436Y-136206220D01*
X182451204Y-136181531D01*
X182483212Y-136154105D01*
X182532932Y-136110116D01*
X182591418Y-136058692D01*
X182635305Y-136020306D01*
X182681151Y-135980019D01*
X182721182Y-135944283D01*
X182746507Y-135921045D01*
X182776118Y-135900288D01*
X182796004Y-135894203D01*
X182819682Y-135881831D01*
X182826199Y-135871195D01*
X182846697Y-135850791D01*
X182858516Y-135848188D01*
X182879235Y-135840054D01*
X182882005Y-135832850D01*
X182893677Y-135817958D01*
X182897343Y-135817512D01*
X182919806Y-135808143D01*
X182939523Y-135793267D01*
X183012682Y-135728724D01*
X183067099Y-135684435D01*
X183105277Y-135658525D01*
X183129715Y-135649117D01*
X183131731Y-135649009D01*
X183159474Y-135637764D01*
X183167691Y-135626287D01*
X183178647Y-135611439D01*
X183203743Y-135591466D01*
X183246259Y-135564279D01*
X183309478Y-135527790D01*
X183396681Y-135479909D01*
X183403502Y-135476221D01*
X183458369Y-135444852D01*
X183510125Y-135412451D01*
X183536688Y-135394003D01*
X183569952Y-135370727D01*
X183592348Y-135358111D01*
X183595301Y-135357367D01*
X183612867Y-135347789D01*
X183627691Y-135334765D01*
X183656871Y-135316175D01*
X183700308Y-135298913D01*
X183710308Y-135296003D01*
X183750658Y-135282163D01*
X183776804Y-135267724D01*
X183779934Y-135264292D01*
X183798555Y-135249762D01*
X183835894Y-135229341D01*
X183864941Y-135215820D01*
X183906929Y-135195360D01*
X183934302Y-135177944D01*
X183940338Y-135170435D01*
X183953422Y-135160889D01*
X183976805Y-135157971D01*
X184013155Y-135149161D01*
X184031697Y-135135771D01*
X184056674Y-135117075D01*
X184098167Y-135095833D01*
X184117935Y-135087672D01*
X184157780Y-135069909D01*
X184182166Y-135054130D01*
X184185749Y-135048520D01*
X184198772Y-135038199D01*
X184220534Y-135035266D01*
X184254652Y-135026830D01*
X184297840Y-135005737D01*
X184311749Y-134996920D01*
X184365914Y-134969740D01*
X184418863Y-134958595D01*
X184420798Y-134958575D01*
X184462258Y-134952229D01*
X184491386Y-134936829D01*
X184492512Y-134935567D01*
X184522294Y-134915902D01*
X184539499Y-134912560D01*
X184568163Y-134904936D01*
X184577026Y-134896972D01*
X184594272Y-134887400D01*
X184599136Y-134889094D01*
X184618702Y-134886128D01*
X184647925Y-134868297D01*
X184687171Y-134847029D01*
X184737471Y-134831075D01*
X184747238Y-134829182D01*
X184799386Y-134815461D01*
X184858937Y-134792931D01*
X184884047Y-134781207D01*
X184931249Y-134759927D01*
X184971200Y-134746394D01*
X184986694Y-134743840D01*
X185021319Y-134737010D01*
X185056951Y-134722761D01*
X185093821Y-134710179D01*
X185148634Y-134698392D01*
X185202042Y-134690848D01*
X185262536Y-134681357D01*
X185308827Y-134668028D01*
X185329347Y-134656385D01*
X185356917Y-134642125D01*
X185405099Y-134629069D01*
X185455746Y-134620906D01*
X185512274Y-134613311D01*
X185558964Y-134605112D01*
X185584158Y-134598578D01*
X185618192Y-134596664D01*
X185638275Y-134603336D01*
X185665643Y-134608923D01*
X185704768Y-134598846D01*
X185739828Y-134583355D01*
X185799712Y-134560745D01*
X185868816Y-134543310D01*
X185900445Y-134538373D01*
X185958285Y-134531659D01*
X186010940Y-134525110D01*
X186033997Y-134521993D01*
X186076940Y-134516809D01*
X186133248Y-134511229D01*
X186160393Y-134508899D01*
X186210528Y-134501881D01*
X186249750Y-134491114D01*
X186262560Y-134484345D01*
X186284818Y-134474649D01*
X186294671Y-134482971D01*
X186315638Y-134492403D01*
X186335975Y-134489845D01*
X186398198Y-134475102D01*
X186477126Y-134463246D01*
X186558810Y-134455973D01*
X186624517Y-134454788D01*
X186750446Y-134455793D01*
X186855182Y-134449028D01*
X186947361Y-134433872D01*
X186961956Y-134430523D01*
X186998778Y-134427816D01*
X187051153Y-134430875D01*
X187084662Y-134435345D01*
X187151265Y-134441877D01*
X187201213Y-134435098D01*
X187216372Y-134429684D01*
X187260896Y-134418185D01*
X187292937Y-134426403D01*
G37*
G36*
X187193947Y-140370910D02*
G01*
X187244082Y-140384002D01*
X187301655Y-140394657D01*
X187312366Y-140396104D01*
X187364770Y-140406646D01*
X187411244Y-140422457D01*
X187419734Y-140426635D01*
X187452925Y-140448093D01*
X187490090Y-140476647D01*
X187522753Y-140505168D01*
X187542440Y-140526526D01*
X187544807Y-140531854D01*
X187554998Y-140547167D01*
X187580732Y-140575806D01*
X187614754Y-140610576D01*
X187649805Y-140644280D01*
X187678628Y-140669723D01*
X187693926Y-140679710D01*
X187710788Y-140691198D01*
X187724444Y-140709007D01*
X187745624Y-140731337D01*
X187778034Y-140744157D01*
X187825802Y-140747598D01*
X187893058Y-140741792D01*
X187983931Y-140726871D01*
X188026406Y-140718661D01*
X188113111Y-140703264D01*
X188201381Y-140690740D01*
X188280450Y-140682444D01*
X188335961Y-140679710D01*
X188394304Y-140680402D01*
X188428403Y-140683679D01*
X188444679Y-140691340D01*
X188449556Y-140705182D01*
X188449758Y-140711589D01*
X188439330Y-140739941D01*
X188412614Y-140777948D01*
X188390648Y-140801990D01*
X188354903Y-140843742D01*
X188329192Y-140885428D01*
X188322266Y-140904320D01*
X188307331Y-140937212D01*
X188276894Y-140982050D01*
X188237417Y-141029361D01*
X188235663Y-141031255D01*
X188198165Y-141073223D01*
X188170686Y-141107138D01*
X188158515Y-141126418D01*
X188158333Y-141127517D01*
X188149209Y-141149118D01*
X188126155Y-141183888D01*
X188095645Y-141223723D01*
X188064155Y-141260519D01*
X188038162Y-141286174D01*
X188025903Y-141293237D01*
X188010388Y-141306557D01*
X187997391Y-141339012D01*
X187996490Y-141342861D01*
X187980878Y-141389886D01*
X187957261Y-141437363D01*
X187932551Y-141471974D01*
X187926707Y-141477295D01*
X187916889Y-141496261D01*
X187906631Y-141531780D01*
X187906103Y-141534170D01*
X187887552Y-141575962D01*
X187854816Y-141618329D01*
X187845221Y-141627459D01*
X187808654Y-141667785D01*
X187781407Y-141712060D01*
X187777681Y-141721261D01*
X187755974Y-141762617D01*
X187721627Y-141808462D01*
X187706138Y-141825191D01*
X187671815Y-141865625D01*
X187647483Y-141905419D01*
X187642102Y-141919924D01*
X187626474Y-141957271D01*
X187599186Y-142001938D01*
X187588542Y-142016337D01*
X187562465Y-142051753D01*
X187546818Y-142077039D01*
X187544807Y-142082760D01*
X187536927Y-142100107D01*
X187516389Y-142134857D01*
X187491123Y-142174169D01*
X187462886Y-142220347D01*
X187443440Y-142259100D01*
X187437439Y-142279206D01*
X187427391Y-142302206D01*
X187401184Y-142338289D01*
X187368418Y-142375402D01*
X187332520Y-142417268D01*
X187307560Y-142454786D01*
X187299396Y-142477398D01*
X187288860Y-142504566D01*
X187261905Y-142541316D01*
X187240479Y-142563964D01*
X187202823Y-142603257D01*
X187172837Y-142639995D01*
X187163248Y-142654790D01*
X187145229Y-142680726D01*
X187133089Y-142689009D01*
X187118437Y-142677469D01*
X187093172Y-142647730D01*
X187072276Y-142619539D01*
X187045165Y-142578569D01*
X187027383Y-142546888D01*
X187023309Y-142535179D01*
X187011623Y-142520719D01*
X187007971Y-142520290D01*
X186993547Y-142508277D01*
X186992633Y-142502106D01*
X186982950Y-142478355D01*
X186962975Y-142452256D01*
X186931919Y-142412833D01*
X186912811Y-142382246D01*
X186892149Y-142346583D01*
X186864203Y-142301930D01*
X186834584Y-142256806D01*
X186808899Y-142219730D01*
X186792757Y-142199220D01*
X186791619Y-142198188D01*
X186779799Y-142181805D01*
X186757969Y-142146180D01*
X186730834Y-142098992D01*
X186730553Y-142098490D01*
X186692819Y-142035454D01*
X186649551Y-141969480D01*
X186621178Y-141929770D01*
X186590748Y-141886687D01*
X186569758Y-141851684D01*
X186563230Y-141834588D01*
X186554931Y-141810745D01*
X186533987Y-141771952D01*
X186506183Y-141727783D01*
X186477304Y-141687810D01*
X186467083Y-141675519D01*
X186444096Y-141644732D01*
X186435321Y-141629504D01*
X186400614Y-141567501D01*
X186349778Y-141490793D01*
X186293508Y-141414333D01*
X186260218Y-141368928D01*
X186236034Y-141331860D01*
X186225797Y-141310596D01*
X186225724Y-141309740D01*
X186215979Y-141293903D01*
X186212175Y-141293237D01*
X186196556Y-141280762D01*
X186189613Y-141266395D01*
X186174981Y-141236334D01*
X186885430Y-141236334D01*
X186888539Y-141271917D01*
X186901852Y-141291816D01*
X186908273Y-141293237D01*
X186927378Y-141305878D01*
X186931280Y-141321673D01*
X186941233Y-141351978D01*
X186965387Y-141386870D01*
X186967342Y-141389022D01*
X186994980Y-141421685D01*
X187012752Y-141447747D01*
X187013259Y-141448779D01*
X187056078Y-141523378D01*
X187100028Y-141567708D01*
X187145799Y-141582175D01*
X187194079Y-141567183D01*
X187203954Y-141560785D01*
X187230812Y-141528103D01*
X187238043Y-141499432D01*
X187248682Y-141460475D01*
X187268720Y-141431280D01*
X187291048Y-141406093D01*
X187299396Y-141391559D01*
X187309802Y-141375977D01*
X187329624Y-141357048D01*
X187351773Y-141326953D01*
X187372103Y-141281019D01*
X187378307Y-141260643D01*
X187396762Y-141189704D01*
X187287043Y-141080420D01*
X187224290Y-141020992D01*
X187175186Y-140984661D01*
X187134003Y-140970745D01*
X187095010Y-140978559D01*
X187052480Y-141007420D01*
X187009897Y-141047361D01*
X186967444Y-141091283D01*
X186930982Y-141131584D01*
X186909468Y-141158141D01*
X186892436Y-141195073D01*
X186885430Y-141236334D01*
X186174981Y-141236334D01*
X186166500Y-141218911D01*
X186131973Y-141169646D01*
X186123628Y-141160016D01*
X186105013Y-141132536D01*
X186085373Y-141094181D01*
X186068523Y-141062585D01*
X186055070Y-141047949D01*
X186054242Y-141047826D01*
X186041083Y-141035665D01*
X186019988Y-141004888D01*
X186009147Y-140986473D01*
X185986090Y-140949874D01*
X185967464Y-140927928D01*
X185962151Y-140925121D01*
X185951259Y-140912552D01*
X185949638Y-140900441D01*
X185947101Y-140885249D01*
X185936858Y-140866374D01*
X185914958Y-140838408D01*
X185877448Y-140795946D01*
X185856196Y-140772607D01*
X185832093Y-140735487D01*
X185822764Y-140711444D01*
X185819648Y-140695971D01*
X185823556Y-140686319D01*
X185839709Y-140681544D01*
X185873328Y-140680700D01*
X185929631Y-140682846D01*
X185969889Y-140684844D01*
X186046227Y-140689845D01*
X186120417Y-140696681D01*
X186181052Y-140704222D01*
X186202717Y-140707903D01*
X186304473Y-140727197D01*
X186381318Y-140739470D01*
X186438095Y-140745165D01*
X186479649Y-140744722D01*
X186510823Y-140738583D01*
X186516827Y-140736489D01*
X186548682Y-140721415D01*
X186563092Y-140708572D01*
X186563164Y-140707926D01*
X186573151Y-140692077D01*
X186599216Y-140661639D01*
X186632235Y-140626790D01*
X186735896Y-140532586D01*
X186841265Y-140457218D01*
X186944790Y-140402305D01*
X187042921Y-140369464D01*
X187132106Y-140360312D01*
X187193947Y-140370910D01*
G37*
G36*
X185978107Y-141963924D02*
G01*
X185980314Y-141974880D01*
X185972306Y-141995866D01*
X185964976Y-141998792D01*
X185950077Y-141987783D01*
X185949638Y-141984359D01*
X185960787Y-141963586D01*
X185964976Y-141960447D01*
X185978107Y-141963924D01*
G37*
G36*
X185852783Y-139613551D02*
G01*
X185879922Y-139630001D01*
X185913578Y-139646534D01*
X185936900Y-139650446D01*
X185973484Y-139650593D01*
X186015429Y-139659200D01*
X186051717Y-139672877D01*
X186071333Y-139688237D01*
X186072343Y-139692105D01*
X186083829Y-139711352D01*
X186092395Y-139713406D01*
X186114988Y-139719962D01*
X186156512Y-139737306D01*
X186208743Y-139761954D01*
X186218935Y-139767042D01*
X186272102Y-139792649D01*
X186315928Y-139811620D01*
X186342265Y-139820474D01*
X186344595Y-139820726D01*
X186362420Y-139830082D01*
X186363768Y-139835495D01*
X186377021Y-139848595D01*
X186410218Y-139863704D01*
X186424874Y-139868525D01*
X186470545Y-139887145D01*
X186506398Y-139910104D01*
X186511611Y-139915156D01*
X186545841Y-139937558D01*
X186573035Y-139943478D01*
X186612239Y-139953373D01*
X186640021Y-139970320D01*
X186677382Y-139994500D01*
X186705303Y-140005503D01*
X186733633Y-140020808D01*
X186745073Y-140042491D01*
X186737617Y-140060709D01*
X186717670Y-140066183D01*
X186692195Y-140075082D01*
X186685869Y-140088251D01*
X186682920Y-140098247D01*
X186671310Y-140106492D01*
X186646901Y-140113844D01*
X186605550Y-140121165D01*
X186543118Y-140129313D01*
X186455465Y-140139149D01*
X186425121Y-140142399D01*
X186361389Y-140149816D01*
X186306603Y-140157335D01*
X186270125Y-140163634D01*
X186264070Y-140165112D01*
X186228030Y-140165574D01*
X186210386Y-140158647D01*
X186182925Y-140150127D01*
X186136715Y-140144468D01*
X186100183Y-140143109D01*
X186044696Y-140140549D01*
X185996693Y-140134237D01*
X185976450Y-140128983D01*
X185948059Y-140112455D01*
X185911016Y-140083911D01*
X185873270Y-140050485D01*
X185842771Y-140019313D01*
X185827470Y-139997527D01*
X185826932Y-139994806D01*
X185817741Y-139976368D01*
X185802788Y-139957560D01*
X185787465Y-139928037D01*
X185773518Y-139880192D01*
X185766598Y-139842118D01*
X185761249Y-139785769D01*
X185765433Y-139743683D01*
X185781543Y-139700288D01*
X185791550Y-139679697D01*
X185813354Y-139638785D01*
X185830015Y-139612040D01*
X185835948Y-139606038D01*
X185852783Y-139613551D01*
G37*
G36*
X188449964Y-139618364D02*
G01*
X188470826Y-139648404D01*
X188472766Y-139652053D01*
X188492902Y-139683274D01*
X188510203Y-139697914D01*
X188511505Y-139698067D01*
X188522605Y-139710937D01*
X188525703Y-139742157D01*
X188521444Y-139780645D01*
X188510473Y-139815320D01*
X188504063Y-139826022D01*
X188487238Y-139859911D01*
X188474023Y-139905996D01*
X188472757Y-139912850D01*
X188458601Y-139958718D01*
X188436815Y-139994657D01*
X188433303Y-139998173D01*
X188410748Y-140025918D01*
X188403744Y-140045553D01*
X188393005Y-140064364D01*
X188385560Y-140066183D01*
X188361500Y-140075667D01*
X188335711Y-140094669D01*
X188301893Y-140113417D01*
X188248120Y-140131438D01*
X188185055Y-140146142D01*
X188123363Y-140154942D01*
X188082919Y-140156034D01*
X188052287Y-140154072D01*
X187998785Y-140150373D01*
X187930135Y-140145481D01*
X187859239Y-140140320D01*
X187773456Y-140132947D01*
X187712453Y-140124793D01*
X187670336Y-140114714D01*
X187641212Y-140101565D01*
X187633622Y-140096483D01*
X187588390Y-140075106D01*
X187537880Y-140066183D01*
X187537759Y-140066183D01*
X187497905Y-140059210D01*
X187482771Y-140042829D01*
X187493843Y-140023846D01*
X187525634Y-140010586D01*
X187567242Y-139997698D01*
X187617485Y-139978500D01*
X187629166Y-139973512D01*
X187681619Y-139950807D01*
X187732346Y-139929297D01*
X187740368Y-139925959D01*
X187773647Y-139907224D01*
X187789900Y-139888354D01*
X187790217Y-139886050D01*
X187804473Y-139872344D01*
X187844456Y-139866835D01*
X187849692Y-139866787D01*
X187895477Y-139860861D01*
X187926382Y-139845801D01*
X187928261Y-139843780D01*
X187956585Y-139824182D01*
X187972593Y-139820773D01*
X188000273Y-139812546D01*
X188039513Y-139791914D01*
X188054261Y-139782427D01*
X188090421Y-139759187D01*
X188115401Y-139745566D01*
X188120200Y-139744082D01*
X188137154Y-139737800D01*
X188175408Y-139720838D01*
X188228716Y-139696026D01*
X188272558Y-139675060D01*
X188333726Y-139646249D01*
X188385306Y-139623336D01*
X188420664Y-139609190D01*
X188432189Y-139606038D01*
X188449964Y-139618364D01*
G37*
D13*
%TO.C,S2*%
X141450000Y-97100000D02*
X141450000Y-97100000D01*
X141450000Y-97300000D02*
X141450000Y-97300000D01*
X143150000Y-93700000D02*
X155150000Y-93700000D01*
X143150000Y-95700000D02*
X143150000Y-93700000D01*
X143150000Y-103700000D02*
X143150000Y-105700000D01*
X143150000Y-105700000D02*
X155150000Y-105700000D01*
X155150000Y-93700000D02*
X155150000Y-95700000D01*
X155150000Y-105700000D02*
X155150000Y-103700000D01*
X141450000Y-97100000D02*
G75*
G02*
X141450000Y-97300000I0J-100000D01*
G01*
X141450000Y-97300000D02*
G75*
G02*
X141450000Y-97100000I0J100000D01*
G01*
%TO.C,S1*%
X171450000Y-97000000D02*
X171450000Y-97000000D01*
X171450000Y-97200000D02*
X171450000Y-97200000D01*
X173150000Y-93600000D02*
X185150000Y-93600000D01*
X173150000Y-95600000D02*
X173150000Y-93600000D01*
X173150000Y-103600000D02*
X173150000Y-105600000D01*
X173150000Y-105600000D02*
X185150000Y-105600000D01*
X185150000Y-93600000D02*
X185150000Y-95600000D01*
X185150000Y-105600000D02*
X185150000Y-103600000D01*
X171450000Y-97000000D02*
G75*
G02*
X171450000Y-97200000I0J-100000D01*
G01*
X171450000Y-97200000D02*
G75*
G02*
X171450000Y-97000000I0J100000D01*
G01*
%TD*%
M02*
