%TF.GenerationSoftware,KiCad,Pcbnew,9.0.6*%
%TF.CreationDate,2026-06-23T15:17:50+07:00*%
%TF.ProjectId,Phylax_Version_1,5068796c-6178-45f5-9665-7273696f6e5f,rev?*%
%TF.SameCoordinates,Original*%
%TF.FileFunction,Copper,L2,Bot*%
%TF.FilePolarity,Positive*%
%FSLAX46Y46*%
G04 Gerber Fmt 4.6, Leading zero omitted, Abs format (unit mm)*
G04 Created by KiCad (PCBNEW 9.0.6) date 2026-06-23 15:17:50*
%MOMM*%
%LPD*%
G01*
G04 APERTURE LIST*
%TA.AperFunction,ComponentPad*%
%ADD10O,1.158000X2.316000*%
%TD*%
%TA.AperFunction,SMDPad,CuDef*%
%ADD11R,0.300000X0.800000*%
%TD*%
%TA.AperFunction,SMDPad,CuDef*%
%ADD12R,0.400000X0.800000*%
%TD*%
%TA.AperFunction,ComponentPad*%
%ADD13R,1.950000X1.950000*%
%TD*%
%TA.AperFunction,ComponentPad*%
%ADD14C,1.950000*%
%TD*%
G04 APERTURE END LIST*
D10*
%TO.P,J2,SH1,SHIELD*%
%TO.N,unconnected-(J2-SHIELD-PadSH1)*%
X169860000Y-34290000D03*
%TO.P,J2,SH2,SHIELD*%
%TO.N,unconnected-(J2-SHIELD-PadSH1)_2*%
X169860000Y-38290000D03*
%TO.P,J2,SH3,SHIELD*%
%TO.N,unconnected-(J2-SHIELD-PadSH1)_3*%
X158620000Y-38290000D03*
%TO.P,J2,SH4,SHIELD*%
%TO.N,unconnected-(J2-SHIELD-PadSH1)_1*%
X158620000Y-34290000D03*
%TD*%
D11*
%TO.P,J3,1,1*%
%TO.N,unconnected-(J3-Pad1)*%
X169800000Y-63400000D03*
%TO.P,J3,2,2*%
%TO.N,unconnected-(J3-Pad2)*%
X169300000Y-63400000D03*
%TO.P,J3,3,3*%
%TO.N,unconnected-(J3-Pad3)*%
X168800000Y-63400000D03*
%TO.P,J3,4,4*%
%TO.N,unconnected-(J3-Pad4)*%
X168300000Y-63400000D03*
%TO.P,J3,5,5*%
%TO.N,unconnected-(J3-Pad5)*%
X167800000Y-63400000D03*
%TO.P,J3,6,6*%
%TO.N,unconnected-(J3-Pad6)*%
X167300000Y-63400000D03*
%TO.P,J3,7,7*%
%TO.N,unconnected-(J3-Pad7)*%
X166800000Y-63400000D03*
%TO.P,J3,8,8*%
%TO.N,unconnected-(J3-Pad8)*%
X166300000Y-63400000D03*
%TO.P,J3,9,9*%
%TO.N,unconnected-(J3-Pad9)*%
X165800000Y-63400000D03*
%TO.P,J3,10,10*%
%TO.N,unconnected-(J3-Pad10)*%
X165300000Y-63400000D03*
%TO.P,J3,11,11*%
%TO.N,unconnected-(J3-Pad11)*%
X164800000Y-63400000D03*
%TO.P,J3,12,12*%
%TO.N,unconnected-(J3-Pad12)*%
X164300000Y-63400000D03*
%TO.P,J3,13,13*%
%TO.N,unconnected-(J3-Pad13)*%
X163800000Y-63400000D03*
%TO.P,J3,14,14*%
%TO.N,unconnected-(J3-Pad14)*%
X163300000Y-63400000D03*
%TO.P,J3,15,15*%
%TO.N,unconnected-(J3-Pad15)*%
X162800000Y-63400000D03*
%TO.P,J3,16,16*%
%TO.N,unconnected-(J3-Pad16)*%
X162300000Y-63400000D03*
%TO.P,J3,17,17*%
%TO.N,unconnected-(J3-Pad17)*%
X161800000Y-63400000D03*
%TO.P,J3,18,18*%
%TO.N,unconnected-(J3-Pad18)*%
X161300000Y-63400000D03*
%TO.P,J3,19,19*%
%TO.N,unconnected-(J3-Pad19)*%
X160800000Y-63400000D03*
%TO.P,J3,20,20*%
%TO.N,unconnected-(J3-Pad20)*%
X160300000Y-63400000D03*
%TO.P,J3,21,21*%
%TO.N,unconnected-(J3-Pad21)*%
X159800000Y-63400000D03*
%TO.P,J3,22,22*%
%TO.N,unconnected-(J3-Pad22)*%
X159300000Y-63400000D03*
%TO.P,J3,23,23*%
%TO.N,unconnected-(J3-Pad23)*%
X158800000Y-63400000D03*
%TO.P,J3,24,24*%
%TO.N,unconnected-(J3-Pad24)*%
X158300000Y-63400000D03*
%TO.P,J3,25,25*%
%TO.N,unconnected-(J3-Pad25)*%
X170300000Y-63400000D03*
%TO.P,J3,26,26*%
%TO.N,unconnected-(J3-Pad26)*%
X157800000Y-63400000D03*
D12*
%TO.P,J3,27,MP1*%
%TO.N,unconnected-(J3-MP1-Pad27)*%
X171300000Y-60900000D03*
%TO.P,J3,28,MP2*%
%TO.N,unconnected-(J3-MP2-Pad28)*%
X156800000Y-60900000D03*
%TD*%
D13*
%TO.P,S2,1,COM_1*%
%TO.N,unconnected-(S2-COM_1-Pad1)*%
X142900000Y-97200000D03*
D14*
%TO.P,S2,2,COM_2*%
%TO.N,unconnected-(S2-COM_2-Pad2)*%
X155400000Y-97200000D03*
%TO.P,S2,3,NO_1*%
%TO.N,unconnected-(S2-NO_1-Pad3)*%
X142900000Y-102200000D03*
%TO.P,S2,4,NO_2*%
%TO.N,unconnected-(S2-NO_2-Pad4)*%
X155400000Y-102200000D03*
%TD*%
D13*
%TO.P,S1,1,COM_1*%
%TO.N,unconnected-(S1-COM_1-Pad1)*%
X172900000Y-97100000D03*
D14*
%TO.P,S1,2,COM_2*%
%TO.N,unconnected-(S1-COM_2-Pad2)*%
X185400000Y-97100000D03*
%TO.P,S1,3,NO_1*%
%TO.N,unconnected-(S1-NO_1-Pad3)*%
X172900000Y-102100000D03*
%TO.P,S1,4,NO_2*%
%TO.N,unconnected-(S1-NO_2-Pad4)*%
X185400000Y-102100000D03*
%TD*%
M02*
