%TF.GenerationSoftware,KiCad,Pcbnew,9.0.6*%
%TF.CreationDate,2026-06-23T15:17:50+07:00*%
%TF.ProjectId,Phylax_Version_1,5068796c-6178-45f5-9665-7273696f6e5f,rev?*%
%TF.SameCoordinates,Original*%
%TF.FileFunction,Legend,Bot*%
%TF.FilePolarity,Positive*%
%FSLAX46Y46*%
G04 Gerber Fmt 4.6, Leading zero omitted, Abs format (unit mm)*
G04 Created by KiCad (PCBNEW 9.0.6) date 2026-06-23 15:17:50*
%MOMM*%
%LPD*%
G01*
G04 APERTURE LIST*
%ADD10C,0.125000*%
%ADD11C,0.200000*%
%ADD12C,0.100000*%
G04 APERTURE END LIST*
D10*
X171216666Y-64474809D02*
X171216666Y-64831952D01*
X171216666Y-64831952D02*
X171240475Y-64903380D01*
X171240475Y-64903380D02*
X171288094Y-64951000D01*
X171288094Y-64951000D02*
X171359523Y-64974809D01*
X171359523Y-64974809D02*
X171407142Y-64974809D01*
X171026190Y-64474809D02*
X170716666Y-64474809D01*
X170716666Y-64474809D02*
X170883333Y-64665285D01*
X170883333Y-64665285D02*
X170811904Y-64665285D01*
X170811904Y-64665285D02*
X170764285Y-64689095D01*
X170764285Y-64689095D02*
X170740476Y-64712904D01*
X170740476Y-64712904D02*
X170716666Y-64760523D01*
X170716666Y-64760523D02*
X170716666Y-64879571D01*
X170716666Y-64879571D02*
X170740476Y-64927190D01*
X170740476Y-64927190D02*
X170764285Y-64951000D01*
X170764285Y-64951000D02*
X170811904Y-64974809D01*
X170811904Y-64974809D02*
X170954761Y-64974809D01*
X170954761Y-64974809D02*
X171002380Y-64951000D01*
X171002380Y-64951000D02*
X171026190Y-64927190D01*
D11*
%TO.C,J3*%
X156550000Y-63250000D02*
X156800000Y-63250000D01*
X156550000Y-61750000D02*
X156550000Y-63250000D01*
X156800000Y-64150000D02*
X171300000Y-64150000D01*
X156800000Y-63250000D02*
X156800000Y-64150000D01*
X157550000Y-60350000D02*
X170550000Y-60350000D01*
D12*
X169800000Y-64750000D02*
X169800000Y-64750000D01*
X169800000Y-64650000D02*
X169800000Y-64650000D01*
D11*
X171300000Y-64150000D02*
X171300000Y-63250000D01*
X171300000Y-63250000D02*
X171550000Y-63250000D01*
X171550000Y-63250000D02*
X171550000Y-61750000D01*
D12*
X169800000Y-64650000D02*
G75*
G02*
X169800000Y-64750000I0J-50000D01*
G01*
X169800000Y-64750000D02*
G75*
G02*
X169800000Y-64650000I0J50000D01*
G01*
%TD*%
M02*
