%TF.GenerationSoftware,KiCad,Pcbnew,9.0.6*%
%TF.CreationDate,2026-06-23T15:17:50+07:00*%
%TF.ProjectId,Phylax_Version_1,5068796c-6178-45f5-9665-7273696f6e5f,rev?*%
%TF.SameCoordinates,Original*%
%TF.FileFunction,Soldermask,Top*%
%TF.FilePolarity,Negative*%
%FSLAX46Y46*%
G04 Gerber Fmt 4.6, Leading zero omitted, Abs format (unit mm)*
G04 Created by KiCad (PCBNEW 9.0.6) date 2026-06-23 15:17:50*
%MOMM*%
%LPD*%
G01*
G04 APERTURE LIST*
%ADD10C,0.010000*%
%ADD11O,1.362000X2.520000*%
%ADD12R,1.950000X1.950000*%
%ADD13C,1.950000*%
%ADD14C,3.200000*%
G04 APERTURE END LIST*
D10*
%TO.C,J2*%
X167790000Y-40040000D02*
X167090000Y-40040000D01*
X167090000Y-38840000D01*
X167790000Y-38840000D01*
X167790000Y-40040000D01*
G36*
X167790000Y-40040000D02*
G01*
X167090000Y-40040000D01*
X167090000Y-38840000D01*
X167790000Y-38840000D01*
X167790000Y-40040000D01*
G37*
X166990000Y-40040000D02*
X166290000Y-40040000D01*
X166290000Y-38840000D01*
X166990000Y-38840000D01*
X166990000Y-40040000D01*
G36*
X166990000Y-40040000D02*
G01*
X166290000Y-40040000D01*
X166290000Y-38840000D01*
X166990000Y-38840000D01*
X166990000Y-40040000D01*
G37*
X166190000Y-40040000D02*
X165790000Y-40040000D01*
X165790000Y-38840000D01*
X166190000Y-38840000D01*
X166190000Y-40040000D01*
G36*
X166190000Y-40040000D02*
G01*
X165790000Y-40040000D01*
X165790000Y-38840000D01*
X166190000Y-38840000D01*
X166190000Y-40040000D01*
G37*
X165690000Y-40040000D02*
X165290000Y-40040000D01*
X165290000Y-38840000D01*
X165690000Y-38840000D01*
X165690000Y-40040000D01*
G36*
X165690000Y-40040000D02*
G01*
X165290000Y-40040000D01*
X165290000Y-38840000D01*
X165690000Y-38840000D01*
X165690000Y-40040000D01*
G37*
X165190000Y-40040000D02*
X164790000Y-40040000D01*
X164790000Y-38840000D01*
X165190000Y-38840000D01*
X165190000Y-40040000D01*
G36*
X165190000Y-40040000D02*
G01*
X164790000Y-40040000D01*
X164790000Y-38840000D01*
X165190000Y-38840000D01*
X165190000Y-40040000D01*
G37*
X164690000Y-40040000D02*
X164290000Y-40040000D01*
X164290000Y-38840000D01*
X164690000Y-38840000D01*
X164690000Y-40040000D01*
G36*
X164690000Y-40040000D02*
G01*
X164290000Y-40040000D01*
X164290000Y-38840000D01*
X164690000Y-38840000D01*
X164690000Y-40040000D01*
G37*
X164190000Y-40040000D02*
X163790000Y-40040000D01*
X163790000Y-38840000D01*
X164190000Y-38840000D01*
X164190000Y-40040000D01*
G36*
X164190000Y-40040000D02*
G01*
X163790000Y-40040000D01*
X163790000Y-38840000D01*
X164190000Y-38840000D01*
X164190000Y-40040000D01*
G37*
X163690000Y-40040000D02*
X163290000Y-40040000D01*
X163290000Y-38840000D01*
X163690000Y-38840000D01*
X163690000Y-40040000D01*
G36*
X163690000Y-40040000D02*
G01*
X163290000Y-40040000D01*
X163290000Y-38840000D01*
X163690000Y-38840000D01*
X163690000Y-40040000D01*
G37*
X163190000Y-40040000D02*
X162790000Y-40040000D01*
X162790000Y-38840000D01*
X163190000Y-38840000D01*
X163190000Y-40040000D01*
G36*
X163190000Y-40040000D02*
G01*
X162790000Y-40040000D01*
X162790000Y-38840000D01*
X163190000Y-38840000D01*
X163190000Y-40040000D01*
G37*
X162690000Y-40040000D02*
X162290000Y-40040000D01*
X162290000Y-38840000D01*
X162690000Y-38840000D01*
X162690000Y-40040000D01*
G36*
X162690000Y-40040000D02*
G01*
X162290000Y-40040000D01*
X162290000Y-38840000D01*
X162690000Y-38840000D01*
X162690000Y-40040000D01*
G37*
X162190000Y-40040000D02*
X161490000Y-40040000D01*
X161490000Y-38840000D01*
X162190000Y-38840000D01*
X162190000Y-40040000D01*
G36*
X162190000Y-40040000D02*
G01*
X161490000Y-40040000D01*
X161490000Y-38840000D01*
X162190000Y-38840000D01*
X162190000Y-40040000D01*
G37*
X161390000Y-40040000D02*
X160690000Y-40040000D01*
X160690000Y-38840000D01*
X161390000Y-38840000D01*
X161390000Y-40040000D01*
G36*
X161390000Y-40040000D02*
G01*
X160690000Y-40040000D01*
X160690000Y-38840000D01*
X161390000Y-38840000D01*
X161390000Y-40040000D01*
G37*
%TD*%
D11*
%TO.C,J2*%
X169860000Y-34290000D03*
X169860000Y-38290000D03*
X158620000Y-38290000D03*
X158620000Y-34290000D03*
%TD*%
D12*
%TO.C,S2*%
X142900000Y-97200000D03*
D13*
X155400000Y-97200000D03*
X142900000Y-102200000D03*
X155400000Y-102200000D03*
%TD*%
D12*
%TO.C,S1*%
X172900000Y-97100000D03*
D13*
X185400000Y-97100000D03*
X172900000Y-102100000D03*
X185400000Y-102100000D03*
%TD*%
D14*
%TO.C,H4*%
X197700000Y-36200000D03*
%TD*%
%TO.C,H3*%
X197700000Y-148200000D03*
%TD*%
%TO.C,H2*%
X130700000Y-148200000D03*
%TD*%
%TO.C,H1*%
X130700000Y-36200000D03*
%TD*%
M02*
